<?xml version="1.0" encoding="UTF-8" standalone="no"?>
<!-- Created with Inkscape (http://www.inkscape.org/) -->

<svg
   xmlns:dc="http://purl.org/dc/elements/1.1/"
   xmlns:cc="http://creativecommons.org/ns#"
   xmlns:rdf="http://www.w3.org/1999/02/22-rdf-syntax-ns#"
   xmlns:svg="http://www.w3.org/2000/svg"
   xmlns="http://www.w3.org/2000/svg"
   xmlns:sodipodi="http://sodipodi.sourceforge.net/DTD/sodipodi-0.dtd"
   xmlns:inkscape="http://www.inkscape.org/namespaces/inkscape"
   width="1052.3622"
   height="744.09448"
   id="svg2"
   version="1.1"
   inkscape:version="0.48.4 r9939"
   sodipodi:docname="drawing.svg"
   inkscape:export-filename="C:\Users\SONY\Desktop\drawing.png"
   inkscape:export-xdpi="100"
   inkscape:export-ydpi="100">
  <defs
     id="defs4" />
  <sodipodi:namedview
     id="base"
     pagecolor="#ffffff"
     bordercolor="#666666"
     borderopacity="1.0"
     inkscape:pageopacity="0.0"
     inkscape:pageshadow="2"
     inkscape:zoom="0.175"
     inkscape:cx="830.43069"
     inkscape:cy="4.4931302"
     inkscape:document-units="px"
     inkscape:current-layer="layer1-1"
     showgrid="false"
     borderlayer="true"
     inkscape:window-width="1366"
     inkscape:window-height="745"
     inkscape:window-x="-8"
     inkscape:window-y="-8"
     inkscape:window-maximized="1" />
  <metadata
     id="metadata7">
    <rdf:RDF>
      <cc:Work
         rdf:about="">
        <dc:format>image/svg+xml</dc:format>
        <dc:type
           rdf:resource="http://purl.org/dc/dcmitype/StillImage" />
        <dc:title></dc:title>
      </cc:Work>
    </rdf:RDF>
  </metadata>
  <g
     inkscape:label="Layer 1"
     inkscape:groupmode="layer"
     id="layer1"
     transform="translate(0,-308.2677)">
    <path
       style="fill:#f2f2f2;fill-opacity:1;stroke:none"
       d="m -79.247269,275.21933 1207.818769,0 0,814.28567 -1207.818769,0 z"
       id="rect3001" />
    <g
       transform="matrix(2.2396271,0,0,1.9624836,158.5971,-95.501807)"
       style="font-size:26.09378433px;font-style:normal;font-variant:normal;font-weight:normal;font-stretch:normal;text-align:center;line-height:125%;letter-spacing:0px;word-spacing:0px;writing-mode:lr-tb;text-anchor:middle;fill:#1a1a1a;fill-opacity:1;stroke:none;font-family:Indy Pimp;-inkscape-font-specification:Indy Pimp"
       id="flowRoot2985">
      <path
         d="m 71.003973,244.21033 0.03822,0 c 0.382226,2e-5 0.959823,0.36102 1.73279,1.08299 l 5.389488,21.77455 c -0.645562,0.45868 -1.167947,0.68802 -1.567156,0.68802 l -0.127411,0 c -0.390739,0 -0.658302,-0.45443 -0.80269,-1.3633 l -1.363298,-5.38949 -0.03822,0 c -3.499562,0.43321 -5.37675,0.68803 -5.631568,0.76447 -0.696517,2.871 -1.176431,4.66749 -1.439745,5.38949 l -0.05097,0.0382 -0.229339,0 c -0.331271,-0.034 -0.815432,-0.25057 -1.452487,-0.64979 3.457083,-14.66075 5.223848,-22.08032 5.3003,-22.25872 z m 0.649797,5.46593 -2.331623,9.47938 4.421164,-0.52238 0,-0.0382 -2.051318,-8.91878 z"
         style=""
         id="path3036" />
      <path
         d="m 79.578738,244.26129 0.394974,0 c 0.356749,3e-5 0.603077,0.0255 0.738984,0.0764 l 0.356751,-0.0382 c 2.225442,3e-5 4.370192,0.51392 6.434258,1.54168 1.613863,1.0278 2.420799,2.30616 2.42081,3.83507 l 0,0.40772 c -1.1e-5,2.24245 -1.359061,3.99647 -4.077153,5.26207 l -0.445939,0.1529 c 2.692611,6.3111 4.03892,9.92532 4.03893,10.84268 l 0,0.11467 c -0.135915,0.67952 -0.581854,1.01929 -1.337816,1.01929 l -0.11467,0 c -0.110432,-0.0595 -0.543629,-0.97682 -1.299592,-2.75208 l -3.924261,-8.53654 -1.082994,0.12741 0.07645,11.19943 c -3e-6,0.16139 -0.186873,0.24208 -0.560609,0.24208 l -0.165634,0 c -0.679528,0 -1.299594,-0.0934 -1.860202,-0.2803 l 0.03822,-0.24208 0.08919,-22.76836 c 0.03398,-0.13588 0.127411,-0.20383 0.280305,-0.20386 z m 1.974871,2.62467 0.08919,7.73385 c 0.484158,1e-5 1.588386,-0.42044 3.312687,-1.26137 1.401514,-0.93433 2.102274,-1.94512 2.102283,-3.03238 l 0,-0.28031 c -9e-6,-1.60536 -1.592645,-2.64588 -4.777915,-3.12157 z"
         style=""
         id="path3038" />
      <path
         d="m 101.6973,244.09566 c 0.10192,2e-5 0.22083,0.48843 0.35675,1.46522 -1e-5,0.22087 -0.19113,0.3313 -0.57335,0.33127 l -4.115378,0.24208 -0.165635,21.29039 c -0.05097,0.22085 -0.216605,0.33127 -0.496903,0.33127 l -0.07645,0 c -0.450192,0 -0.96833,-0.11042 -1.554415,-0.33127 l 0,-21.16297 -3.79685,0.20385 -0.127411,0.0382 c -0.135905,-0.44167 -0.203858,-1.04051 -0.203857,-1.7965 l 0,-0.0765 c -10e-7,-0.13588 0.04247,-0.27178 0.127411,-0.40771 z"
         style=""
         id="path3040" />
      <path
         d="m 110.94734,244.19759 c 0.41621,2e-5 0.96832,0.0807 1.65635,0.24208 l 0.0382,5.91187 0,16.47425 c 0,0.62007 -0.13591,0.9301 -0.40772,0.9301 l -0.31852,0 c -0.66254,0 -1.19767,-0.11892 -1.60538,-0.35675 l 0,-22.95947 c 0.0764,-0.16137 0.28879,-0.24206 0.63705,-0.24208 z"
         style=""
         id="path3042" />
      <path
         d="m 120.94911,244.1721 c 1.80923,3e-5 3.54626,0.90889 5.21111,2.7266 l 0,0.20386 c -10e-6,0.33129 -0.28456,0.8197 -0.85365,1.46523 -1.54593,-1.33355 -2.96869,-2.00034 -4.26827,-2.00036 l -0.29305,0 c -1.32508,2e-5 -2.46328,0.67955 -3.41462,2.03858 -0.11042,0.35677 -0.16563,0.62858 -0.16563,0.81543 0,0.8834 0.55636,1.72431 1.66909,2.52274 0.43319,1e-5 1.96637,0.48418 4.59953,1.45248 1.15519,0.4587 2.2127,1.16371 3.17254,2.11503 0.28878,0.33128 0.57334,1.21466 0.85365,2.65015 l 0.16564,1.87294 c -2e-5,2.89648 -1.2359,5.14316 -3.70766,6.74005 -1.03629,0.65404 -2.13202,0.98106 -3.28721,0.98106 l -0.24208,0 c -1.78376,0 -4.02195,-0.51389 -6.71456,-1.54167 l 0,-0.0892 c 0.29729,-1.48646 0.60732,-2.22969 0.9301,-2.22969 1.78375,0.84091 3.39762,1.26137 4.84162,1.26136 l 0.33127,0 c 2.03007,10e-6 3.75012,-0.80268 5.16014,-2.40806 0.18686,-0.8579 0.2803,-1.62661 0.28031,-2.30614 -1e-5,-2.58219 -1.10849,-4.31923 -3.32543,-5.21112 -0.51815,-0.16137 -1.60539,-0.43318 -3.26172,-0.81543 -2.68413,-0.94282 -4.02619,-2.45901 -4.02619,-4.54857 0.17837,-1.52042 0.34401,-2.28064 0.4969,-2.28066 0.63705,-1.27409 1.97912,-2.30187 4.02619,-3.08335 0.80693,-0.22082 1.41426,-0.33124 1.82198,-0.33127 z"
         style=""
         id="path3044" />
      <path
         d="m 147.04289,244.15936 c 0.31427,3e-5 0.50539,0.0807 0.57335,0.24208 l 0,0.0764 c -1e-5,2.16601 -0.25908,9.81916 -0.77721,22.95947 -0.36525,0.21235 -0.70077,0.31853 -1.00654,0.31853 l -0.11467,0 c -0.17839,-0.0849 -0.63707,-1.05326 -1.37604,-2.90497 -1.5884,-3.60148 -3.64821,-8.45159 -6.17944,-14.55034 l -0.051,0 0,4.56131 0.051,7.44081 -0.051,5.28756 -0.24209,0.0892 -0.43319,0 c -1.02779,0 -1.54168,-0.0552 -1.54168,-0.16563 l 0,-22.90851 c 0,-0.21233 0.2166,-0.3185 0.6498,-0.31853 l 0.2803,0 c 0.8579,3e-5 1.28685,0.0637 1.28686,0.19112 0.034,0.19539 1.39727,3.55054 4.08989,10.06547 l 3.10883,7.63193 0.0382,0 0,-0.0382 0.0382,-10.53689 0,-3.84782 0.0382,-3.2235 c 0.5606,-0.2463 1.09997,-0.36946 1.61812,-0.36949 z"
         style=""
         id="path3046" />
      <path
         d="m 154.63659,244.12114 c 2.87098,2e-5 4.65049,0.65831 5.33852,1.97487 0.5606,0.79846 0.9853,2.183 1.27411,4.1536 0.4162,2.96445 0.6243,5.3895 0.62432,7.27517 l 0,0.6498 c -2e-5,4.61228 -1.38455,7.64042 -4.1536,9.08441 -0.79846,0.33127 -1.55018,0.4969 -2.25518,0.4969 l -0.25482,0 c -2.12352,0 -3.84782,-1.82198 -5.17289,-5.46593 -0.93435,-3.17678 -1.40152,-6.26012 -1.40152,-9.25005 0,-4.65473 1.49495,-7.54696 4.48487,-8.67669 0.67952,-0.16136 1.18491,-0.24206 1.51619,-0.24208 z m -3.69492,8.05238 c -10e-6,3.0239 0.51813,6.21767 1.55441,9.58131 0.74748,1.97063 1.81773,2.95594 3.21076,2.95594 1.41001,-0.15289 2.19146,-0.39922 2.34436,-0.73899 0.40771,-0.2803 0.76446,-0.93859 1.07026,-1.97487 0.32276,-1.07874 0.48415,-2.58644 0.48416,-4.52309 l 0,-0.0764 c -10e-6,-4.04316 -0.38224,-7.07129 -1.1467,-9.08441 -0.70502,-1.2571 -1.62238,-1.88566 -2.75208,-1.88568 l -0.12741,0 c -1.12972,0.10195 -2.26792,0.60735 -3.41462,1.51619 -0.52663,0.42472 -0.89612,1.16371 -1.10847,2.21695 -0.0764,0.79846 -0.11468,1.46949 -0.11467,2.0131 z"
         style=""
         id="path3048" />
      <path
         d="m 173.65906,244.09566 c 0.10192,2e-5 0.22084,0.48843 0.35675,1.46522 -10e-6,0.22087 -0.19112,0.3313 -0.57335,0.33127 l -4.11537,0.24208 -0.16564,21.29039 c -0.051,0.22085 -0.2166,0.33127 -0.4969,0.33127 l -0.0764,0 c -0.45019,0 -0.96833,-0.11042 -1.55441,-0.33127 l 0,-21.16297 -3.79685,0.20385 -0.12741,0.0382 c -0.13591,-0.44167 -0.20386,-1.04051 -0.20386,-1.7965 l 0,-0.0765 c 0,-0.13588 0.0425,-0.27178 0.12741,-0.40771 z"
         style=""
         id="path3050" />
      <path
         d="m 187.81443,244.21033 0.0382,0 c 0.38223,2e-5 0.95982,0.36102 1.73279,1.08299 l 5.38949,21.77455 c -0.64556,0.45868 -1.16795,0.68802 -1.56716,0.68802 l -0.12741,0 c -0.39074,0 -0.6583,-0.45443 -0.80269,-1.3633 l -1.36329,-5.38949 -0.0382,0 c -3.49956,0.43321 -5.37675,0.68803 -5.63157,0.76447 -0.69651,2.871 -1.17643,4.66749 -1.43974,5.38949 l -0.051,0.0382 -0.22934,0 c -0.33127,-0.034 -0.81543,-0.25057 -1.45248,-0.64979 3.45708,-14.66075 5.22385,-22.08032 5.3003,-22.25872 z m 0.6498,5.46593 -2.33163,9.47938 4.42117,-0.52238 0,-0.0382 -2.05132,-8.91878 z"
         style=""
         id="path3052" />
      <path
         d="m 203.91919,244.09566 c 1.08724,2e-5 1.63086,0.0552 1.63086,0.16563 l 3.66944,7.92497 0.0892,0 3.63121,-8.0906 c 1.66483,0.0255 2.49725,0.0807 2.49726,0.16563 0.18686,11.57743 0.28029,18.60627 0.2803,21.08653 l 0.051,1.26137 -0.051,0.94284 c -0.1614,0.13591 -0.44595,0.20386 -0.85365,0.20386 -1.03629,0 -1.55443,-0.0679 -1.55442,-0.20386 l -0.2803,-17.81206 0,-0.051 -0.0382,0 c -2.27642,4.35747 -3.47833,6.59141 -3.60574,6.70182 l -0.0382,0 -3.75863,-5.92461 -0.0382,0 0,13.3272 c 0,2.59069 -0.0552,3.88603 -0.16563,3.88603 l -0.3695,0.0765 -0.44593,0 c -0.90038,-0.051 -1.35056,-0.13166 -1.35056,-0.24208 l 0.0382,-20.06724 0,-3.18528 c 0,-0.1104 0.22085,-0.16561 0.66254,-0.16563 z"
         style=""
         id="path3054" />
      <path
         d="m 217.41202,244.19759 c 0.41621,2e-5 0.96832,0.0807 1.65634,0.24208 l 0.0382,5.91187 0,16.47425 c 0,0.62007 -0.1359,0.9301 -0.40771,0.9301 l -0.31853,0 c -0.66254,0 -1.19766,-0.11892 -1.60538,-0.35675 l 0,-22.95947 c 0.0764,-0.16137 0.2888,-0.24206 0.63706,-0.24208 z"
         style=""
         id="path3056" />
      <path
         d="m 220.54633,244.26129 0.39497,0 c 0.35675,3e-5 0.60308,0.0255 0.73898,0.0764 l 0.35675,-0.0382 c 2.22545,3e-5 4.3702,0.51392 6.43426,1.54168 1.61387,1.0278 2.4208,2.30616 2.42081,3.83507 l 0,0.40772 c -1e-5,2.24245 -1.35906,3.99647 -4.07715,5.26207 l -0.44594,0.1529 c 2.69261,6.3111 4.03892,9.92532 4.03893,10.84268 l 0,0.11467 c -0.13591,0.67952 -0.58185,1.01929 -1.33782,1.01929 l -0.11467,0 c -0.11043,-0.0595 -0.54362,-0.97682 -1.29959,-2.75208 l -3.92426,-8.53654 -1.08299,0.12741 0.0764,11.19943 c 0,0.16139 -0.18687,0.24208 -0.5606,0.24208 l -0.16564,0 c -0.67953,0 -1.29959,-0.0934 -1.8602,-0.2803 l 0.0382,-0.24208 0.0892,-22.76836 c 0.034,-0.13588 0.12741,-0.20383 0.28031,-0.20386 z m 1.97487,2.62467 0.0892,7.73385 c 0.48416,1e-5 1.58839,-0.42044 3.31269,-1.26137 1.40152,-0.93433 2.10228,-1.94512 2.10228,-3.03238 l 0,-0.28031 c 0,-1.60536 -1.59264,-2.64588 -4.77791,-3.12157 z"
         style=""
         id="path3058" />
      <path
         d="m 232.31911,244.26129 0.39497,0 c 0.35675,3e-5 0.60308,0.0255 0.73898,0.0764 l 0.35676,-0.0382 c 2.22544,3e-5 4.37019,0.51392 6.43425,1.54168 1.61387,1.0278 2.4208,2.30616 2.42081,3.83507 l 0,0.40772 c -1e-5,2.24245 -1.35906,3.99647 -4.07715,5.26207 l -0.44594,0.1529 c 2.69261,6.3111 4.03892,9.92532 4.03893,10.84268 l 0,0.11467 c -0.13591,0.67952 -0.58185,1.01929 -1.33781,1.01929 l -0.11467,0 c -0.11044,-0.0595 -0.54363,-0.97682 -1.2996,-2.75208 l -3.92426,-8.53654 -1.08299,0.12741 0.0764,11.19943 c -1e-5,0.16139 -0.18688,0.24208 -0.56061,0.24208 l -0.16564,0 c -0.67952,0 -1.29959,-0.0934 -1.8602,-0.2803 l 0.0382,-0.24208 0.0892,-22.76836 c 0.034,-0.13588 0.12741,-0.20383 0.28031,-0.20386 z m 1.97487,2.62467 0.0892,7.73385 c 0.48415,1e-5 1.58838,-0.42044 3.31268,-1.26137 1.40152,-0.93433 2.10228,-1.94512 2.10229,-3.03238 l 0,-0.28031 c -1e-5,-1.60536 -1.59265,-2.64588 -4.77792,-3.12157 z"
         style=""
         id="path3060" />
      <path
         d="m 249.68523,244.12114 c 2.87099,2e-5 4.6505,0.65831 5.33853,1.97487 0.56059,0.79846 0.9853,2.183 1.27411,4.1536 0.41619,2.96445 0.6243,5.3895 0.62431,7.27517 l 0,0.6498 c -1e-5,4.61228 -1.38454,7.64042 -4.1536,9.08441 -0.79845,0.33127 -1.55018,0.4969 -2.25517,0.4969 l -0.25483,0 c -2.12352,0 -3.84781,-1.82198 -5.17289,-5.46593 -0.93434,-3.17678 -1.40152,-6.26012 -1.40152,-9.25005 0,-4.65473 1.49496,-7.54696 4.48487,-8.67669 0.67952,-0.16136 1.18492,-0.24206 1.51619,-0.24208 z m -3.69492,8.05238 c 0,3.0239 0.51814,6.21767 1.55442,9.58131 0.74747,1.97063 1.81772,2.95594 3.21076,2.95594 1.41,-0.15289 2.19146,-0.39922 2.34436,-0.73899 0.4077,-0.2803 0.76446,-0.93859 1.07025,-1.97487 0.32277,-1.07874 0.48415,-2.58644 0.48416,-4.52309 l 0,-0.0764 c -1e-5,-4.04316 -0.38224,-7.07129 -1.1467,-9.08441 -0.70501,-1.2571 -1.62237,-1.88566 -2.75207,-1.88568 l -0.12741,0 c -1.12972,0.10195 -2.26793,0.60735 -3.41462,1.51619 -0.52664,0.42472 -0.89613,1.16371 -1.10848,2.21695 -0.0765,0.79846 -0.11467,1.46949 -0.11467,2.0131 z"
         style=""
         id="path3062" />
      <path
         d="m 258.36194,244.26129 0.39497,0 c 0.35675,3e-5 0.60308,0.0255 0.73899,0.0764 l 0.35675,-0.0382 c 2.22544,3e-5 4.37019,0.51392 6.43426,1.54168 1.61386,1.0278 2.42079,2.30616 2.42081,3.83507 l 0,0.40772 c -2e-5,2.24245 -1.35907,3.99647 -4.07716,5.26207 l -0.44594,0.1529 c 2.69261,6.3111 4.03892,9.92532 4.03893,10.84268 l 0,0.11467 c -0.13591,0.67952 -0.58185,1.01929 -1.33781,1.01929 l -0.11467,0 c -0.11043,-0.0595 -0.54363,-0.97682 -1.2996,-2.75208 l -3.92426,-8.53654 -1.08299,0.12741 0.0764,11.19943 c -10e-6,0.16139 -0.18688,0.24208 -0.56061,0.24208 l -0.16564,0 c -0.67952,0 -1.29959,-0.0934 -1.8602,-0.2803 l 0.0382,-0.24208 0.0892,-22.76836 c 0.034,-0.13588 0.12741,-0.20383 0.28031,-0.20386 z m 1.97487,2.62467 0.0892,7.73385 c 0.48416,1e-5 1.58838,-0.42044 3.31268,-1.26137 1.40152,-0.93433 2.10228,-1.94512 2.10229,-3.03238 l 0,-0.28031 c -1e-5,-1.60536 -1.59265,-2.64588 -4.77792,-3.12157 z"
         style=""
         id="path3064" />
      <path
         d="m 57.562107,276.71288 c 0.101917,2e-5 0.220834,0.48843 0.356751,1.46522 -1.2e-5,0.22087 -0.191128,0.33129 -0.57335,0.33127 l -4.115377,0.24208 -0.165634,21.29039 c -0.05097,0.22085 -0.216606,0.33127 -0.496903,0.33127 l -0.07645,0 c -0.450192,0 -0.968329,-0.11042 -1.554415,-0.33127 l 0,-21.16298 -3.796849,0.20386 -0.127411,0.0382 c -0.135906,-0.44167 -0.203859,-1.0405 -0.203858,-1.79649 l 0,-0.0765 c -10e-7,-0.13588 0.04247,-0.27179 0.127411,-0.40771 z"
         style=""
         id="path3066" />
      <path
         d="m 64.939207,276.73836 c 2.870987,2e-5 4.650493,0.65831 5.338524,1.97487 0.560596,0.79846 0.985299,2.18299 1.27411,4.1536 0.416196,2.96444 0.624301,5.3895 0.624314,7.27517 l 0,0.6498 c -1.3e-5,4.61228 -1.384545,7.64042 -4.1536,9.08441 -0.798451,0.33126 -1.550176,0.4969 -2.255176,0.4969 l -0.254822,0 c -2.123522,0 -3.847817,-1.82198 -5.172889,-5.46594 -0.934348,-3.17677 -1.401522,-6.26011 -1.401521,-9.25004 -10e-7,-4.65473 1.494954,-7.54696 4.484869,-8.67669 0.67952,-0.16137 1.184916,-0.24206 1.516191,-0.24208 z m -3.69492,8.05238 c -3e-6,3.0239 0.518135,6.21767 1.554415,9.58131 0.747473,1.97063 1.817725,2.95594 3.210758,2.95593 1.410007,-0.15289 2.191461,-0.39921 2.344364,-0.73898 0.407705,-0.2803 0.764455,-0.93859 1.070253,-1.97487 0.322763,-1.07874 0.48415,-2.58644 0.484162,-4.52309 l 0,-0.0765 c -1.2e-5,-4.04316 -0.382245,-7.0713 -1.1467,-9.08441 -0.705017,-1.2571 -1.622376,-1.88566 -2.752079,-1.88568 l -0.127411,0 c -1.129717,0.10195 -2.267922,0.60734 -3.414616,1.51619 -0.526636,0.42472 -0.896128,1.16371 -1.108476,2.21695 -0.07645,0.79846 -0.114673,1.46949 -0.11467,2.0131 z"
         style=""
         id="path3068" />
      <path
         d="m 88.089796,276.87851 0.394974,0 c 0.356749,2e-5 0.603077,0.0255 0.738984,0.0765 l 0.356751,-0.0382 c 2.225442,3e-5 4.370193,0.51392 6.434258,1.54168 1.613863,1.0278 2.420799,2.30616 2.42081,3.83507 l 0,0.40771 c -1.1e-5,2.24245 -1.359061,3.99648 -4.077153,5.26208 l -0.445939,0.15289 c 2.692611,6.31111 4.03892,9.92533 4.03893,10.84269 l 0,0.11467 c -0.135915,0.67952 -0.581854,1.01928 -1.337816,1.01928 l -0.11467,0 c -0.110432,-0.0595 -0.543629,-0.97681 -1.299592,-2.75207 l -3.924261,-8.53655 -1.082994,0.12742 0.07645,11.19943 c -3e-6,0.16138 -0.186873,0.24208 -0.560609,0.24208 l -0.165634,0 c -0.679528,0 -1.299594,-0.0934 -1.860202,-0.28031 l 0.03822,-0.24208 0.08919,-22.76835 c 0.03398,-0.13588 0.127411,-0.20384 0.280305,-0.20386 z m 1.974871,2.62467 0.08919,7.73385 c 0.484158,10e-6 1.588386,-0.42044 3.312687,-1.26137 1.401514,-0.93433 2.102274,-1.94513 2.102283,-3.03238 l 0,-0.28031 c -9e-6,-1.60536 -1.592645,-2.64588 -4.777915,-3.12157 z"
         style=""
         id="path3070" />
      <path
         d="m 99.862577,276.73836 c 6.676333,0.068 10.014503,0.25484 10.014513,0.56061 0.16137,0.0595 0.24207,0.43746 0.24208,1.13395 -1e-5,0.3228 -0.24209,0.48419 -0.72625,0.48417 l -4.72695,-0.0764 c -1.56291,0.0255 -2.45054,0.0935 -2.66289,0.20386 l 0.0382,2.90497 0,6.62537 5.65705,0.20386 c 0.21234,0.40773 0.31852,0.78571 0.31852,1.13396 l 0,0.0382 c 0,0.45869 -0.42895,0.68803 -1.28685,0.68802 -0.11892,0.0765 -1.69457,0.12742 -4.72695,0.1529 l 0,4.9308 -0.0382,2.30615 0.0382,0 4.20457,-0.0382 c 2.4208,0 3.6312,0.0807 3.63121,0.24208 0.16138,0.27181 0.24207,0.62007 0.24208,1.04477 l 0,0.6498 -0.0764,0.0765 -8.57477,0.36949 c -0.79844,-0.051 -1.456731,-0.15714 -1.974868,-0.31853 l 0,-23.15059 c -1e-6,-0.0679 0.135904,-0.12314 0.407715,-0.16563 z"
         style=""
         id="path3072" />
      <path
         d="m 111.53343,276.77658 c 6.67633,0.068 10.0145,0.25485 10.01451,0.56061 0.16138,0.0595 0.24207,0.43747 0.24208,1.13396 -1e-5,0.32279 -0.24209,0.48418 -0.72624,0.48416 l -4.72695,-0.0765 c -1.56292,0.0255 -2.45055,0.0935 -2.66289,0.20386 l 0.0382,2.90497 0,6.62538 5.65705,0.20386 c 0.21234,0.40772 0.31852,0.78571 0.31853,1.13395 l 0,0.0382 c -1e-5,0.45869 -0.42896,0.68803 -1.28685,0.68802 -0.11893,0.0765 -1.69458,0.13166 -4.72695,0.16563 l 0,2.90497 -0.0892,6.34507 c -0.0595,0.18687 -0.22085,0.28031 -0.48416,0.28031 l -0.28031,0 c -0.46717,0 -1.03203,-0.0934 -1.69457,-0.28031 l 0,-23.15058 c 0,-0.0679 0.13591,-0.12315 0.40772,-0.16564 z"
         style=""
         id="path3074" />
      <path
         d="m 123.40814,276.67465 c 0.63705,0.051 1.18492,0.16141 1.6436,0.33127 l -0.12741,21.16298 c 4.09414,-0.33127 6.96088,-0.53937 8.60025,-0.62432 0.10192,1e-5 0.18261,0.38224 0.24208,1.1467 -0.017,0.84941 -0.0722,1.27411 -0.16564,1.27411 l -10.76623,0.40772 -0.0382,-0.0382 0,-23.17608 c 0,-0.32275 0.20385,-0.48413 0.61157,-0.48416 z"
         style=""
         id="path3076" />
      <path
         d="m 135.18092,276.73836 c 6.67633,0.068 10.0145,0.25484 10.01451,0.56061 0.16138,0.0595 0.24207,0.43746 0.24208,1.13395 -1e-5,0.3228 -0.24209,0.48419 -0.72624,0.48417 l -4.72695,-0.0764 c -1.56292,0.0255 -2.45054,0.0935 -2.66289,0.20386 l 0.0382,2.90497 0,6.62537 5.65705,0.20386 c 0.21234,0.40773 0.31852,0.78571 0.31853,1.13396 l 0,0.0382 c -1e-5,0.45869 -0.42896,0.68803 -1.28685,0.68802 -0.11893,0.0765 -1.69458,0.12742 -4.72695,0.1529 l 0,4.9308 -0.0382,2.30615 0.0382,0 4.20456,-0.0382 c 2.4208,0 3.63121,0.0807 3.63122,0.24208 0.16137,0.27181 0.24207,0.62007 0.24208,1.04477 l 0,0.6498 -0.0764,0.0765 -8.57476,0.36949 c -0.79845,-0.051 -1.45674,-0.15714 -1.97487,-0.31853 l 0,-23.15059 c 0,-0.0679 0.1359,-0.12314 0.40771,-0.16563 z"
         style=""
         id="path3078" />
      <path
         d="m 157.18481,276.71288 c 0.29728,2e-5 0.44593,0.0425 0.44594,0.12741 l -0.68802,3.54202 c -0.28881,0.13593 -0.55637,0.20388 -0.80269,0.20386 l -0.33127,0 c -0.18688,2e-5 -0.33552,-0.68375 -0.44594,-2.05132 -1.40153,0.26334 -2.50576,0.56913 -3.31269,0.91736 -1.26562,0.67105 -2.11078,1.52046 -2.53548,2.54822 -0.54362,1.10425 -0.81543,2.78607 -0.81543,5.04548 l 0,1.69457 c 0,3.38914 0.12317,5.33003 0.3695,5.82268 0.4162,1.31659 1.08723,2.2297 2.01309,2.73934 0.78145,0.4332 1.68607,0.6498 2.71386,0.6498 0.96831,0 2.21694,-0.24208 3.74588,-0.72624 0.2718,0.56061 0.4077,0.97682 0.40772,1.24862 l 0,0.16564 c -2e-5,0.39922 -0.41622,0.69227 -1.24863,0.87913 -1.43551,0.56911 -2.79456,0.85366 -4.07716,0.85366 -3.30419,0 -5.29605,-2.25942 -5.97557,-6.77827 -0.13591,-1.17217 -0.20386,-2.31887 -0.20386,-3.4401 0,-2.32736 0.26756,-5.35549 0.80269,-9.08441 0.0849,-0.56908 0.55636,-1.30806 1.41426,-2.21695 1.7158,-1.42698 4.55706,-2.14048 8.5238,-2.1405 z"
         style=""
         id="path3080" />
      <path
         d="m 169.7348,276.71288 c 0.10192,2e-5 0.22083,0.48843 0.35675,1.46522 -1e-5,0.22087 -0.19113,0.33129 -0.57335,0.33127 l -4.11538,0.24208 -0.16563,21.29039 c -0.051,0.22085 -0.21661,0.33127 -0.49691,0.33127 l -0.0764,0 c -0.45019,0 -0.96833,-0.11042 -1.55442,-0.33127 l 0,-21.16298 -3.79685,0.20386 -0.12741,0.0382 c -0.1359,-0.44167 -0.20386,-1.0405 -0.20385,-1.79649 l 0,-0.0765 c -1e-5,-0.13588 0.0425,-0.27179 0.12741,-0.40771 z"
         style=""
         id="path3082" />
      <path
         d="m 189.10128,276.71288 c 0.10191,2e-5 0.22083,0.48843 0.35675,1.46522 -1e-5,0.22087 -0.19113,0.33129 -0.57335,0.33127 l -4.11538,0.24208 -0.16563,21.29039 c -0.051,0.22085 -0.21661,0.33127 -0.49691,0.33127 l -0.0764,0 c -0.4502,0 -0.96833,-0.11042 -1.55442,-0.33127 l 0,-21.16298 -3.79685,0.20386 -0.12741,0.0382 c -0.1359,-0.44167 -0.20386,-1.0405 -0.20386,-1.79649 l 0,-0.0765 c 0,-0.13588 0.0425,-0.27179 0.12741,-0.40771 z"
         style=""
         id="path3084" />
      <path
         d="m 191.05066,276.72562 c 0.33977,2e-5 0.79845,0.0935 1.37604,0.2803 l 0.0382,1.70731 0,10.6643 6.77827,-0.36949 -0.0382,-9.40293 0.0382,-2.35711 c -1e-5,-0.29727 0.21658,-0.44591 0.64979,-0.44594 0.39072,3e-5 0.82392,0.0935 1.29959,0.28031 l 0.0382,17.25145 0,3.80959 0.0382,1.91117 c -0.1614,0.16139 -0.33553,0.24208 -0.52238,0.24208 l -0.44594,0 c -0.51815,0 -0.81544,-0.0552 -0.89188,-0.16563 l -0.12741,-9.32649 -6.81649,0.48416 c -1e-5,5.94585 -0.12317,8.91877 -0.36949,8.91877 -0.16139,0.11043 -0.31004,0.16564 -0.44594,0.16564 l -0.11467,0 c -0.36525,0 -0.70501,-0.12317 -1.01929,-0.36949 l 0,-3.12157 -0.0382,-19.95258 c 0.15289,-0.13588 0.344,-0.20383 0.57334,-0.20385 z"
         style=""
         id="path3086" />
      <path
         d="m 202.70878,276.73836 c 6.67633,0.068 10.01449,0.25484 10.01451,0.56061 0.16137,0.0595 0.24206,0.43746 0.24208,1.13395 -2e-5,0.3228 -0.2421,0.48419 -0.72625,0.48417 l -4.72695,-0.0764 c -1.56291,0.0255 -2.45054,0.0935 -2.66289,0.20386 l 0.0382,2.90497 0,6.62537 5.65705,0.20386 c 0.21234,0.40773 0.31851,0.78571 0.31852,1.13396 l 0,0.0382 c -1e-5,0.45869 -0.42896,0.68803 -1.28685,0.68802 -0.11892,0.0765 -1.69457,0.12742 -4.72695,0.1529 l 0,4.9308 -0.0382,2.30615 0.0382,0 4.20457,-0.0382 c 2.4208,0 3.6312,0.0807 3.63121,0.24208 0.16138,0.27181 0.24207,0.62007 0.24208,1.04477 l 0,0.6498 -0.0764,0.0765 -8.57477,0.36949 c -0.79844,-0.051 -1.45673,-0.15714 -1.97487,-0.31853 l 0,-23.15059 c 0,-0.0679 0.13591,-0.12314 0.40772,-0.16563 z"
         style=""
         id="path3088" />
      <path
         d="m 232.52297,276.8148 0.24208,0 c 0.43319,0.0255 0.64978,0.13169 0.6498,0.31853 -0.18689,5.80996 -0.55213,13.4886 -1.09574,23.03592 l -0.0382,0.0382 -0.0382,0 c -1.37604,-0.0595 -2.06406,-0.2081 -2.06405,-0.44593 l -3.10883,-9.81066 -0.0382,0 -3.23624,9.81066 -0.0764,0 c 0,0.21235 -0.24208,0.34825 -0.72624,0.40771 -0.36525,0.13591 -0.74323,0.20386 -1.13396,0.20386 l -0.2803,0 -0.16564,-0.12741 -0.16563,-22.98496 -0.0382,-0.12741 c 0.5691,-0.16136 1.09573,-0.24206 1.57989,-0.24208 0.1529,2e-5 0.28455,0.0425 0.39498,0.12741 l 0.44594,18.25801 0.0382,0 3.27446,-8.60025 0.0892,0 c 1.69881,3.96674 2.84126,6.72731 3.42736,8.28172 l 0.0382,0 0.68802,-17.82481 c 0.0679,-0.21233 0.51388,-0.3185 1.33782,-0.31853 z"
         style=""
         id="path3090" />
      <path
         d="m 240.46068,276.73836 c 2.87098,2e-5 4.65049,0.65831 5.33852,1.97487 0.5606,0.79846 0.9853,2.18299 1.27411,4.1536 0.4162,2.96444 0.6243,5.3895 0.62431,7.27517 l 0,0.6498 c -1e-5,4.61228 -1.38454,7.64042 -4.1536,9.08441 -0.79845,0.33126 -1.55017,0.4969 -2.25517,0.4969 l -0.25482,0 c -2.12353,0 -3.84782,-1.82198 -5.17289,-5.46594 -0.93435,-3.17677 -1.40153,-6.26011 -1.40153,-9.25004 0,-4.65473 1.49496,-7.54696 4.48487,-8.67669 0.67952,-0.16137 1.18492,-0.24206 1.5162,-0.24208 z m -3.69493,8.05238 c 0,3.0239 0.51814,6.21767 1.55442,9.58131 0.74747,1.97063 1.81772,2.95594 3.21076,2.95593 1.41001,-0.15289 2.19146,-0.39921 2.34436,-0.73898 0.40771,-0.2803 0.76446,-0.93859 1.07025,-1.97487 0.32277,-1.07874 0.48416,-2.58644 0.48417,-4.52309 l 0,-0.0765 c -1e-5,-4.04316 -0.38225,-7.0713 -1.1467,-9.08441 -0.70502,-1.2571 -1.62238,-1.88566 -2.75208,-1.88568 l -0.12741,0 c -1.12972,0.10195 -2.26792,0.60734 -3.41462,1.51619 -0.52663,0.42472 -0.89613,1.16371 -1.10848,2.21695 -0.0764,0.79846 -0.11467,1.46949 -0.11467,2.0131 z"
         style=""
         id="path3092" />
      <path
         d="m 249.13736,276.87851 0.39498,0 c 0.35675,2e-5 0.60308,0.0255 0.73898,0.0765 l 0.35675,-0.0382 c 2.22545,3e-5 4.3702,0.51392 6.43426,1.54168 1.61387,1.0278 2.4208,2.30616 2.42081,3.83507 l 0,0.40771 c -10e-6,2.24245 -1.35906,3.99648 -4.07715,5.26208 l -0.44594,0.15289 c 2.69261,6.31111 4.03892,9.92533 4.03893,10.84269 l 0,0.11467 c -0.13592,0.67952 -0.58185,1.01928 -1.33782,1.01928 l -0.11467,0 c -0.11043,-0.0595 -0.54362,-0.97681 -1.29959,-2.75207 l -3.92426,-8.53655 -1.08299,0.12742 0.0764,11.19943 c 0,0.16138 -0.18687,0.24208 -0.5606,0.24208 l -0.16564,0 c -0.67953,0 -1.29959,-0.0934 -1.8602,-0.28031 l 0.0382,-0.24208 0.0892,-22.76835 c 0.034,-0.13588 0.12741,-0.20384 0.2803,-0.20386 z m 1.97488,2.62467 0.0892,7.73385 c 0.48416,10e-6 1.58839,-0.42044 3.31269,-1.26137 1.40152,-0.93433 2.10228,-1.94513 2.10228,-3.03238 l 0,-0.28031 c 0,-1.60536 -1.59264,-2.64588 -4.77791,-3.12157 z"
         style=""
         id="path3094" />
      <path
         d="m 261.114,276.67465 c 0.63706,0.051 1.18492,0.16141 1.64361,0.33127 l -0.12741,21.16298 c 4.09413,-0.33127 6.96088,-0.53937 8.60024,-0.62432 0.10192,1e-5 0.18261,0.38224 0.24208,1.1467 -0.017,0.84941 -0.0722,1.27411 -0.16563,1.27411 l -10.76624,0.40772 -0.0382,-0.0382 0,-23.17608 c 0,-0.32275 0.20386,-0.48413 0.61157,-0.48416 z"
         style=""
         id="path3096" />
      <path
         d="m 274.37751,276.77658 0.0765,0 c 4.16208,2e-5 6.92265,1.9664 8.28172,5.89913 0.4077,1.3166 0.61156,2.8243 0.61157,4.5231 l 0,0.12741 c -10e-6,5.17289 -2.08531,9.05043 -6.25588,11.63263 -0.79845,0.47566 -1.67759,0.87913 -2.63741,1.2104 -10e-6,0.0849 -0.17413,0.15289 -0.52239,0.20386 -0.70501,-0.0679 -1.1467,-0.16139 -1.32507,-0.28031 l -0.0892,-22.75561 -0.0382,-0.15289 c -10e-6,-0.22083 0.26756,-0.33125 0.80268,-0.33127 l 0.12742,0 0.68802,0.051 c -1e-5,-0.0849 0.0934,-0.12739 0.2803,-0.12741 z m 0.36949,2.45903 0,2.39533 -0.0892,15.42948 -0.0382,0.16564 0.0382,0 c 0.48416,-0.0765 1.29535,-0.47992 2.43356,-1.21041 2.5567,-1.97911 3.83506,-5.0667 3.83507,-9.26278 -1e-5,-3.72039 -1.29536,-6.10297 -3.88604,-7.14776 -0.73899,-0.24631 -1.41002,-0.36947 -2.01309,-0.3695 z"
         style=""
         id="path3098" />
      <path
         d="m 285.42403,296.24499 c 1.2911,0.11043 1.93665,0.24633 1.93665,0.40772 -1.24014,2.77756 -1.93665,4.27251 -2.08954,4.48486 l -0.81543,0 -0.10193,-0.10192 c 0.61157,-2.93895 0.96832,-4.53583 1.07025,-4.79066 z"
         style=""
         id="path3100" />
      <path
         d="m 18.166608,309.49573 0.394975,0 c 0.356749,2e-5 0.603077,0.0255 0.738984,0.0764 l 0.356751,-0.0382 c 2.225442,2e-5 4.370192,0.51392 6.434258,1.54167 1.613863,1.02781 2.420799,2.30616 2.42081,3.83508 l 0,0.40771 c -1.1e-5,2.24245 -1.359061,3.99648 -4.077154,5.26208 l -0.445938,0.15289 c 2.692611,6.3111 4.038919,9.92533 4.03893,10.84268 l 0,0.11467 c -0.135916,0.67953 -0.581854,1.01929 -1.337816,1.01929 l -0.11467,0 c -0.110432,-0.0595 -0.543629,-0.97681 -1.299593,-2.75208 l -3.92426,-8.53654 -1.082994,0.12741 0.07645,11.19944 c -3e-6,0.16138 -0.186872,0.24208 -0.560608,0.24208 l -0.165635,0 c -0.679527,0 -1.299593,-0.0934 -1.860201,-0.28031 l 0.03822,-0.24208 0.08919,-22.76835 c 0.03398,-0.13589 0.12741,-0.20384 0.280304,-0.20386 z m 1.974872,2.62467 0.08919,7.73385 c 0.484159,1e-5 1.588387,-0.42045 3.312688,-1.26137 1.401514,-0.93434 2.102274,-1.94513 2.102282,-3.03239 l 0,-0.2803 c -8e-6,-1.60536 -1.592645,-2.64588 -4.777914,-3.12157 z"
         style=""
         id="path3102" />
      <path
         d="m 35.074055,309.44476 0.03822,0 c 0.382226,3e-5 0.959823,0.36102 1.73279,1.083 l 5.389488,21.77455 c -0.645562,0.45868 -1.167947,0.68802 -1.567156,0.68802 l -0.127411,0 c -0.390739,0 -0.658302,-0.45444 -0.80269,-1.3633 l -1.363298,-5.38949 -0.03822,0 c -3.499562,0.4332 -5.37675,0.68803 -5.631568,0.76447 -0.696517,2.871 -1.176432,4.66749 -1.439745,5.38948 l -0.05097,0.0382 -0.22934,0 c -0.33127,-0.034 -0.815431,-0.25058 -1.452486,-0.6498 3.457083,-14.66075 5.223848,-22.08031 5.3003,-22.25871 z m 0.649797,5.46594 -2.331623,9.47938 4.421164,-0.52239 0,-0.0382 -2.051318,-8.91877 z"
         style=""
         id="path3104" />
      <path
         d="m 53.994598,309.33009 c 0.101918,3e-5 0.220835,0.48844 0.356751,1.46523 -1.1e-5,0.22087 -0.191128,0.33129 -0.57335,0.33127 l -4.115377,0.24208 -0.165634,21.29039 c -0.05097,0.22084 -0.216605,0.33127 -0.496903,0.33127 l -0.07645,0 c -0.450191,0 -0.968329,-0.11043 -1.554415,-0.33127 l 0,-21.16298 -3.796849,0.20386 -0.127411,0.0382 c -0.135906,-0.44167 -0.203858,-1.0405 -0.203858,-1.79649 l 0,-0.0764 c 0,-0.13588 0.04247,-0.27179 0.127411,-0.40772 z"
         style=""
         id="path3106" />
      <path
         d="m 55.943987,309.34283 c 0.339761,3e-5 0.79844,0.0935 1.376039,0.28031 l 0.03822,1.70731 0,10.6643 6.778269,-0.36949 -0.03822,-9.40294 0.03822,-2.3571 c -10e-6,-0.29727 0.216589,-0.44592 0.649796,-0.44594 0.390717,2e-5 0.823914,0.0935 1.299593,0.28031 l 0.03822,17.25145 0,3.80959 0.03822,1.91117 c -0.161398,0.16139 -0.335526,0.24208 -0.522385,0.24208 l -0.445939,0 c -0.518148,0 -0.81544,-0.0552 -0.891877,-0.16563 l -0.127411,-9.32649 -6.816492,0.48416 c -2e-6,5.94585 -0.123166,8.91877 -0.369492,8.91877 -0.161389,0.11043 -0.310035,0.16564 -0.445938,0.16564 l -0.11467,0 c -0.365247,0 -0.705009,-0.12317 -1.019289,-0.3695 l 0,-3.12157 -0.03822,-19.95257 c 0.152893,-0.13588 0.344009,-0.20383 0.57335,-0.20386 z"
         style=""
         id="path3108" />
      <path
         d="m 67.602098,309.35558 c 6.676332,0.068 10.014498,0.25484 10.014509,0.5606 0.161376,0.0595 0.24207,0.43747 0.242081,1.13396 -1.1e-5,0.3228 -0.242092,0.48419 -0.726243,0.48416 l -4.72695,-0.0764 c -1.562913,0.0255 -2.450543,0.0935 -2.662891,0.20386 l 0.03822,2.90497 0,6.62537 5.657051,0.20386 c 0.212343,0.40773 0.318519,0.78571 0.318528,1.13396 l 0,0.0382 c -9e-6,0.45869 -0.42896,0.68803 -1.286852,0.68802 -0.118925,0.0765 -1.694573,0.12742 -4.72695,0.1529 l 0,4.9308 -0.03822,2.30614 0.03822,0 4.204565,-0.0382 c 2.4208,0 3.631204,0.0807 3.631215,0.24208 0.161376,0.27181 0.24207,0.62007 0.242081,1.04477 l 0,0.6498 -0.07645,0.0764 -8.574764,0.3695 c -0.798444,-0.051 -1.456734,-0.15714 -1.974871,-0.31853 l 0,-23.15059 c -10e-7,-0.0679 0.135904,-0.12314 0.407715,-0.16563 z"
         style=""
         id="path3110" />
      <path
         d="m 79.272951,309.49573 0.394974,0 c 0.356749,2e-5 0.603077,0.0255 0.738984,0.0764 l 0.356751,-0.0382 c 2.225442,2e-5 4.370193,0.51392 6.434258,1.54167 1.613863,1.02781 2.420799,2.30616 2.42081,3.83508 l 0,0.40771 c -1.1e-5,2.24245 -1.359061,3.99648 -4.077153,5.26208 l -0.445939,0.15289 c 2.692611,6.3111 4.03892,9.92533 4.03893,10.84268 l 0,0.11467 c -0.135915,0.67953 -0.581854,1.01929 -1.337816,1.01929 l -0.11467,0 c -0.110432,-0.0595 -0.543629,-0.97681 -1.299592,-2.75208 l -3.924261,-8.53654 -1.082994,0.12741 0.07645,11.19944 c -3e-6,0.16138 -0.186873,0.24208 -0.560609,0.24208 l -0.165634,0 c -0.679528,0 -1.299594,-0.0934 -1.860202,-0.28031 l 0.03822,-0.24208 0.08919,-22.76835 c 0.03398,-0.13589 0.127411,-0.20384 0.280305,-0.20386 z m 1.974871,2.62467 0.08919,7.73385 c 0.484158,1e-5 1.588386,-0.42045 3.312687,-1.26137 1.401514,-0.93434 2.102274,-1.94513 2.102283,-3.03239 l 0,-0.2803 c -9e-6,-1.60536 -1.592645,-2.64588 -4.777915,-3.12157 z"
         style=""
         id="path3112" />
      <path
         d="m 108.62846,309.33009 c 0.10192,3e-5 0.22083,0.48844 0.35675,1.46523 -10e-6,0.22087 -0.19113,0.33129 -0.57335,0.33127 l -4.11538,0.24208 -0.16563,21.29039 c -0.051,0.22084 -0.21661,0.33127 -0.4969,0.33127 l -0.0764,0 c -0.45019,0 -0.96833,-0.11043 -1.55442,-0.33127 l 0,-21.16298 -3.796845,0.20386 -0.127411,0.0382 c -0.135905,-0.44167 -0.203858,-1.0405 -0.203857,-1.79649 l 0,-0.0764 c -10e-7,-0.13588 0.04247,-0.27179 0.127411,-0.40772 z"
         style=""
         id="path3114" />
      <path
         d="m 110.57785,309.34283 c 0.33976,3e-5 0.79844,0.0935 1.37604,0.28031 l 0.0382,1.70731 0,10.6643 6.77827,-0.36949 -0.0382,-9.40294 0.0382,-2.3571 c -1e-5,-0.29727 0.21659,-0.44592 0.6498,-0.44594 0.39071,2e-5 0.82391,0.0935 1.29959,0.28031 l 0.0382,17.25145 0,3.80959 0.0382,1.91117 c -0.16139,0.16139 -0.33552,0.24208 -0.52238,0.24208 l -0.44594,0 c -0.51815,0 -0.81544,-0.0552 -0.89188,-0.16563 l -0.12741,-9.32649 -6.81649,0.48416 c 0,5.94585 -0.12317,8.91877 -0.36949,8.91877 -0.16139,0.11043 -0.31004,0.16564 -0.44594,0.16564 l -0.11467,0 c -0.36525,0 -0.70501,-0.12317 -1.01929,-0.3695 l 0,-3.12157 -0.0382,-19.95257 c 0.15289,-0.13588 0.34401,-0.20383 0.57335,-0.20386 z"
         style=""
         id="path3116" />
      <path
         d="m 122.23596,309.35558 c 6.67633,0.068 10.0145,0.25484 10.01451,0.5606 0.16137,0.0595 0.24207,0.43747 0.24208,1.13396 -1e-5,0.3228 -0.24209,0.48419 -0.72624,0.48416 l -4.72695,-0.0764 c -1.56292,0.0255 -2.45055,0.0935 -2.66289,0.20386 l 0.0382,2.90497 0,6.62537 5.65705,0.20386 c 0.21234,0.40773 0.31852,0.78571 0.31853,1.13396 l 0,0.0382 c -10e-6,0.45869 -0.42896,0.68803 -1.28685,0.68802 -0.11893,0.0765 -1.69458,0.12742 -4.72695,0.1529 l 0,4.9308 -0.0382,2.30614 0.0382,0 4.20456,-0.0382 c 2.4208,0 3.6312,0.0807 3.63122,0.24208 0.16137,0.27181 0.24207,0.62007 0.24208,1.04477 l 0,0.6498 -0.0764,0.0764 -8.57476,0.3695 c -0.79845,-0.051 -1.45674,-0.15714 -1.97488,-0.31853 l 0,-23.15059 c 0,-0.0679 0.13591,-0.12314 0.40772,-0.16563 z"
         style=""
         id="path3118" />
      <path
         d="m 141.30939,309.34283 c 0.33976,3e-5 0.79844,0.0935 1.37604,0.28031 l 0.0382,1.70731 0,10.6643 6.77826,-0.36949 -0.0382,-9.40294 0.0382,-2.3571 c -1e-5,-0.29727 0.21659,-0.44592 0.6498,-0.44594 0.39072,2e-5 0.82391,0.0935 1.29959,0.28031 l 0.0382,17.25145 0,3.80959 0.0382,1.91117 c -0.1614,0.16139 -0.33553,0.24208 -0.52239,0.24208 l -0.44593,0 c -0.51815,0 -0.81544,-0.0552 -0.89188,-0.16563 l -0.12741,-9.32649 -6.81649,0.48416 c -1e-5,5.94585 -0.12317,8.91877 -0.3695,8.91877 -0.16139,0.11043 -0.31003,0.16564 -0.44594,0.16564 l -0.11467,0 c -0.36524,0 -0.705,-0.12317 -1.01928,-0.3695 l 0,-3.12157 -0.0382,-19.95257 c 0.1529,-0.13588 0.34401,-0.20383 0.57335,-0.20386 z"
         style=""
         id="path3120" />
      <path
         d="m 158.10218,309.44476 0.0382,0 c 0.38223,3e-5 0.95982,0.36102 1.73279,1.083 l 5.38949,21.77455 c -0.64556,0.45868 -1.16795,0.68802 -1.56716,0.68802 l -0.12741,0 c -0.39074,0 -0.6583,-0.45444 -0.80269,-1.3633 l -1.3633,-5.38949 -0.0382,0 c -3.49956,0.4332 -5.37675,0.68803 -5.63157,0.76447 -0.69652,2.871 -1.17643,4.66749 -1.43974,5.38948 l -0.051,0.0382 -0.22934,0 c -0.33127,-0.034 -0.81543,-0.25058 -1.45248,-0.6498 3.45708,-14.66075 5.22384,-22.08031 5.3003,-22.25871 z m 0.64979,5.46594 -2.33162,9.47938 4.42116,-0.52239 0,-0.0382 -2.05131,-8.91877 z"
         style=""
         id="path3122" />
      <path
         d="m 166.96998,309.33009 c 1.08724,3e-5 1.63086,0.0552 1.63087,0.16564 l 3.66943,7.92497 0.0892,0 3.63122,-8.09061 c 1.66482,0.0255 2.49724,0.0807 2.49725,0.16564 0.18686,11.57743 0.28029,18.60626 0.28031,21.08653 l 0.051,1.26137 -0.051,0.94284 c -0.1614,0.1359 -0.44595,0.20386 -0.85366,0.20386 -1.03628,0 -1.55442,-0.068 -1.55441,-0.20386 l -0.28031,-17.81207 0,-0.051 -0.0382,0 c -2.27642,4.35747 -3.47833,6.59141 -3.60573,6.70182 l -0.0382,0 -3.75863,-5.92461 -0.0382,0 0,13.32719 c -1e-5,2.5907 -0.0552,3.88604 -0.16564,3.88604 l -0.36949,0.0764 -0.44594,0 c -0.90037,-0.051 -1.35056,-0.13166 -1.35056,-0.24208 l 0.0382,-20.06725 0,-3.18527 c 0,-0.1104 0.22084,-0.16561 0.66253,-0.16564 z"
         style=""
         id="path3124" />
      <path
         d="m 180.52652,309.33009 c 1.08724,3e-5 1.63086,0.0552 1.63086,0.16564 l 3.66944,7.92497 0.0892,0 3.63121,-8.09061 c 1.66483,0.0255 2.49724,0.0807 2.49726,0.16564 0.18685,11.57743 0.28029,18.60626 0.2803,21.08653 l 0.051,1.26137 -0.051,0.94284 c -0.1614,0.1359 -0.44595,0.20386 -0.85365,0.20386 -1.03629,0 -1.55443,-0.068 -1.55442,-0.20386 l -0.2803,-17.81207 0,-0.051 -0.0382,0 c -2.27642,4.35747 -3.47833,6.59141 -3.60574,6.70182 l -0.0382,0 -3.75863,-5.92461 -0.0382,0 0,13.32719 c 0,2.5907 -0.0552,3.88604 -0.16564,3.88604 l -0.36949,0.0764 -0.44594,0 c -0.90037,-0.051 -1.35055,-0.13166 -1.35055,-0.24208 l 0.0382,-20.06725 0,-3.18527 c 0,-0.1104 0.22085,-0.16561 0.66254,-0.16564 z"
         style=""
         id="path3126" />
      <path
         d="m 193.79001,309.35558 c 6.67633,0.068 10.01449,0.25484 10.01451,0.5606 0.16137,0.0595 0.24207,0.43747 0.24208,1.13396 -1e-5,0.3228 -0.2421,0.48419 -0.72625,0.48416 l -4.72695,-0.0764 c -1.56291,0.0255 -2.45054,0.0935 -2.66289,0.20386 l 0.0382,2.90497 0,6.62537 5.65705,0.20386 c 0.21234,0.40773 0.31851,0.78571 0.31852,1.13396 l 0,0.0382 c -1e-5,0.45869 -0.42896,0.68803 -1.28685,0.68802 -0.11892,0.0765 -1.69457,0.12742 -4.72695,0.1529 l 0,4.9308 -0.0382,2.30614 0.0382,0 4.20457,-0.0382 c 2.4208,0 3.6312,0.0807 3.63121,0.24208 0.16138,0.27181 0.24207,0.62007 0.24208,1.04477 l 0,0.6498 -0.0764,0.0764 -8.57477,0.3695 c -0.79844,-0.051 -1.45673,-0.15714 -1.97487,-0.31853 l 0,-23.15059 c 0,-0.0679 0.13591,-0.12314 0.40772,-0.16563 z"
         style=""
         id="path3128" />
      <path
         d="m 205.46086,309.49573 0.39497,0 c 0.35675,2e-5 0.60308,0.0255 0.73899,0.0764 l 0.35675,-0.0382 c 2.22544,2e-5 4.37019,0.51392 6.43426,1.54167 1.61386,1.02781 2.4208,2.30616 2.42081,3.83508 l 0,0.40771 c -10e-6,2.24245 -1.35906,3.99648 -4.07716,5.26208 l -0.44594,0.15289 c 2.69262,6.3111 4.03892,9.92533 4.03893,10.84268 l 0,0.11467 c -0.13591,0.67953 -0.58185,1.01929 -1.33781,1.01929 l -0.11467,0 c -0.11043,-0.0595 -0.54363,-0.97681 -1.29959,-2.75208 l -3.92426,-8.53654 -1.083,0.12741 0.0764,11.19944 c -1e-5,0.16138 -0.18687,0.24208 -0.56061,0.24208 l -0.16564,0 c -0.67952,0 -1.29959,-0.0934 -1.8602,-0.28031 l 0.0382,-0.24208 0.0892,-22.76835 c 0.034,-0.13589 0.12741,-0.20384 0.28031,-0.20386 z m 1.97487,2.62467 0.0892,7.73385 c 0.48416,1e-5 1.58838,-0.42045 3.31269,-1.26137 1.40151,-0.93434 2.10227,-1.94513 2.10228,-3.03239 l 0,-0.2803 c -1e-5,-1.60536 -1.59265,-2.64588 -4.77792,-3.12157 z"
         style=""
         id="path3130" />
      <path
         d="m 235.37698,309.43202 0.24208,0 c 0.43319,0.0255 0.64979,0.13168 0.6498,0.31853 -0.18688,5.80996 -0.55213,13.48859 -1.09574,23.03592 l -0.0382,0.0382 -0.0382,0 c -1.37605,-0.0595 -2.06407,-0.2081 -2.06406,-0.44594 l -3.10883,-9.81065 -0.0382,0 -3.23624,9.81065 -0.0764,0 c -1e-5,0.21236 -0.24209,0.34826 -0.72625,0.40772 -0.36524,0.1359 -0.74323,0.20386 -1.13396,0.20386 l -0.2803,0 -0.16563,-0.12741 -0.16564,-22.98496 -0.0382,-0.12741 c 0.5691,-0.16136 1.09573,-0.24206 1.5799,-0.24208 0.15289,2e-5 0.28454,0.0425 0.39497,0.12741 l 0.44594,18.258 0.0382,0 3.27447,-8.60024 0.0892,0 c 1.69881,3.96674 2.84126,6.72731 3.42736,8.28172 l 0.0382,0 0.68802,-17.82481 c 0.0679,-0.21233 0.51388,-0.3185 1.33782,-0.31853 z"
         style=""
         id="path3132" />
      <path
         d="m 237.95068,309.43202 c 0.41621,3e-5 0.96832,0.0807 1.65635,0.24208 l 0.0382,5.91188 0,16.47425 c 0,0.62006 -0.13591,0.9301 -0.40772,0.9301 l -0.31852,0 c -0.66254,0 -1.19767,-0.11892 -1.60538,-0.35675 l 0,-22.95948 c 0.0764,-0.16136 0.28879,-0.24205 0.63705,-0.24208 z"
         style=""
         id="path3134" />
      <path
         d="m 251.43077,309.33009 c 0.10191,3e-5 0.22083,0.48844 0.35675,1.46523 -1e-5,0.22087 -0.19113,0.33129 -0.57335,0.33127 l -4.11538,0.24208 -0.16563,21.29039 c -0.051,0.22084 -0.21661,0.33127 -0.49691,0.33127 l -0.0764,0 c -0.45019,0 -0.96833,-0.11043 -1.55442,-0.33127 l 0,-21.16298 -3.79685,0.20386 -0.12741,0.0382 c -0.1359,-0.44167 -0.20386,-1.0405 -0.20386,-1.79649 l 0,-0.0764 c 0,-0.13588 0.0425,-0.27179 0.12741,-0.40772 z"
         style=""
         id="path3136" />
      <path
         d="m 253.38016,309.34283 c 0.33976,3e-5 0.79844,0.0935 1.37603,0.28031 l 0.0382,1.70731 0,10.6643 6.77827,-0.36949 -0.0382,-9.40294 0.0382,-2.3571 c -1e-5,-0.29727 0.21659,-0.44592 0.64979,-0.44594 0.39072,2e-5 0.82392,0.0935 1.2996,0.28031 l 0.0382,17.25145 0,3.80959 0.0382,1.91117 c -0.1614,0.16139 -0.33552,0.24208 -0.52238,0.24208 l -0.44594,0 c -0.51815,0 -0.81544,-0.0552 -0.89188,-0.16563 l -0.12741,-9.32649 -6.81649,0.48416 c 0,5.94585 -0.12317,8.91877 -0.36949,8.91877 -0.16139,0.11043 -0.31004,0.16564 -0.44594,0.16564 l -0.11467,0 c -0.36525,0 -0.70501,-0.12317 -1.01929,-0.3695 l 0,-3.12157 -0.0382,-19.95257 c 0.15289,-0.13588 0.344,-0.20383 0.57335,-0.20386 z"
         style=""
         id="path3138" />
      <path
         d="m 283.18161,309.43202 0.24208,0 c 0.43318,0.0255 0.64978,0.13168 0.64979,0.31853 -0.18688,5.80996 -0.55212,13.48859 -1.09573,23.03592 l -0.0382,0.0382 -0.0382,0 c -1.37605,-0.0595 -2.06407,-0.2081 -2.06406,-0.44594 l -3.10883,-9.81065 -0.0382,0 -3.23624,9.81065 -0.0765,0 c 0,0.21236 -0.24208,0.34826 -0.72624,0.40772 -0.36525,0.1359 -0.74323,0.20386 -1.13396,0.20386 l -0.2803,0 -0.16564,-0.12741 -0.16563,-22.98496 -0.0382,-0.12741 c 0.5691,-0.16136 1.09573,-0.24206 1.57989,-0.24208 0.15289,2e-5 0.28455,0.0425 0.39498,0.12741 l 0.44594,18.258 0.0382,0 3.27446,-8.60024 0.0892,0 c 1.69881,3.96674 2.84126,6.72731 3.42736,8.28172 l 0.0382,0 0.68802,-17.82481 c 0.0679,-0.21233 0.51388,-0.3185 1.33782,-0.31853 z"
         style=""
         id="path3140" />
      <path
         d="m 285.69159,309.34283 c 0.33976,3e-5 0.79844,0.0935 1.37604,0.28031 l 0.0382,1.70731 0,10.6643 6.77827,-0.36949 -0.0382,-9.40294 0.0382,-2.3571 c -10e-6,-0.29727 0.21659,-0.44592 0.64979,-0.44594 0.39072,2e-5 0.82392,0.0935 1.2996,0.28031 l 0.0382,17.25145 0,3.80959 0.0382,1.91117 c -0.16139,0.16139 -0.33552,0.24208 -0.52238,0.24208 l -0.44594,0 c -0.51815,0 -0.81544,-0.0552 -0.89188,-0.16563 l -0.12741,-9.32649 -6.81649,0.48416 c 0,5.94585 -0.12317,8.91877 -0.36949,8.91877 -0.16139,0.11043 -0.31004,0.16564 -0.44594,0.16564 l -0.11467,0 c -0.36525,0 -0.70501,-0.12317 -1.01929,-0.3695 l 0,-3.12157 -0.0382,-19.95257 c 0.15289,-0.13588 0.34401,-0.20383 0.57335,-0.20386 z"
         style=""
         id="path3142" />
      <path
         d="m 297.57905,309.43202 c 0.41621,3e-5 0.96833,0.0807 1.65635,0.24208 l 0.0382,5.91188 0,16.47425 c 0,0.62006 -0.13591,0.9301 -0.40771,0.9301 l -0.31853,0 c -0.66254,0 -1.19767,-0.11892 -1.60538,-0.35675 l 0,-22.95948 c 0.0764,-0.16136 0.2888,-0.24205 0.63705,-0.24208 z"
         style=""
         id="path3144" />
      <path
         d="m 311.0464,309.33009 c 0.29728,3e-5 0.44592,0.0425 0.44594,0.12741 l -0.68802,3.54203 c -0.28881,0.13593 -0.55638,0.20388 -0.80269,0.20386 l -0.33127,0 c -0.18688,2e-5 -0.33553,-0.68375 -0.44594,-2.05132 -1.40153,0.26334 -2.50576,0.56913 -3.31269,0.91736 -1.26562,0.67105 -2.11078,1.52046 -2.53548,2.54822 -0.54362,1.10425 -0.81543,2.78607 -0.81543,5.04548 l 0,1.69457 c 0,3.38914 0.12316,5.33003 0.36949,5.82268 0.41621,1.31659 1.08724,2.2297 2.0131,2.73934 0.78145,0.4332 1.68606,0.6498 2.71385,0.6498 0.96832,0 2.21695,-0.24208 3.74589,-0.72625 0.2718,0.56061 0.4077,0.97682 0.40771,1.24863 l 0,0.16564 c -10e-6,0.39922 -0.41622,0.69226 -1.24862,0.87913 -1.43551,0.56911 -2.79456,0.85366 -4.07716,0.85366 -3.30419,0 -5.29605,-2.25942 -5.97558,-6.77827 -0.1359,-1.17218 -0.20385,-2.31887 -0.20385,-3.4401 0,-2.32736 0.26756,-5.3555 0.80269,-9.08441 0.0849,-0.56908 0.55636,-1.30806 1.41426,-2.21695 1.7158,-1.42698 4.55706,-2.14048 8.5238,-2.14051 z"
         style=""
         id="path3146" />
      <path
         d="m 313.41626,309.34283 c 0.33976,3e-5 0.79844,0.0935 1.37604,0.28031 l 0.0382,1.70731 0,10.6643 6.77827,-0.36949 -0.0382,-9.40294 0.0382,-2.3571 c -10e-6,-0.29727 0.21659,-0.44592 0.64979,-0.44594 0.39072,2e-5 0.82392,0.0935 1.2996,0.28031 l 0.0382,17.25145 0,3.80959 0.0382,1.91117 c -0.16139,0.16139 -0.33552,0.24208 -0.52238,0.24208 l -0.44594,0 c -0.51815,0 -0.81544,-0.0552 -0.89188,-0.16563 l -0.12741,-9.32649 -6.81649,0.48416 c 0,5.94585 -0.12317,8.91877 -0.36949,8.91877 -0.16139,0.11043 -0.31004,0.16564 -0.44594,0.16564 l -0.11467,0 c -0.36525,0 -0.70501,-0.12317 -1.01929,-0.3695 l 0,-3.12157 -0.0382,-19.95257 c 0.15289,-0.13588 0.34401,-0.20383 0.57335,-0.20386 z"
         style=""
         id="path3148" />
      <path
         d="m 120.06997,341.94731 c 0.10192,2e-5 0.22084,0.48843 0.35675,1.46523 -1e-5,0.22087 -0.19113,0.33129 -0.57335,0.33127 l -4.11537,0.24208 -0.16564,21.29039 c -0.051,0.22084 -0.2166,0.33126 -0.4969,0.33126 l -0.0765,0 c -0.45019,0 -0.96833,-0.11042 -1.55441,-0.33126 l 0,-21.16298 -3.79685,0.20386 -0.12741,0.0382 c -0.13591,-0.44167 -0.20386,-1.0405 -0.20386,-1.7965 l 0,-0.0764 c 0,-0.13588 0.0425,-0.27179 0.12741,-0.40772 z"
         style=""
         id="path3150" />
      <path
         d="m 127.44707,341.97279 c 2.87099,3e-5 4.65049,0.65832 5.33852,1.97487 0.5606,0.79847 0.9853,2.183 1.27412,4.15361 0.41619,2.96444 0.6243,5.3895 0.62431,7.27517 l 0,0.64979 c -1e-5,4.61229 -1.38455,7.64042 -4.1536,9.08441 -0.79845,0.33127 -1.55018,0.4969 -2.25518,0.4969 l -0.25482,0 c -2.12352,0 -3.84782,-1.82197 -5.17289,-5.46593 -0.93435,-3.17677 -1.40152,-6.26012 -1.40152,-9.25004 0,-4.65473 1.49496,-7.54696 4.48487,-8.6767 0.67952,-0.16136 1.18492,-0.24205 1.51619,-0.24208 z m -3.69492,8.05238 c 0,3.0239 0.51814,6.21767 1.55442,9.58131 0.74747,1.97063 1.81772,2.95594 3.21075,2.95594 1.41001,-0.15289 2.19146,-0.39922 2.34437,-0.73898 0.4077,-0.2803 0.76445,-0.93859 1.07025,-1.97488 0.32276,-1.07874 0.48415,-2.58643 0.48416,-4.52309 l 0,-0.0764 c -1e-5,-4.04317 -0.38224,-7.0713 -1.1467,-9.08441 -0.70501,-1.2571 -1.62237,-1.88567 -2.75208,-1.88569 l -0.12741,0 c -1.12971,0.10195 -2.26792,0.60735 -3.41461,1.5162 -0.52664,0.42472 -0.89613,1.1637 -1.10848,2.21695 -0.0765,0.79846 -0.11467,1.46949 -0.11467,2.01309 z"
         style=""
         id="path3152" />
      <path
         d="m 150.22817,342.02376 c 1.80923,2e-5 3.54626,0.90889 5.21111,2.72659 l 0,0.20386 c -1e-5,0.33129 -0.28456,0.8197 -0.85365,1.46523 -1.54593,-1.33355 -2.96869,-2.00033 -4.26827,-2.00035 l -0.29305,0 c -1.32508,2e-5 -2.46328,0.67954 -3.41461,2.03857 -0.11043,0.35677 -0.16564,0.62858 -0.16564,0.81543 0,0.8834 0.55636,1.72432 1.66909,2.52274 0.43319,2e-5 1.96637,0.48418 4.59954,1.45249 1.15518,0.45869 2.21269,1.1637 3.17253,2.11502 0.28879,0.33128 0.57334,1.21467 0.85365,2.65015 l 0.16564,1.87294 c -2e-5,2.89649 -1.2359,5.14317 -3.70766,6.74005 -1.03629,0.65404 -2.13202,0.98106 -3.28721,0.98106 l -0.24208,0 c -1.78376,0 -4.02194,-0.51389 -6.71456,-1.54167 l 0,-0.0892 c 0.29729,-1.48646 0.60732,-2.22969 0.9301,-2.22969 1.78375,0.84092 3.39762,1.26137 4.84162,1.26137 l 0.33127,0 c 2.03007,0 3.75012,-0.80269 5.16015,-2.40807 0.18685,-0.8579 0.28029,-1.62661 0.2803,-2.30614 -1e-5,-2.58219 -1.10849,-4.31922 -3.32543,-5.21111 -0.51814,-0.16138 -1.60538,-0.43319 -3.26172,-0.81543 -2.68413,-0.94283 -4.02619,-2.45902 -4.02619,-4.54858 0.17837,-1.52042 0.34401,-2.28064 0.4969,-2.28066 0.63705,-1.27408 1.97912,-2.30187 4.02619,-3.08334 0.80693,-0.22083 1.41426,-0.33125 1.82198,-0.33127 z"
         style=""
         id="path3154" />
      <path
         d="m 158.50989,341.96005 c 0.33976,3e-5 0.79844,0.0935 1.37604,0.28031 l 0.0382,1.7073 0,10.66431 6.77827,-0.36949 -0.0382,-9.40294 0.0382,-2.3571 c -1e-5,-0.29727 0.21659,-0.44592 0.6498,-0.44594 0.39071,2e-5 0.82391,0.0935 1.29959,0.2803 l 0.0382,17.25146 0,3.80959 0.0382,1.91117 c -0.16139,0.16138 -0.33552,0.24208 -0.52238,0.24208 l -0.44594,0 c -0.51815,0 -0.81544,-0.0552 -0.89188,-0.16564 l -0.12741,-9.32649 -6.81649,0.48417 c 0,5.94585 -0.12317,8.91877 -0.36949,8.91877 -0.16139,0.11042 -0.31004,0.16563 -0.44594,0.16563 l -0.11467,0 c -0.36525,0 -0.70501,-0.12316 -1.01929,-0.36949 l 0,-3.12157 -0.0382,-19.95257 c 0.15289,-0.13588 0.34401,-0.20383 0.57335,-0.20386 z"
         style=""
         id="path3156" />
      <path
         d="m 175.30266,342.06198 0.0382,0 c 0.38222,2e-5 0.95982,0.36102 1.73279,1.083 l 5.38949,21.77454 c -0.64557,0.45868 -1.16795,0.68802 -1.56716,0.68802 l -0.12741,0 c -0.39074,0 -0.6583,-0.45443 -0.80269,-1.36329 l -1.3633,-5.38949 -0.0382,0 c -3.49957,0.4332 -5.37675,0.68802 -5.63157,0.76446 -0.69652,2.871 -1.17643,4.6675 -1.43975,5.38949 l -0.051,0.0382 -0.22934,0 c -0.33127,-0.034 -0.81543,-0.25058 -1.45249,-0.6498 3.45709,-14.66075 5.22385,-22.08031 5.3003,-22.25871 z m 0.6498,5.46594 -2.33162,9.47938 4.42116,-0.52239 0,-0.0382 -2.05132,-8.91877 z"
         style=""
         id="path3158" />
      <path
         d="m 184.08129,342.04924 c 2.66713,0.16141 4.30649,0.36527 4.91806,0.61157 1.23164,0.22937 2.40382,0.83244 3.51655,1.80924 1.02777,1.08726 1.54166,2.38261 1.54167,3.88604 -1e-5,3.49107 -2.31889,5.91613 -6.95664,7.27517 l -1.21041,0.2803 0,1.69457 -0.0382,7.03309 -0.0382,0.76447 c -0.10193,0.11042 -0.27606,0.17837 -0.52239,0.20385 -0.34826,0 -0.95558,-0.12316 -1.82198,-0.36949 l 0,-22.98495 c 0,-0.1189 0.20386,-0.18685 0.61158,-0.20386 z m 1.84746,2.62467 0,7.79755 -0.0382,1.41427 c 3.74588,-1.35904 5.61882,-3.18951 5.61883,-5.49142 l 0,-0.0765 c -1e-5,-1.67331 -0.75173,-2.84549 -2.25517,-3.51654 -0.65405,-0.19534 -1.24864,-0.29303 -1.78376,-0.29305 l -0.40771,0 c -0.75598,0.0255 -1.13397,0.0807 -1.13396,0.16564 z"
         style=""
         id="path3160" />
      <path
         d="m 195.49732,341.97279 c 6.67633,0.068 10.0145,0.25485 10.01451,0.56061 0.16137,0.0595 0.24207,0.43747 0.24208,1.13396 -1e-5,0.3228 -0.24209,0.48418 -0.72624,0.48416 l -4.72696,-0.0764 c -1.56291,0.0255 -2.45054,0.0934 -2.66289,0.20385 l 0.0382,2.90498 0,6.62537 5.65705,0.20386 c 0.21234,0.40772 0.31852,0.78571 0.31853,1.13396 l 0,0.0382 c -1e-5,0.45869 -0.42896,0.68803 -1.28686,0.68802 -0.11892,0.0765 -1.69457,0.12742 -4.72695,0.15289 l 0,4.93081 -0.0382,2.30614 0.0382,0 4.20457,-0.0382 c 2.4208,0 3.6312,0.0807 3.63121,0.24208 0.16138,0.27181 0.24207,0.62007 0.24208,1.04477 l 0,0.6498 -0.0764,0.0764 -8.57477,0.36949 c -0.79844,-0.051 -1.45673,-0.15714 -1.97487,-0.31852 l 0,-23.15059 c 0,-0.0679 0.13591,-0.12314 0.40772,-0.16564 z"
         style=""
         id="path3162" />
      <path
         d="m 214.63446,342.04924 c 0.4162,2e-5 0.96832,0.0807 1.65634,0.24208 l 0.0382,5.91187 0,16.47425 c 0,0.62007 -0.1359,0.9301 -0.40771,0.9301 l -0.31853,0 c -0.66254,0 -1.19766,-0.11891 -1.60538,-0.35675 l 0,-22.95947 c 0.0764,-0.16136 0.2888,-0.24206 0.63706,-0.24208 z"
         style=""
         id="path3164" />
      <path
         d="m 228.11455,341.94731 c 0.10192,2e-5 0.22083,0.48843 0.35675,1.46523 -1e-5,0.22087 -0.19113,0.33129 -0.57335,0.33127 l -4.11538,0.24208 -0.16563,21.29039 c -0.051,0.22084 -0.21661,0.33126 -0.4969,0.33126 l -0.0764,0 c -0.45019,0 -0.96833,-0.11042 -1.55442,-0.33126 l 0,-21.16298 -3.79684,0.20386 -0.12742,0.0382 c -0.1359,-0.44167 -0.20385,-1.0405 -0.20385,-1.7965 l 0,-0.0764 c 0,-0.13588 0.0425,-0.27179 0.12741,-0.40772 z"
         style=""
         id="path3166" />
      <path
         d="m 230.40795,362.81724 c 0.96832,0.22934 1.45248,0.45019 1.45248,0.66254 0.1444,0.11042 0.2166,0.29305 0.2166,0.54787 -0.22085,1.05326 -0.52663,1.57989 -0.91736,1.57989 -0.55211,0 -1.07874,-0.31852 -1.57989,-0.95558 l -0.0892,-0.29304 c 0,-0.41621 0.30578,-0.9301 0.91736,-1.54168 z"
         style=""
         id="path3168" />
    </g>
    <g
       transform="matrix(2.3004515,0,0,2.3004515,485.57103,134.15755)"
       style="font-size:40px;font-style:normal;font-variant:normal;font-weight:normal;font-stretch:normal;text-align:start;line-height:125%;letter-spacing:0px;word-spacing:0px;writing-mode:lr-tb;text-anchor:start;fill:#1a1a1a;fill-opacity:1;stroke:none;font-family:Single Sleeve;-inkscape-font-specification:Single Sleeve"
       id="flowRoot2993">
      <path
         d="m -47.5625,256.09481 c 0.338535,-0.69008 0.488274,-1.49737 0.449219,-2.42187 -0.02605,-1.11977 -0.198575,-1.93032 -0.517578,-2.43164 -0.319017,-0.50128 -0.76498,-0.791 -1.337891,-0.86914 -0.07813,-0.026 -0.266932,-0.039 -0.566406,-0.0391 l -0.15625,0.0195 0.05859,6.83593 c 0.911452,0.10419 1.601556,-0.2604 2.070312,-1.09375 z m 0.449219,11.42579 c 0.195305,-0.58594 0.27343,-1.58854 0.234375,-3.00782 -0.03907,-1.45832 -0.305997,-2.42186 -0.800781,-2.89062 -0.403653,-0.3776 -1.061204,-0.60546 -1.972657,-0.6836 l 0.01953,8.04688 c 1.132806,-0.013 1.972649,-0.5013 2.519531,-1.46484 z m 0.78125,4.12109 c -0.898445,0.40364 -2.011725,0.625 -3.339844,0.66406 l -0.371094,0 c -0.963545,0 -2.044273,-0.0911 -3.242187,-0.27344 l -0.03906,-25.80078 c 0.742186,-0.052 1.43229,-0.0846 2.070313,-0.0976 0.36458,-0.013 0.709631,-0.0195 1.035156,-0.0195 2.031244,2e-5 3.40494,0.20835 4.121094,0.625 1.705719,0.72919 2.597645,2.52606 2.675781,5.39062 0.07811,2.65627 -0.703135,4.7396 -2.34375,6.25 1.692698,1.21095 2.571603,3.14454 2.636719,5.80078 -1.1e-5,4.12761 -1.067719,6.61459 -3.203125,7.46094 z"
         style=""
         id="path3009" />
      <path
         d="m -37.953125,259.49325 -0.07813,8.41797 4.667969,0.0586 -0.136719,4.23829 -8.28125,-0.0977 0.390625,-26.05469 7.949219,0.0586 0.136719,4.04296 -4.511719,0.0586 -0.07813,5.11719 3.632812,0.0586 -0.117187,4.12109 z"
         style=""
         id="path3011" />
      <path
         d="m -28.460937,249.35653 -0.01953,9.76563 c 0.911453,-0.0781 1.569004,-0.30598 1.972657,-0.6836 0.494784,-0.46873 0.787753,-1.73175 0.878906,-3.78906 -0.01303,-1.96613 -0.117195,-3.24217 -0.3125,-3.82812 -0.390632,-1.23696 -1.230475,-1.72524 -2.519531,-1.46485 z m 0.878906,13.47657 c -0.286464,0.0391 -0.579432,0.0521 -0.878906,0.0391 l -0.05859,5.11719 0.07813,4.19921 -3.710938,-0.0976 0.03906,-25.80078 c 1.197914,-0.18227 2.278642,-0.27342 3.242187,-0.27344 1.575515,0.0391 2.675775,0.13023 3.300782,0.27344 2.252594,0.62502 3.483061,3.52215 3.691406,8.6914 -0.104178,3.07293 -0.917979,5.23439 -2.441406,6.48438 L -21,271.95419 l -3.632812,0.46875 z"
         style=""
         id="path3013" />
      <path
         d="m -20.824219,245.87997 9.84375,0.0391 0.195313,4.14063 -3.144532,-0.0391 -0.07813,22.16796 -3.652343,-0.17578 0.03906,-21.99218 -3.261718,-0.0781 z"
         style=""
         id="path3015" />
      <path
         d="m -3.1679688,259.23935 c -7.5e-6,-2.9427 -0.094408,-5.18879 -0.2832031,-6.73829 -0.1888091,-1.54945 -0.647793,-2.35675 -1.3769531,-2.42187 l 0,0.0195 c -0.7552134,0.10419 -1.223963,0.91799 -1.40625,2.44141 -0.1822959,1.52345 -0.2734417,3.75001 -0.2734375,6.67968 -4.2e-6,2.9297 0.091142,5.15952 0.2734375,6.68946 0.182287,1.52995 0.6445262,2.34701 1.3867188,2.45117 l 0,0.0195 c 0.7421809,-0.0651 1.20442,-0.87239 1.3867187,-2.42187 0.1953051,-1.54948 0.2929612,-3.78906 0.2929687,-6.71875 z m 3.63281255,0 c -1.115e-5,4.2448 -0.30600043,7.48698 -0.91796875,9.72656 -0.6119888,2.23958 -2.1093831,3.40495 -4.4921875,3.49609 l 0,-0.0195 c -2.4348991,-0.16927 -3.9453143,-1.35417 -4.53125,-3.55469 -0.5859385,-2.20051 -0.8789065,-5.42968 -0.8789065,-9.6875 l 0.01953,0 c 0,-4.23175 0.292969,-7.44138 0.8789067,-9.6289 0.5859357,-2.21352 2.0963509,-3.3919 4.5312501,-3.53516 l 0,-0.0195 c 2.3828043,0.0781 3.8801986,1.237 4.49218745,3.47656 0.6119683,2.2396 0.91795758,5.4883 0.91796875,9.7461 z"
         style=""
         id="path3017" />
      <path
         d="m 5.0742187,246.11435 -0.039063,22.05078 5.1171878,-0.46875 0.09766,4.04297 -8.7890625,0.35156 0.1367187,-26.03516 z"
         style=""
         id="path3019" />
      <path
         d="m 10.816406,245.87997 9.84375,0.0391 0.195313,4.14063 -3.144532,-0.0391 -0.07813,22.16796 -3.652343,-0.17578 0.03906,-21.99218 -3.261718,-0.0781 z"
         style=""
         id="path3021" />
      <path
         d="m 34.546875,256.09481 c 0.338535,-0.69008 0.488274,-1.49737 0.449219,-2.42187 -0.02605,-1.11977 -0.198575,-1.93032 -0.517578,-2.43164 -0.319017,-0.50128 -0.76498,-0.791 -1.337891,-0.86914 -0.07813,-0.026 -0.266932,-0.039 -0.566406,-0.0391 l -0.15625,0.0195 0.05859,6.83593 c 0.911453,0.10419 1.601557,-0.2604 2.070313,-1.09375 z m 0.449219,11.42579 c 0.195305,-0.58594 0.27343,-1.58854 0.234375,-3.00782 -0.03907,-1.45832 -0.305997,-2.42186 -0.800782,-2.89062 -0.403652,-0.3776 -1.061203,-0.60546 -1.972656,-0.6836 l 0.01953,8.04688 c 1.132807,-0.013 1.97265,-0.5013 2.519532,-1.46484 z m 0.78125,4.12109 c -0.898445,0.40364 -2.011725,0.625 -3.339844,0.66406 l -0.371094,0 c -0.963545,0 -2.044273,-0.0911 -3.242187,-0.27344 l -0.03906,-25.80078 c 0.742186,-0.052 1.43229,-0.0846 2.070313,-0.0976 0.36458,-0.013 0.709631,-0.0195 1.035156,-0.0195 2.031244,2e-5 3.40494,0.20835 4.121094,0.625 1.705719,0.72919 2.597645,2.52606 2.675781,5.39062 0.07811,2.65627 -0.703135,4.7396 -2.34375,6.25 1.692698,1.21095 2.571603,3.14454 2.636719,5.80078 -1.1e-5,4.12761 -1.067719,6.61459 -3.203125,7.46094 z"
         style=""
         id="path3023" />
      <path
         d="m 44.273437,249.35653 -0.01953,9.76563 c 0.911453,-0.0781 1.569004,-0.30598 1.972656,-0.6836 0.494785,-0.46873 0.787754,-1.73175 0.878907,-3.78906 -0.01303,-1.96613 -0.117195,-3.24217 -0.3125,-3.82812 -0.390632,-1.23696 -1.230475,-1.72524 -2.519532,-1.46485 z m 0.878907,13.47657 c -0.286464,0.0391 -0.579432,0.0521 -0.878907,0.0391 l -0.05859,5.11719 0.07813,4.19921 -3.710938,-0.0976 0.03906,-25.80078 c 1.197914,-0.18227 2.278642,-0.27342 3.242187,-0.27344 1.575515,0.0391 2.675775,0.13023 3.300781,0.27344 2.252595,0.62502 3.483062,3.52215 3.691407,8.6914 -0.104178,3.07293 -0.917979,5.23439 -2.441407,6.48438 l 3.320313,10.48828 -3.632813,0.46875 z"
         style=""
         id="path3025" />
      <path
         d="m 56.265625,259.49325 -0.07813,8.41797 4.667969,0.0586 -0.136719,4.23829 -8.28125,-0.0977 0.390625,-26.05469 7.949219,0.0586 0.136718,4.04296 -4.511718,0.0586 -0.07813,5.11719 3.632812,0.0586 -0.117187,4.12109 z"
         style=""
         id="path3027" />
      <path
         d="m 72.222656,262.36435 c -0.117198,2.76042 -0.403656,4.96094 -0.859375,6.60156 -0.625009,2.23958 -2.128914,3.40495 -4.511719,3.49609 l 0,-0.0195 c -2.434899,-0.15625 -3.938803,-1.33463 -4.511718,-3.53516 -0.572918,-2.20051 -0.865886,-5.41665 -0.878907,-9.64843 l -0.01953,0 c 0,-4.24478 0.289713,-7.47069 0.869141,-9.67774 0.579425,-2.207 2.086585,-3.38864 4.521484,-3.54492 l 0,-0.0195 c 2.382805,0.0781 3.886709,1.24351 4.511719,3.49609 0.429677,1.58857 0.709624,3.6719 0.839844,6.25 l -3.59375,0.44922 c -0.05209,-1.49738 -0.136726,-2.72784 -0.253907,-3.6914 -0.182298,-1.56248 -0.644537,-2.36977 -1.386718,-2.42188 -0.742193,0.11721 -1.204432,0.94078 -1.386719,2.4707 -0.182296,1.52997 -0.273442,3.75978 -0.273438,6.68946 -4e-6,2.92969 0.09114,5.15625 0.273438,6.67968 0.182287,1.52345 0.644526,2.33725 1.386719,2.44141 l 0,0.0195 c 0.742181,-0.0651 1.21093,-0.87239 1.40625,-2.42187 0.11718,-0.97656 0.195305,-2.22656 0.234375,-3.75 l 3.632812,0.13672 z"
         style=""
         id="path3029" />
      <path
         d="m 79.820312,246.44638 3.710938,0.0586 -0.15625,25.95703 -3.574219,-0.0195 0.03906,-12.75391 -2.617188,0 -0.214844,12.10938 -3.710937,0.17578 0.195312,-26.11328 3.789063,0.0977 -0.03906,9.51171 2.636719,0 z"
         style=""
         id="path3031" />
      <path
         d="m 84.722656,245.87997 9.84375,0.0391 0.195313,4.14063 -3.144532,-0.0391 -0.07813,22.16796 -3.652343,-0.17578 0.03906,-21.99218 -3.261719,-0.0781 z"
         style=""
         id="path3033" />
    </g>
    <g
       id="layer1-1"
       inkscape:label="Layer 1"
       transform="translate(1395.9978,465.11921)">
      <path
         style="fill:#cccccc;fill-opacity:1;stroke:none"
         d="m -1538.5733,140.30754 c 71.3714,0.62546 135.5672,34.77634 176.5746,88.11897 0.4852,0.3839 0.9157,0.78854 1.4031,1.17868 3.3425,2.67514 6.7575,5.44455 10.2151,8.41907 3.6067,6.91222 6.745,10.81712 9.6539,12.96524 4.7416,3.5018 8.8935,2.42012 13.4143,2.24508 -15.0224,-26.64207 -20.0168,-87.01604 44.2278,-68.3624 48.4652,14.28692 86.7568,51.4348 116.2384,15.82777 -11.2824,51.97028 -82.0231,18.0404 -102.7119,18.52181 -15.1279,5.4958 -9.5158,19.7132 2.8625,33.56379 2.459,-3.76327 5.5772,-7.16047 9.5977,-9.93445 20.3314,-14.02756 43.2114,20.81869 75.9956,-6.62294 0,0 -12.2821,18.13796 -27.8388,22.67522 -10.0852,2.94142 -25.0933,-5.44784 -28.5126,1.06637 -5.9897,13.40165 3.5203,17.14282 9.71,22.50684 2.3961,1.11343 4.6038,1.99025 6.5669,2.52573 52.1538,21.41659 46.2018,141.04224 23.1242,218.22075 -40.1556,89.51902 -103.9573,2.59386 -88.9047,-6.17389 -17.4494,4.21678 1.0382,27.24028 11.7865,38.83963 -26.0812,-14.45986 -42.5369,-58.43925 -13.6388,-66.84695 -14.1055,-19.57116 -28.8909,-23.76726 -42.7122,-19.98111 -31.5461,78.95462 -106.5767,136.59648 -197.0611,141.49552 -73.1883,3.96261 -140.0818,-27.47028 -184.0958,-79.36319 -5.4131,-3.16149 -10.551,-6.82761 -15.2663,-11.05698 -5.8224,1.13314 -10.5403,5.36029 -12.1795,15.21039 12.2639,-2.18677 14.2044,17.1811 7.1841,27.3337 1.8576,-6.2764 4.4972,-18.25293 -2.7501,-16.61355 7.1937,0.48889 -0.4917,44.47007 -31.8239,18.63412 -22.7311,-24.39355 -46.9024,-67.68014 -31.4872,-85.20042 0.6301,-0.55911 1.2799,-1.27982 1.9644,-2.13281 1.3116,-3.12629 4.1774,-6.28723 -0.5051,-10.15893 -2.4643,-1.78864 -6.4951,4.06645 -10.7763,4.82686 -6.604,1.17304 -14.4807,-3.25534 -14.4807,-3.25534 17.2002,4.1608 19.2928,-12.97691 29.4105,-11.50598 2.0006,0.29087 3.7847,0.96389 5.3881,1.90831 2.0491,-7.4108 1.5134,-13.70401 -5.1075,-12.96527 -7.7632,3.61994 -27.8065,29.16275 -41.5339,11.95499 17.4743,7.79619 24.8871,-12.96709 40.2429,-27.16533 20.4078,-18.71523 29.6428,4.58954 28.9614,17.23092 1.7093,-0.76505 3.4303,-1.14185 4.5462,-3.31147 0.6584,-1.27987 1.0853,-3.21509 1.1788,-6.23007 -3.1868,-13.20465 -5.2448,-26.86475 -6.0055,-40.91639 -6.7274,-124.25018 88.5263,-230.40829 212.7764,-237.13553 4.8174,-0.26087 9.6104,-0.37847 14.3685,-0.33676 z"
         id="path3032"
         inkscape:connector-curvature="0" />
      <path
         inkscape:connector-curvature="0"
         id="path4076"
         d="m -490.64083,372.82474 c -29.84238,0.26152 -56.68449,14.54098 -73.83095,36.84506 -0.20283,0.16052 -0.38288,0.32971 -0.58669,0.49284 -1.39763,1.11855 -2.82553,2.27652 -4.27121,3.52025 -1.50805,2.8902 -2.82031,4.52295 -4.03654,5.42114 -1.98268,1.4642 -3.71859,1.01192 -5.60889,0.93873 6.28121,-11.13981 8.36958,-36.38389 -18.49294,-28.58427 -20.2647,5.97377 -36.27547,21.50636 -48.60263,6.61804 4.71754,21.73026 34.2962,7.54321 42.9468,7.7445 6.32543,2.29795 3.97885,8.24265 -1.19688,14.03398 -1.02822,-1.57353 -2.33198,-2.994 -4.01307,-4.15388 -8.50108,-5.86532 -18.0679,8.70489 -31.77592,-2.76924 0,0 5.13553,7.584 11.64022,9.48116 4.21687,1.22989 10.49215,-2.2779 11.92184,0.44588 2.50452,5.60361 -1.47188,7.1679 -4.06001,9.41075 -1.00184,0.46556 -1.92492,0.83218 -2.74578,1.05608 -21.807,8.95489 -19.31828,58.97379 -9.66888,91.24433 16.79021,37.43046 43.46754,1.08457 37.17361,-2.58148 7.29608,1.76316 -0.43406,11.38994 -4.92833,16.23996 10.90532,-6.04608 17.78597,-24.43512 5.70279,-27.95062 5.8979,-8.18326 12.08014,-9.93777 17.85928,-8.35467 13.19022,33.01318 44.56274,57.11489 82.39684,59.16332 30.60212,1.65688 58.57217,-11.48611 76.97568,-33.18402 2.26339,-1.32191 4.41171,-2.85482 6.38336,-4.62324 2.43452,0.4738 4.40714,2.24129 5.09259,6.3599 -5.12787,-0.91435 -5.93934,7.18391 -3.00393,11.429 -0.77672,-2.62434 -1.88038,-7.63207 1.14995,-6.9466 -3.00794,0.20442 0.2056,18.59421 13.30646,7.79146 9.50448,-10.19964 19.61116,-28.299 13.16567,-35.62473 -0.26344,-0.23378 -0.53521,-0.53513 -0.8214,-0.89179 -0.54833,-1.30719 -1.7467,-2.62887 0.21121,-4.24774 1.03044,-0.74788 2.71578,1.7003 4.50591,2.01825 2.76131,0.49048 6.05478,-1.36115 6.05478,-1.36115 -7.19187,1.73975 -8.06685,-5.42602 -12.29732,-4.81098 -0.83659,0.12162 -1.58258,0.40303 -2.25296,0.79792 -0.85675,-3.09867 -0.63281,-5.73004 2.1356,-5.42115 3.24604,1.5136 11.62673,12.19378 17.36647,4.99872 -7.30649,3.25981 -10.40595,-5.42191 -16.82668,-11.3586 -8.53309,-7.82537 -12.39444,1.91902 -12.1096,7.20474 -0.71469,-0.31989 -1.43423,-0.47744 -1.90092,-1.38462 -0.27526,-0.53515 -0.4538,-1.34432 -0.49283,-2.60497 1.33251,-5.52124 2.19298,-11.23292 2.5111,-17.10831 2.81283,-51.95255 -37.01541,-96.34029 -88.96794,-99.15314 -2.01427,-0.10908 -4.01835,-0.15825 -6.00786,-0.14081 z"
         style="fill:#333333;fill-opacity:1;stroke:none" />
      <path
         inkscape:connector-curvature="0"
         id="path4064"
         d="m -482.40348,397.56022 c -5.99996,0.83437 -10.90374,5.56323 -13.5177,10.67803 -3.65334,7.80504 -3.95649,17.06356 -0.79791,24.97015 -4.28742,-1.32217 -8.43892,-3.16318 -12.20346,-5.56195 3.90588,3.06935 8.20664,5.46426 12.7667,7.32208 2.17354,3.34638 4.48975,6.82175 7.72104,9.22299 -6.42132,-1.04323 -12.86546,-2.76023 -18.77457,-5.82011 5.78389,3.86602 12.49984,6.10804 19.19698,7.95572 2.27857,0.79474 4.94408,0.93488 7.08741,1.59584 3.14193,6.42982 4.68721,14.46339 0.75098,20.79283 -2.88106,5.11611 -9.11382,7.03636 -14.85538,7.06392 -1.05629,1.07932 3.89157,2.78731 5.49157,2.51111 5.21169,0.37771 10.52196,-2.05841 13.68196,-6.10173 5.7998,-6.87547 5.56759,-16.66512 2.27641,-24.57121 3.46739,-0.4198 5.67887,-4.86367 3.77838,-7.6741 -1.6239,-2.00625 -0.39308,-0.27688 -0.51629,0.7979 -0.0983,3.22283 -5.69356,5.25731 -6.00787,0.96222 -1.62301,-1.872 -0.56478,-2.26615 1.57237,-2.27642 3.05491,-1.49154 4.07978,-6.45595 0.98567,-8.58938 1.08376,1.47177 0.32636,5.6345 -2.74578,5.51504 -3.85288,1.76399 -4.1706,-3.75005 -5.79664,-5.89053 -3.41885,-7.36833 -4.33506,-16.35535 -0.14082,-23.49166 1.30272,-2.9601 3.9578,-5.26346 5.39769,-7.9557 -4.66617,0.69373 -8.10194,4.33593 -10.46681,7.83837 -5.38652,8.08178 -4.46567,18.68873 -0.63364,27.12923 2.44144,3.47924 -2.66704,0.82387 -4.27122,0.56323 -2.74187,-6.43182 -2.69333,-13.81984 -1.03259,-20.67547 1.68232,-4.84171 3.90807,-9.95288 8.14346,-13.32993 0.65564,-1.07733 6.23617,-3.12767 3.56716,-2.98047 -0.13249,0.002 -0.38884,0 -0.6571,0 z m -8.47203,39.63778 c 0.0618,-10e-4 0.1274,0.006 0.21122,0.0234 0.93453,-0.002 3.34953,1.32725 4.55282,1.45503 1.35426,1.73903 2.1792,4.02328 3.40289,6.03133 0.8097,0.80172 -0.91648,-0.0144 -1.31422,0.25814 -3.33725,0.0154 -4.45808,-3.87453 -6.21906,-6.14866 -0.94747,-1.17028 -1.06705,-1.61169 -0.63365,-1.61931 z m -1.66624,11.31168 c -6.00726,0.16289 -11.56241,5.0267 -11.89837,10.93618 -0.86165,6.58329 4.83392,13.11824 11.78102,13.3534 6.14669,0.50712 11.97575,-3.8098 12.97792,-9.85665 1.53103,-6.45226 -3.50614,-13.4083 -10.32601,-14.3156 -0.80232,-0.12999 -2.45993,-0.1296 -2.53456,-0.11731 z m 0.96221,1.19688 c 4.94309,0.24531 9.77546,3.97763 10.63108,8.94139 1.40242,6.16963 -3.714,12.78881 -10.25561,12.95443 -4.80165,0.42588 -9.52715,-2.64164 -11.31166,-7.06393 -2.46668,-5.76173 1.20322,-12.90253 7.46289,-14.40948 1.06508,-0.27394 2.27122,-0.4164 3.4733,-0.42241 z m -0.39897,0.68056 c -5.87716,-0.10967 -10.63182,4.48177 -10.7015,10.25562 0.0616,5.6389 4.77944,10.30723 10.65456,10.27907 5.87662,0.10978 10.63185,-4.48178 10.7015,-10.25561 -0.0118,-1.20828 -0.29056,-2.40114 -0.70405,-3.47329 l -0.14081,-0.0234 c -0.80138,0.005 -0.91575,0.27306 -1.17341,1.07953 l -1.26728,7.13434 -1.73665,-0.11731 -3.00392,-7.50984 -1.03261,5.23341 c 0.004,0.134 0.0234,0.40579 0.0234,0.53979 0.0118,0.40277 0.26092,0.5252 0.79792,0.65709 l 0.28162,0 -0.25815,1.07955 -3.75491,0.0234 0.14081,-1.07956 0.39895,0 c 0.66533,-0.13702 0.93141,-0.41456 1.05608,-1.22035 l 0.86832,-4.69364 c 0.13216,-0.13511 0.14283,-0.40579 0.14082,-0.53976 -0.006,-0.40283 -0.28503,-0.5487 -0.82139,-0.68057 l -0.25815,0.0234 0.25815,-1.07955 3.98958,-0.0234 2.20602,5.77317 0.63363,-3.49676 c 0.13189,-0.13542 0.1194,-0.4057 0.11731,-0.53977 -0.0118,-0.40268 -0.26301,-0.54227 -0.79791,-0.53976 l -0.28162,-0.14082 0.25816,-1.05606 2.93352,-0.0234 c -1.77278,-3.34812 -5.3889,-5.60534 -9.52808,-5.58543 z m -9.01179,5.5385 8.2608,0.0938 0.70405,2.957 -1.05606,0.28162 c -0.54904,-1.34006 -1.36213,-2.00784 -2.69885,-2.13561 l -1.12647,5.91398 c 0.002,0.13397 -0.005,0.3824 0,0.51631 0.006,0.40287 0.28427,0.54867 0.82138,0.68057 l 0.5163,0 -0.25814,1.07953 -5.4681,0.0234 0.25815,-1.22034 0.53977,0 c 0.80151,-0.005 0.91518,-0.27204 1.17342,-1.07955 l 1.14993,-5.91398 c -1.46732,0.14131 -2.25712,0.55965 -3.30901,2.04173 l -0.82139,-0.39896 1.31422,-2.83965 z m -23.04577,27.80981 -0.42243,0.0939 c -0.0335,0.16471 -0.10554,0.46174 -0.18774,0.89179 -0.0824,0.43009 -0.1498,0.74047 -0.21122,0.91525 -0.28665,-0.0926 -0.79834,-0.20555 -1.52542,-0.32855 -0.72711,-0.12292 -1.50386,-0.19941 -2.34683,-0.21121 -0.92915,-0.0185 -1.84677,0.10449 -2.74577,0.32854 -0.89902,0.22412 -1.83577,0.67205 -2.79271,1.36117 -0.83605,0.59941 -1.51662,1.40081 -2.06522,2.41722 -0.5486,1.01643 -0.84823,2.23954 -0.86832,3.63757 0.009,1.30917 0.36502,2.49053 1.03259,3.56717 0.6676,1.07665 1.60154,1.9428 2.8162,2.60497 0.78966,0.39089 1.59973,0.64315 2.41723,0.75098 0.81747,0.1079 1.40187,0.15429 1.78357,0.14081 1.46421,-0.0266 2.64971,-0.18755 3.5437,-0.46938 0.89397,-0.28178 1.44447,-0.53236 1.66624,-0.75097 l 0.25816,-0.86832 c -0.6711,0.41701 -1.38835,0.70909 -2.15908,0.86832 -0.77076,0.15923 -1.51206,0.24226 -2.22948,0.23468 -1.99929,-0.0568 -3.62646,-0.77534 -4.90486,-2.15906 -1.27839,-1.38374 -1.95191,-3.08787 -1.9948,-5.11608 0.0186,-1.62255 0.5284,-2.99995 1.50197,-4.10693 0.97357,-1.10697 2.307,-1.66766 4.01306,-1.71317 1.21079,0.0421 2.21502,0.30412 3.00395,0.82138 0.78888,0.51727 1.26415,1.0385 1.45502,1.52542 0.029,0.19631 0.0718,0.46842 0.0938,0.82139 0.022,0.35301 0.0222,0.62836 0.0234,0.84487 l 0.42242,0.1408 c 0.007,-0.96164 0.054,-1.95885 0.11731,-3.00394 0.0633,-1.04504 0.16754,-2.12528 0.3051,-3.23859 z m 40.15409,0.32856 c 9.1e-4,0.85046 -0.0232,1.76464 -0.0938,2.76925 -0.0706,1.00464 -0.11913,1.78629 -0.16428,2.32334 l 0.42243,-0.11731 c 0.0548,-0.34329 0.10472,-0.68677 0.16427,-1.03261 0.0595,-0.34582 0.13782,-0.63621 0.21122,-0.8683 0.23372,-0.18577 0.70437,-0.38001 1.45502,-0.56325 0.75065,-0.18323 1.86556,-0.29117 3.33249,-0.30509 0.0186,0.17986 0.0329,0.58095 0.0469,1.1734 0.0139,0.59248 0.0393,1.24083 0.0469,1.94787 0.007,0.70704 -1.5e-4,1.30696 0,1.83052 l 0,0.91527 c -1.1e-4,0.60868 0.007,1.34944 0,2.20599 -0.007,0.85656 -0.0332,1.69824 -0.0469,2.53458 -0.0139,0.83632 -0.0282,1.54063 -0.0469,2.08866 -0.26697,0.0358 -0.66798,0.0772 -1.19688,0.14081 -0.5289,0.0637 -0.91574,0.11507 -1.17341,0.14081 l -0.0938,0.42244 c 0.19825,-0.0138 0.5264,-0.0347 0.98566,-0.0469 0.45926,-0.0118 0.93933,-0.0158 1.43157,-0.0234 0.49221,-0.007 0.87622,-0.0233 1.1734,-0.0234 0.56985,0.001 1.2563,0.007 2.04174,0.0234 0.78541,0.016 1.31341,0.0493 1.59583,0.0704 l -0.0704,-0.42244 c -0.23181,-0.0256 -0.63127,-0.0772 -1.19688,-0.14081 -0.56559,-0.0637 -0.96509,-0.10507 -1.19687,-0.14081 -0.0187,-0.56039 -0.0331,-1.2557 -0.047,-2.08866 -0.0139,-0.83298 -0.0159,-1.68362 -0.0234,-2.53458 -0.007,-0.85093 -0.0233,-1.59169 -0.0234,-2.20599 l 0,-0.91527 c 1e-4,-0.50934 0.016,-1.10975 0.0234,-1.80704 0.007,-0.6973 0.009,-1.32819 0.0234,-1.9244 0.0139,-0.5962 0.0282,-1.01429 0.047,-1.22035 0.95964,0.0106 1.94604,0.10978 2.93352,0.28161 0.98747,0.17189 1.60884,0.37442 1.90093,0.58673 0.009,0.23082 0.0308,0.51941 0.0234,0.89177 -0.007,0.37236 -0.0281,0.76062 -0.0469,1.17341 l 0.42244,0.14081 c 0.0228,-0.24674 0.0845,-0.75972 0.16427,-1.52542 0.0798,-0.76568 0.14871,-1.52644 0.23467,-2.27643 0.086,-0.74995 0.14642,-1.23198 0.18776,-1.43155 l -0.4459,0.0938 c -0.0387,0.20514 -0.093,0.43248 -0.1408,0.68057 -0.048,0.24813 -0.0787,0.42888 -0.11731,0.56324 -0.12005,0.0217 -0.50997,0.0392 -1.14994,0.0704 -0.64002,0.0313 -1.41756,0.0693 -2.32336,0.0938 -0.90581,0.0246 -1.80484,0.0457 -2.72231,0.0469 -0.8566,-0.001 -1.72848,-0.0224 -2.60496,-0.0469 -0.87652,-0.0245 -1.64512,-0.0626 -2.27642,-0.0938 -0.63131,-0.0313 -1.0055,-0.0488 -1.12648,-0.0704 -0.0278,-0.22405 -0.0519,-0.44962 -0.0704,-0.70405 -0.0186,-0.2544 -0.0142,-0.46694 -0.0234,-0.61016 l -0.44589,-0.0704 z m -15.25433,0.18774 -0.42243,0.0938 c -0.0191,0.18368 -0.0446,0.35289 -0.0704,0.51631 -0.0259,0.16345 -0.0421,0.29943 -0.0704,0.42243 -0.21395,0.0462 -0.71316,0.0738 -1.50196,0.0938 -0.78881,0.0202 -1.59465,0.0426 -2.39376,0.0469 -0.79912,0.005 -1.30405,8.7e-4 -1.5489,0 -0.20824,-10e-4 -0.46626,0.006 -0.75098,0 -0.28474,-0.005 -0.58157,-0.0225 -0.89179,-0.0234 -0.30947,-0.0106 -0.6032,-0.0133 -0.8918,-0.0234 -0.28859,-0.0106 -0.54845,-0.0133 -0.77445,-0.0234 l 0.0704,0.42243 c 0.25303,0.0333 0.59612,0.0848 1.00912,0.14079 0.413,0.0561 0.70856,0.0973 0.91525,0.14081 0.0249,0.23353 0.051,0.6766 0.0704,1.3377 0.0195,0.66111 0.0358,1.3889 0.0469,2.18255 0.0118,0.79364 0.0232,1.50445 0.0234,2.13559 l 0,0.93874 c -2.1e-4,0.77131 -0.0118,1.61048 -0.0234,2.53456 -0.0118,0.92407 -0.0275,1.74676 -0.0469,2.46416 -0.0195,0.7174 -0.0454,1.16295 -0.0704,1.31422 -0.28008,0.0725 -0.62501,0.13551 -1.03259,0.18775 -0.40759,0.0522 -0.69021,0.082 -0.86832,0.0938 l -0.0938,0.42244 c 0.39444,-0.0212 0.88672,-0.0544 1.45503,-0.0704 0.56829,-0.016 1.01306,-0.0227 1.36115,-0.0234 0.42972,3.9e-4 1.05773,0.007 1.90092,0.0234 0.84319,0.0161 1.66754,0.0429 2.44069,0.0704 0.77313,0.0273 1.25894,0.0596 1.47851,0.0938 0.009,0.1588 0.0214,0.34306 0.0234,0.53977 0.001,0.1967 4.7e-4,0.43403 0,0.70403 l 0.39895,0.0704 c 0.0286,-0.36507 0.0844,-0.87057 0.16429,-1.52544 0.0799,-0.65486 0.14847,-1.29322 0.23467,-1.90092 0.0862,-0.60769 0.16416,-1.02029 0.21122,-1.2438 l -0.44589,0.11731 c -0.0529,0.22453 -0.10436,0.49508 -0.16429,0.79794 -0.0599,0.30286 -0.13539,0.62973 -0.23468,0.98565 -0.44276,0.25865 -1.06355,0.43784 -1.85399,0.53978 -0.79045,0.10201 -1.66154,0.14502 -2.60496,0.14081 -0.0192,-0.23864 -0.0272,-0.76712 -0.0469,-1.59584 -0.0198,-0.82872 -0.0333,-1.68089 -0.047,-2.58151 -0.0136,-0.90059 -0.0229,-1.58742 -0.0234,-2.04172 l 0,-0.39897 c 0.81246,-10e-4 1.53466,0.0248 2.18254,0.0938 0.64789,0.0691 1.12904,0.19199 1.43156,0.35204 -3.8e-4,0.20682 0.007,0.41744 0,0.6571 -0.007,0.23968 -0.0373,0.46367 -0.0469,0.68057 l 0.35201,0.1643 c 0.0341,-0.24362 0.0958,-0.62575 0.16427,-1.17341 0.0685,-0.54766 0.12346,-1.07962 0.18775,-1.59584 0.0644,-0.5162 0.119,-0.85985 0.14082,-1.00913 l -0.39896,0.047 c -0.0341,0.27968 -0.0983,0.56841 -0.18775,0.86831 -0.25499,0.0931 -0.74138,0.17446 -1.47851,0.2347 -0.73713,0.0602 -1.51695,0.0918 -2.3468,0.0938 l 0,-0.39895 c 4.7e-4,-0.4367 0.0106,-1.07305 0.0234,-1.87745 0.0136,-0.80438 0.0272,-1.54965 0.0469,-2.25295 0.0198,-0.70329 0.0278,-1.13384 0.047,-1.26729 0.35473,-3.5e-4 0.84685,0.0335 1.45502,0.0939 0.60819,0.0602 1.17711,0.1562 1.71318,0.28163 0.53606,0.12541 0.87073,0.29776 1.00914,0.49283 0.007,0.22872 0.0271,0.49915 0.0234,0.82139 -0.005,0.32224 -0.0222,0.53632 -0.0234,0.63364 l 0.42243,0.1408 c 0.0145,-0.24111 0.0471,-0.66221 0.0938,-1.26728 0.0468,-0.60507 0.0878,-1.20096 0.14081,-1.78358 0.053,-0.58259 0.0844,-0.9762 0.11731,-1.14994 z m 60.85303,0 -0.42243,0.0938 c -0.0191,0.18368 -0.0446,0.35289 -0.0704,0.51631 -0.0259,0.16345 -0.0421,0.29943 -0.0704,0.42243 -0.21397,0.0462 -0.71316,0.0738 -1.50197,0.0938 -0.78882,0.0202 -1.59465,0.0426 -2.39376,0.0469 -0.79911,0.005 -1.32751,8.7e-4 -1.57237,0 -0.20824,-10e-4 -0.44278,0.006 -0.72752,0 -0.28473,-0.005 -0.58155,-0.0225 -0.89179,-0.0234 -0.30944,-0.0106 -0.60319,-0.0133 -0.89177,-0.0234 -0.2886,-0.0106 -0.54846,-0.0133 -0.77446,-0.0234 -0.21162,0.0177 -0.44045,0.0331 -0.75098,0.0469 -0.35893,0.016 -0.75686,0.0227 -1.19688,0.0234 -0.5915,-0.001 -1.16083,-0.007 -1.68972,-0.0234 -0.5289,-0.016 -0.87691,-0.0259 -1.0326,-0.0469 l 0.0938,0.42243 c 0.30868,0.0509 0.64192,0.0924 0.9622,0.14079 0.32027,0.0485 0.56283,0.10002 0.75099,0.14081 -0.10813,0.56731 -0.3621,1.3825 -0.75099,2.44071 -0.38891,1.05823 -0.82943,2.16117 -1.31423,3.33248 -0.4848,1.17132 -0.91837,2.21468 -1.3142,3.12127 -0.39586,0.90659 -0.65243,1.49611 -0.77445,1.7601 -0.1379,-0.2068 -0.41696,-0.80987 -0.84486,-1.83051 -0.42793,-1.02061 -0.89818,-2.1797 -1.4081,-3.47329 -0.50993,-1.29358 -0.95381,-2.47108 -1.33768,-3.49677 -0.38388,-1.02567 -0.60733,-1.63704 -0.65712,-1.85399 0.18622,-0.0624 0.46858,-0.11201 0.84486,-0.16427 0.37629,-0.0522 0.6685,-0.0954 0.8918,-0.11731 l 0.0938,-0.42244 c -0.24032,0.0212 -0.67058,0.031 -1.31422,0.0469 -0.64363,0.016 -1.26628,0.0227 -1.87746,0.0234 -0.5285,-10e-4 -1.02908,-0.007 -1.50195,-0.0234 -0.47289,-0.016 -0.86745,-0.0259 -1.17342,-0.0469 l 0.0704,0.42244 c 0.29246,0.051 0.52519,0.0924 0.70406,0.14081 0.17887,0.0485 0.32961,0.10001 0.44589,0.14081 0.24827,0.39922 0.68231,1.2924 1.29075,2.67537 0.60843,1.38299 1.25597,2.92244 1.97133,4.62324 0.71535,1.70081 1.35536,3.22365 1.92438,4.5763 0.56903,1.35266 0.95701,2.19599 1.12649,2.53456 0.0634,-0.16429 0.31481,-0.72785 0.75096,-1.71318 0.43616,-0.98532 0.94692,-2.17939 1.57239,-3.56717 0.62544,-1.38775 1.26951,-2.7588 1.90091,-4.1304 0.6314,-1.37158 1.16534,-2.53648 1.61931,-3.47328 0.45395,-0.93682 0.72821,-1.44202 0.82138,-1.52544 0.23606,-0.0598 0.43671,-0.11966 0.61018,-0.16429 0.17345,-0.0447 0.34513,-0.0777 0.5163,-0.11731 l 0.0234,-0.11731 0.0234,0.11731 c 0.25306,0.0333 0.59615,0.0847 1.00912,0.14081 0.41302,0.056 0.70859,0.0973 0.91527,0.1408 0.0249,0.23354 0.051,0.6766 0.0704,1.33769 0.0194,0.66111 0.0358,1.3889 0.0469,2.18254 0.0118,0.79366 0.0232,1.50447 0.0234,2.13561 l 0,0.93872 c -2.3e-4,0.77132 -0.0118,1.6105 -0.0234,2.53456 -0.0118,0.92409 -0.0275,1.74678 -0.0469,2.46416 -0.0195,0.7174 -0.0455,1.16296 -0.0704,1.31424 -0.28009,0.0725 -0.62502,0.13551 -1.03259,0.18775 -0.40759,0.0522 -0.69023,0.082 -0.86833,0.0938 l -0.0938,0.42244 c 0.39444,-0.0212 0.86324,-0.0544 1.43156,-0.0704 0.56829,-0.016 1.03653,-0.0227 1.38461,-0.0234 0.42972,3.9e-4 1.05773,0.007 1.90092,0.0234 0.84318,0.0161 1.66756,0.043 2.44071,0.0704 0.77312,0.0273 1.25893,0.0596 1.47848,0.0938 0.009,0.15879 0.0214,0.34307 0.0234,0.53977 10e-4,0.19671 4.7e-4,0.43404 0,0.70404 l 0.3755,0.0704 c 0.0286,-0.36505 0.0844,-0.87056 0.16428,-1.52542 0.0799,-0.65486 0.17193,-1.29322 0.25815,-1.90093 0.0863,-0.60768 0.14069,-1.02029 0.18774,-1.2438 l -0.42242,0.11731 c -0.053,0.2245 -0.10449,0.49506 -0.16428,0.79792 -0.0599,0.30286 -0.1354,0.62974 -0.23469,0.98567 -0.44275,0.25863 -1.06355,0.43782 -1.85398,0.53976 -0.79046,0.10202 -1.66153,0.14502 -2.60498,0.14081 -0.0192,-0.23865 -0.0271,-0.76711 -0.0469,-1.59583 -0.0198,-0.82872 -0.0333,-1.6809 -0.0469,-2.58152 -0.0136,-0.90059 -0.0229,-1.58741 -0.0234,-2.04172 l 0,-0.39897 c 0.81246,-10e-4 1.53465,0.0248 2.18254,0.0938 0.64788,0.0691 1.12905,0.19197 1.43157,0.35203 -4e-4,0.20683 -0.016,0.41744 -0.0234,0.65711 -0.007,0.23968 -0.0138,0.46365 -0.0234,0.68057 l 0.35204,0.16428 c 0.034,-0.24361 0.0958,-0.62574 0.16427,-1.17341 0.0685,-0.54764 0.12344,-1.07961 0.18774,-1.59583 0.0644,-0.51619 0.11898,-0.85986 0.1408,-1.00914 l -0.39894,0.0469 c -0.0341,0.27969 -0.0983,0.56841 -0.18776,0.86832 -0.255,0.0931 -0.74138,0.17444 -1.4785,0.23469 -0.73714,0.0602 -1.51697,0.0918 -2.34681,0.0939 l 0,-0.39896 c 4.6e-4,-0.43668 0.009,-1.07306 0.0234,-1.87745 0.0136,-0.80438 0.0272,-1.54965 0.0469,-2.25296 0.0198,-0.70328 0.0278,-1.13384 0.047,-1.26728 0.35473,-3.6e-4 0.84685,0.0335 1.45503,0.0939 0.60817,0.0602 1.1771,0.15621 1.71319,0.28163 0.53604,0.12541 0.87072,0.29778 1.00911,0.49283 0.007,0.22874 0.005,0.49915 0,0.82139 -0.005,0.32225 10e-4,0.53634 0,0.63364 l 0.39898,0.1408 c 0.0145,-0.24111 0.0471,-0.6622 0.0939,-1.26728 0.0468,-0.60505 0.11131,-1.20096 0.16427,-1.78358 0.0529,-0.58259 0.0844,-0.97619 0.11731,-1.14994 z m -55.47883,1.10301 0,0.42244 c 0.23027,0.0299 0.48365,0.0748 0.75099,0.11731 0.26735,0.0426 0.5158,0.0806 0.72751,0.14081 -0.0818,0.24345 -0.34127,0.96001 -0.75097,2.15908 -0.40972,1.19908 -0.87204,2.56826 -1.40809,4.10693 -0.53605,1.53869 -1.04127,2.93856 -1.50198,4.20082 -0.46069,1.26224 -0.77849,2.09436 -0.96218,2.46416 -0.2519,0.0611 -0.50402,0.1159 -0.77444,0.16427 -0.27045,0.0485 -0.55096,0.0866 -0.82139,0.11731 l -0.0469,0.42243 c 0.24611,-0.0212 0.59903,-0.0544 1.05606,-0.0704 0.45706,-0.016 0.80564,-0.0227 1.07955,-0.0234 0.31602,10e-4 0.77651,0.007 1.38461,0.0234 0.6081,0.016 1.09699,0.0493 1.43158,0.0704 l -0.0704,-0.42243 c -0.26465,-0.0295 -0.54052,-0.0727 -0.82139,-0.11731 -0.28086,-0.0447 -0.53762,-0.0944 -0.77444,-0.16427 0.0724,-0.55478 0.185,-1.26907 0.37549,-2.11215 0.19047,-0.84307 0.381,-1.59833 0.56324,-2.29989 0.18222,-0.70154 0.30439,-1.13709 0.35202,-1.26728 0.25686,-0.0414 0.67661,-0.0775 1.26728,-0.11731 0.59065,-0.04 1.17355,-0.0674 1.76012,-0.0939 0.58653,-0.0265 0.99929,-0.0458 1.24381,-0.0469 0.11131,0.23827 0.2995,0.76873 0.56324,1.57237 0.26373,0.80362 0.53004,1.63232 0.79792,2.48762 0.26784,0.85532 0.46307,1.48418 0.5867,1.87747 -0.28899,0.0698 -0.57501,0.11965 -0.89179,0.16427 -0.3168,0.0447 -0.63615,0.0878 -0.96219,0.11731 l -0.0938,0.42242 c 0.18636,-0.0138 0.49125,-0.0347 0.91526,-0.0469 0.424,-0.0118 0.83916,-0.0158 1.26728,-0.0234 0.4281,-0.007 0.73999,-0.0232 0.93873,-0.0234 0.54434,0.001 1.15866,0.007 1.83051,0.0234 0.67183,0.016 1.07962,0.0493 1.24383,0.0704 l -0.0469,-0.42242 c -0.27779,-0.0395 -0.55057,-0.0961 -0.8214,-0.14081 -0.27083,-0.0447 -0.55289,-0.081 -0.82139,-0.1408 -0.29006,-0.61444 -0.5936,-1.3602 -0.91526,-2.20602 -0.32165,-0.84581 -0.60722,-1.66651 -0.89178,-2.48763 -0.28458,-0.82111 -0.52525,-1.50143 -0.70404,-2.04172 -0.24178,-0.72825 -0.50385,-1.50849 -0.77447,-2.34683 -0.2706,-0.83833 -0.51047,-1.62205 -0.7275,-2.32335 -0.21705,-0.70128 -0.36487,-1.20828 -0.44589,-1.52544 0.21518,-0.0602 0.43987,-0.0983 0.68058,-0.14082 0.24068,-0.0425 0.48448,-0.0874 0.72751,-0.11731 l 0.0469,-0.42244 c -0.31871,0.0212 -0.80048,0.031 -1.47848,0.0469 -0.67804,0.016 -1.25046,0.0227 -1.68972,0.0234 -0.20361,-0.001 -0.56328,-0.007 -1.10301,-0.0234 -0.53971,-0.016 -0.96662,-0.0259 -1.29075,-0.0469 z m 24.17226,0 0.0938,0.42244 c 0.2121,0.0245 0.52987,0.0575 0.9622,0.11731 0.43231,0.0599 0.76427,0.11965 0.98565,0.16428 0.0245,0.26747 0.0334,0.75351 0.0469,1.47849 0.0134,0.72502 0.0417,1.4598 0.0468,2.18254 0.005,0.72278 2.5e-4,1.21778 0,1.4785 l 0,1.1969 c 2.5e-4,0.68918 0.005,1.48591 0,2.39373 -0.005,0.90787 -0.0334,1.75254 -0.0468,2.53459 -0.0134,0.78204 -0.0224,1.33099 -0.0469,1.64277 -0.23258,0.0459 -0.56793,0.1006 -1.00913,0.16427 -0.44119,0.0636 -0.7667,0.10166 -0.9622,0.11731 l -0.0704,0.42243 c 0.32452,-0.0212 0.78686,-0.0544 1.40808,-0.0704 0.62123,-0.016 1.11689,-0.0227 1.47851,-0.0234 0.62277,10e-4 1.29348,0.007 2.01826,0.0234 0.72476,0.016 1.22659,0.0493 1.4785,0.0704 l -0.0938,-0.42243 c -0.21443,-0.0219 -0.52729,-0.0652 -0.93873,-0.11731 -0.41146,-0.0523 -0.74836,-0.10202 -1.00913,-0.16427 -0.0245,-0.15777 -0.0568,-0.58684 -0.0704,-1.26728 -0.0134,-0.68046 -0.0181,-1.48966 -0.0234,-2.41724 -0.005,-0.92756 -2.5e-4,-1.84665 0,-2.74578 l 0,-1.2438 c -9.3e-4,-1.28094 0.0106,-2.41764 0.0234,-3.40291 0.0132,-0.98523 0.0341,-1.59084 0.0704,-1.83051 0.35,-0.0447 0.70632,-0.10448 1.07953,-0.16428 0.3732,-0.0597 0.66665,-0.093 0.86833,-0.11731 l 0.0938,-0.42244 c -0.1978,0.0212 -0.60039,0.031 -1.19687,0.0469 -0.59653,0.016 -1.1532,0.0227 -1.66626,0.0234 -0.76571,-0.001 -1.49563,-0.007 -2.18254,-0.0234 -0.6869,-0.016 -1.12829,-0.0259 -1.33768,-0.0469 z m -48.74345,0.0234 -4.01306,0.0234 0.0469,0.42243 c 0.24147,0.0228 0.58946,0.0459 1.03262,0.0938 0.4431,0.048 0.76707,0.0979 0.96217,0.14081 0.0245,0.16914 0.0334,0.59073 0.0469,1.29075 0.0134,0.70005 0.0417,1.42084 0.0469,2.15908 0.005,0.73824 2.3e-4,1.26522 0,1.54889 l 0,1.22035 c 2.2e-4,0.73986 0.005,1.60251 0,2.55803 -0.005,0.95553 -0.0334,1.82019 -0.0469,2.60496 -0.0134,0.78481 -0.0224,1.2978 -0.0469,1.52545 -0.29284,0.0725 -0.65225,0.13551 -1.07953,0.18774 -0.42729,0.0523 -0.72875,0.082 -0.89178,0.0938 l -0.0704,0.42244 c 0.26965,-0.0212 0.76346,-0.0544 1.45502,-0.0704 0.69154,-0.016 1.25315,-0.0227 1.68971,-0.0234 0.47712,10e-4 1.05321,0.007 1.73665,0.0234 0.68342,0.016 1.17261,0.0493 1.45503,0.0704 l -0.0939,-0.42244 c -0.23992,-0.0232 -0.57682,-0.0613 -1.00912,-0.11731 -0.43232,-0.0559 -0.74519,-0.11072 -0.93874,-0.16427 -0.0186,-0.33461 -0.0331,-0.8531 -0.0469,-1.52544 -0.0139,-0.67233 -0.0159,-1.35018 -0.0234,-2.0652 -0.007,-0.71501 -0.0233,-1.32091 -0.0234,-1.78358 l 0,-0.51631 c 0.16805,-10e-4 0.42298,-0.0229 0.75098,-0.0469 0.328,-0.024 0.66983,-0.0388 1.03261,-0.0704 0.0957,0.13569 0.41619,0.53906 0.96219,1.22033 0.546,0.6813 1.18659,1.45094 1.9244,2.32335 0.73779,0.87241 1.44096,1.66121 2.11213,2.37029 0.67115,0.70908 1.17936,1.16986 1.52544,1.36116 l 0.82139,-0.14082 c -0.66658,-0.7899 -1.37634,-1.77542 -2.13561,-2.95699 -0.7593,-1.18154 -1.42715,-2.27147 -1.99481,-3.26207 -0.56766,-0.99059 -0.89396,-1.59001 -0.98566,-1.80707 0.73365,-0.45997 1.35908,-1.04737 1.85399,-1.7601 0.49489,-0.71269 0.75473,-1.40303 0.77444,-2.06521 -0.005,-0.556 -0.16502,-1.02391 -0.44589,-1.40809 -0.28087,-0.38415 -0.65349,-0.67947 -1.14994,-0.89178 -0.65948,-0.26241 -1.4822,-0.43007 -2.44068,-0.49284 -0.95851,-0.0627 -1.8829,-0.0808 -2.79272,-0.0704 z m 0.28161,0.56323 c 1.58206,0.0388 2.70807,0.34398 3.35598,0.93872 0.64787,0.59479 0.96073,1.23865 0.93871,1.9244 -0.0382,0.99115 -0.2839,1.73947 -0.75099,2.25294 -0.46708,0.51347 -0.92421,0.85709 -1.36115,1.00913 -0.40142,0.15756 -0.78824,0.25371 -1.17341,0.30509 -0.38518,0.0514 -0.7665,0.0745 -1.10301,0.0704 l 0,-0.63366 c 1.2e-4,-0.5092 0.016,-1.16106 0.0234,-1.97131 0.007,-0.81026 0.009,-1.58048 0.0234,-2.32335 0.0139,-0.74285 0.0282,-1.26534 0.047,-1.57237 z m 26.30785,0.44589 0.0234,0 c 0.11507,0.40002 0.2949,0.98346 0.53977,1.76011 0.24485,0.77671 0.49582,1.56892 0.75098,2.37028 0.25515,0.80142 0.46421,1.4268 0.61017,1.90095 l -3.89572,-0.0704 c 0.0719,-0.25035 0.23184,-0.74336 0.46936,-1.45503 0.23752,-0.71164 0.49366,-1.48588 0.77446,-2.32335 0.28078,-0.83745 0.5257,-1.55475 0.7275,-2.18253 z m -35.03801,18.58682 -5.56196,4.03653 -1.43157,7.41594 3.96614,8.04959 13.02483,-1.6897 0,-10.34947 -7.76796,-0.11731 -0.46936,5.28035 3.73144,-0.35203 -0.0938,0.86833 -4.83445,0.5867 -1.6897,-3.54369 1.59583,-3.80186 2.69884,-0.82139 1.80705,1.00913 4.48243,-2.53456 -2.62844,-3.56717 -6.82925,-0.46936 z m 34.82681,0.0939 -6.17215,3.89571 -1.22034,8.21386 8.26081,7.29861 10.34947,-2.69884 1.64277,-9.36379 -5.72624,-7.11088 -7.13432,-0.23467 z m 33.46564,0.0469 -0.98565,19.52554 6.12517,0 0,-3.70798 5.79667,-0.37549 4.67016,-4.50588 -0.37549,-7.76799 -4.59977,-3.1682 -10.63109,0 z m -46.91293,0.0234 -10.88923,0.84486 1.50197,18.56335 6.05478,0 -0.89177,-5.04567 5.93744,5.06912 5.70277,-2.46416 -4.85791,-4.2712 2.7223,-3.05087 -0.44589,-6.10173 -4.83446,-3.5437 z m 26.58947,0 0,14.73803 3.84879,4.74058 9.90357,0 4.69364,-5.30381 0,-12.76671 -8.04959,0 0.9622,9.48116 -3.28554,2.37028 0.39895,-13.25953 -8.47202,0 z m -30.81372,5.42116 3.02738,1.64277 -1.59583,2.29988 -1.59584,-0.21121 0.16429,-3.73144 z m 57.35626,0.53976 3.75489,0.79792 -2.20599,2.60497 -1.73664,-0.23469 0.18774,-3.1682 z m -38.13583,0.79792 3.28556,0.75098 0.11731,2.91006 -2.4407,0.89178 -2.29988,-1.5489 1.33769,-3.00392 z"
         style="fill:#eeeeee;fill-opacity:1;fill-rule:nonzero;stroke:none" />
      <g
         id="flowRoot3247"
         style="font-size:40px;font-style:normal;font-variant:normal;font-weight:bold;font-stretch:normal;line-height:125%;letter-spacing:0px;word-spacing:0px;fill:#333333;fill-opacity:1;stroke:none;font-family:Charlemagne Std;-inkscape-font-specification:Charlemagne Std Bold"
         transform="matrix(0.61733934,0,0,0.67308791,14.316924,161.54384)" />
      <g
         id="flowRoot3255"
         style="font-size:40px;font-style:normal;font-variant:normal;font-weight:bold;font-stretch:normal;line-height:125%;letter-spacing:0px;word-spacing:0px;fill:#333333;fill-opacity:1;stroke:none;font-family:Super Mario 256;-inkscape-font-specification:Super Mario 256 Bold"
         transform="matrix(0.87353711,0,0,0.87353711,-45.000517,159.15084)" />
    </g>
  </g>
</svg>
