<?xml version="1.0" encoding="UTF-8" standalone="no"?>
<!-- Created with Inkscape (http://www.inkscape.org/) -->

<svg
   xmlns:dc="http://purl.org/dc/elements/1.1/"
   xmlns:cc="http://creativecommons.org/ns#"
   xmlns:rdf="http://www.w3.org/1999/02/22-rdf-syntax-ns#"
   xmlns:svg="http://www.w3.org/2000/svg"
   xmlns="http://www.w3.org/2000/svg"
   xmlns:sodipodi="http://sodipodi.sourceforge.net/DTD/sodipodi-0.dtd"
   xmlns:inkscape="http://www.inkscape.org/namespaces/inkscape"
   width="343pt"
   height="340pt"
   id="svg3805"
   version="1.1"
   inkscape:version="0.48.4 r9939"
   sodipodi:docname="FSFTNCG.svg"
   inkscape:export-filename="C:\Users\SONY\Desktop\fscg7png.png"
   inkscape:export-xdpi="300"
   inkscape:export-ydpi="300">
  <defs
     id="defs3807" />
  <sodipodi:namedview
     pagecolor="#ffffff"
     bordercolor="#666666"
     borderopacity="1.0"
     inkscape:pageopacity="0.0"
     inkscape:pageshadow="2"
     inkscape:zoom="0.56568543"
     inkscape:cx="-34.811773"
     inkscape:cy="144.95165"
     inkscape:document-units="pt"
     inkscape:current-layer="layer1"
     id="namedview3809"
     showgrid="false"
     units="pt"
     borderlayer="true"
     inkscape:window-width="1366"
     inkscape:window-height="745"
     inkscape:window-x="-8"
     inkscape:window-y="-8"
     inkscape:window-maximized="1" />
  <metadata
     id="metadata3811">
    <rdf:RDF>
      <cc:Work
         rdf:about="">
        <dc:format>image/svg+xml</dc:format>
        <dc:type
           rdf:resource="http://purl.org/dc/dcmitype/StillImage" />
        <dc:title></dc:title>
      </cc:Work>
    </rdf:RDF>
  </metadata>
  <g
     inkscape:label="Layer 1"
     inkscape:groupmode="layer"
     id="layer1">
    <path
       style="fill:#333333;fill-opacity:1;stroke:none"
       d="m 222.6946,43.31055 c -22.77124,0.19955 -43.25314,11.0955 -56.33675,28.11465 -0.15477,0.12248 -0.29215,0.25157 -0.44768,0.37605 -1.06646,0.85351 -2.15602,1.7371 -3.25915,2.68612 -1.15072,2.20538 -2.15204,3.45125 -3.08008,4.13661 -1.51289,1.11727 -2.83748,0.77215 -4.27987,0.7163 4.79288,-8.50023 6.38642,-27.76275 -14.11105,-21.81124 -15.46299,4.55828 -27.68001,16.41044 -37.08627,5.04989 3.59973,16.5813 26.16975,5.75586 32.77058,5.90945 4.82663,1.75345 3.03608,6.28957 -0.91328,10.70864 -0.78458,-1.20069 -1.77941,-2.28458 -3.06217,-3.16962 -6.48676,-4.47554 -13.78672,6.64227 -24.24664,-2.11307 0,0 3.91867,5.78697 8.88208,7.2346 3.21769,0.93847 8.00604,-1.73815 9.09697,0.34024 1.91108,4.27583 -1.12311,5.46947 -3.09799,7.18087 -0.76446,0.35525 -1.46881,0.63499 -2.09517,0.80584 -16.63984,6.83304 -14.74083,44.99999 -7.37785,69.62405 12.81178,28.56134 33.16793,0.82758 28.36535,-1.96981 5.56728,1.34539 -0.33121,8.69111 -3.76056,12.39193 8.3213,-4.61348 13.57159,-18.64525 4.35151,-21.32774 4.5004,-6.24426 9.21776,-7.58303 13.62754,-6.37504 10.0648,25.19072 34.00362,43.58155 62.87296,45.14461 23.35096,1.26428 44.69353,-8.76449 58.73634,-25.32109 1.72708,-1.00869 3.36635,-2.17838 4.87082,-3.52777 1.85767,0.36153 3.36288,1.71022 3.88591,4.85292 -3.91282,-0.69769 -4.53202,5.48169 -2.29215,8.72091 -0.59267,-2.0025 -1.43483,-5.82366 0.87747,-5.3006 -2.29521,0.15598 0.15688,14.18832 10.1535,5.94527 7.2524,-7.78284 14.96431,-21.59357 10.04607,-27.18347 -0.20102,-0.17838 -0.40839,-0.40833 -0.62676,-0.68048 -0.41841,-0.99745 -1.33282,-2.00596 0.16116,-3.24124 0.78627,-0.57067 2.07227,1.29741 3.43823,1.54003 2.10702,0.37426 4.62011,-1.03863 4.62011,-1.03863 -5.48776,1.32751 -6.15542,-4.14033 -9.38348,-3.67102 -0.63836,0.0928 -1.20759,0.30753 -1.71912,0.60885 -0.65375,-2.36444 -0.48287,-4.37231 1.62958,-4.13661 2.47688,1.15495 8.87177,9.30447 13.25149,3.81428 -5.57522,2.48739 -7.94028,-4.1372 -12.83962,-8.66719 -6.51117,-5.97115 -9.45758,1.46431 -9.24023,5.49758 -0.54534,-0.24409 -1.09439,-0.36431 -1.4505,-1.05654 -0.21004,-0.40834 -0.34627,-1.02578 -0.37606,-1.98772 1.01678,-4.21299 1.67336,-8.57129 1.9161,-13.05451 2.14634,-39.64242 -28.24462,-73.51252 -67.88704,-75.65886 -1.537,-0.0832 -3.06621,-0.12075 -4.5843,-0.10744 z"
       id="path4076"
       inkscape:connector-curvature="0" />
    <path
       style="fill:#eeeeee;fill-opacity:1;fill-rule:nonzero;stroke:none"
       d="m 228.98011,62.18497 c -4.57827,0.63666 -8.3201,4.24502 -10.31468,8.14787 -2.78769,5.95564 -3.01901,13.02036 -0.60885,19.0535 -3.27152,-1.00889 -6.43933,-2.41367 -9.31186,-4.24406 2.98038,2.34208 6.26208,4.16951 9.74164,5.58712 1.65853,2.55346 3.42591,5.20534 5.89154,7.03761 -4.89979,-0.79603 -9.81699,-2.1062 -14.32594,-4.44104 4.4134,2.94997 9.53801,4.66074 14.64827,6.07062 1.73866,0.60643 3.77257,0.71336 5.40804,1.2177 2.39746,4.90628 3.57659,11.0363 0.57304,15.86598 -2.19839,3.90386 -6.95431,5.36911 -11.3354,5.39013 -0.80601,0.82358 2.96946,2.12686 4.19034,1.9161 3.97679,0.28822 8.02879,-1.57066 10.44003,-4.65593 4.42554,-5.24632 4.24835,-12.71632 1.73702,-18.74907 2.64579,-0.32033 4.33326,-3.71122 2.88309,-5.85573 -1.23911,-1.53086 -0.29994,-0.21127 -0.39396,0.60885 -0.0749,2.45918 -4.34447,4.01159 -4.5843,0.73421 -1.23844,-1.42842 -0.43096,-1.72918 1.1998,-1.73702 2.33105,-1.13811 3.11307,-4.92621 0.75211,-6.55412 0.82696,1.12303 0.24903,4.2994 -2.09517,4.20825 -2.93995,1.34601 -3.18238,-2.86148 -4.42313,-4.49477 -2.60876,-5.62242 -3.30786,-12.47997 -0.10745,-17.92533 0.99404,-2.25871 3.02,-4.01629 4.11871,-6.07061 -3.56053,0.52936 -6.1822,3.30854 -7.98671,5.98108 -4.11018,6.16681 -3.40753,14.26045 -0.4835,20.70098 1.86295,2.65483 -2.03508,0.62865 -3.25915,0.42977 -2.09219,-4.90781 -2.05515,-10.54524 -0.78793,-15.77643 1.28371,-3.69447 2.98207,-7.59455 6.21388,-10.17142 0.50029,-0.82206 4.75851,-2.38656 2.72192,-2.27424 -0.1011,0.002 -0.2967,0 -0.5014,0 z m -6.46458,30.24563 c 0.0472,-8.3e-4 0.0972,0.005 0.16116,0.0179 0.7131,-0.002 2.55587,1.01275 3.47404,1.11026 1.03337,1.32696 1.66284,3.06997 2.59658,4.60221 0.61784,0.61175 -0.69932,-0.011 -1.00282,0.19698 -2.54649,0.0118 -3.40173,-2.95647 -4.74546,-4.69175 -0.72297,-0.89298 -0.81421,-1.2298 -0.4835,-1.23561 z m -1.27143,8.63138 c -4.58384,0.1243 -8.82271,3.83563 -9.07906,8.34486 -0.65748,5.02339 3.68853,10.00989 8.98952,10.18932 4.69023,0.38696 9.1381,-2.90706 9.90281,-7.52112 1.16825,-4.9234 -2.67537,-10.23121 -7.87927,-10.92352 -0.61222,-0.0992 -1.87705,-0.0989 -1.934,-0.0895 z m 0.73421,0.91328 c 3.77183,0.18719 7.45918,3.03514 8.11206,6.82273 1.07012,4.70775 -2.83397,9.75852 -7.82555,9.88489 -3.6639,0.32497 -7.2697,-2.0157 -8.63137,-5.39013 -1.8822,-4.39649 0.91812,-9.84528 5.69456,-10.99516 0.81271,-0.20904 1.73306,-0.31774 2.6503,-0.32233 z m -0.30443,0.51931 c -4.48457,-0.0837 -8.11262,3.41981 -8.16579,7.82555 0.047,4.30277 3.64696,7.86495 8.12997,7.84345 4.48416,0.0838 8.11264,-3.41982 8.16579,-7.82555 -0.009,-0.92198 -0.22171,-1.83219 -0.53722,-2.65029 l -0.10745,-0.0179 c -0.61149,0.003 -0.69876,0.20836 -0.89537,0.82374 l -0.967,5.44386 -1.32515,-0.0895 -2.29215,-5.73038 -0.78793,3.99336 c 0.002,0.10224 0.0179,0.30963 0.0179,0.41187 0.009,0.30734 0.1991,0.40077 0.60885,0.50141 l 0.21489,0 -0.19698,0.82374 -2.86519,0.0179 0.10745,-0.82375 0.30442,0 c 0.50768,-0.10456 0.71071,-0.31633 0.80584,-0.93118 l 0.66257,-3.58149 c 0.10085,-0.1031 0.10899,-0.30964 0.10745,-0.41187 -0.005,-0.30738 -0.21749,-0.41869 -0.62676,-0.51931 l -0.19698,0.0179 0.19698,-0.82375 3.04426,-0.0179 1.6833,4.40522 0.4835,-2.6682 c 0.10063,-0.10334 0.0911,-0.30957 0.0895,-0.41187 -0.009,-0.30728 -0.2007,-0.41378 -0.60885,-0.41187 l -0.21489,-0.10745 0.19698,-0.80583 2.23843,-0.0179 c -1.35272,-2.55479 -4.11199,-4.27716 -7.27041,-4.26197 z m -6.87645,4.22615 6.30341,0.0716 0.53722,2.25634 -0.80583,0.21489 c -0.41893,-1.02253 -1.03937,-1.53208 -2.05935,-1.62958 l -0.85956,4.51267 c 0.002,0.10223 -0.003,0.29179 0,0.39397 0.005,0.30741 0.21692,0.41866 0.62676,0.51931 l 0.39396,0 -0.19698,0.82374 -4.17243,0.0179 0.19698,-0.93118 0.41188,0 c 0.61159,-0.003 0.69832,-0.20758 0.89537,-0.82375 l 0.87746,-4.51267 c -1.11964,0.10783 -1.72229,0.42704 -2.52495,1.55795 l -0.62676,-0.30443 1.00282,-2.1668 z m -17.58509,21.2203 -0.32233,0.0716 c -0.0256,0.12568 -0.0805,0.35233 -0.14326,0.68048 -0.0628,0.32818 -0.11431,0.56502 -0.16117,0.69839 -0.21874,-0.0707 -0.60918,-0.15684 -1.16398,-0.2507 -0.55482,-0.0938 -1.14751,-0.15216 -1.79074,-0.16117 -0.70899,-0.0141 -1.40919,0.0797 -2.09517,0.2507 -0.68599,0.17101 -1.40078,0.51281 -2.13098,1.03863 -0.63794,0.45739 -1.15725,1.0689 -1.57586,1.84447 -0.41861,0.77558 -0.64724,1.70888 -0.66257,2.77565 0.007,0.99896 0.27852,1.90039 0.78792,2.72193 0.50941,0.82154 1.22205,1.48245 2.1489,1.98772 0.60255,0.29827 1.22067,0.49076 1.84446,0.57304 0.62378,0.0823 1.0697,0.11773 1.36096,0.10744 1.11727,-0.0203 2.02186,-0.14311 2.70402,-0.35815 0.68215,-0.21502 1.10221,-0.40622 1.27143,-0.57303 l 0.19698,-0.66258 c -0.51207,0.3182 -1.05937,0.54108 -1.64748,0.66258 -0.58813,0.12149 -1.15378,0.18486 -1.70121,0.17907 -1.52556,-0.0434 -2.76717,-0.59163 -3.74265,-1.64748 -0.97547,-1.05585 -1.48941,-2.35619 -1.52213,-3.90382 0.0142,-1.23809 0.40319,-2.28911 1.14608,-3.1338 0.74288,-0.84467 1.76035,-1.27251 3.06217,-1.30724 0.92388,0.0322 1.69017,0.23207 2.29215,0.62676 0.60196,0.39471 0.96462,0.79243 1.11026,1.16398 0.0221,0.14979 0.0548,0.35742 0.0716,0.62676 0.0168,0.26936 0.017,0.47947 0.0179,0.64467 l 0.32234,0.10744 c 0.006,-0.73378 0.0412,-1.4947 0.0895,-2.29215 0.0483,-0.79742 0.12784,-1.6217 0.2328,-2.47122 z m 30.6396,0.2507 c 7e-4,0.64895 -0.0177,1.34651 -0.0716,2.11308 -0.0539,0.76659 -0.0909,1.36303 -0.12535,1.77283 l 0.32233,-0.0895 c 0.0419,-0.26195 0.0799,-0.52404 0.12535,-0.78793 0.0454,-0.26388 0.10516,-0.48547 0.16117,-0.66257 0.17835,-0.14174 0.53747,-0.28996 1.11026,-0.42978 0.57279,-0.13981 1.42351,-0.22218 2.54285,-0.2328 0.0142,0.13724 0.0252,0.4433 0.0358,0.89537 0.0106,0.45209 0.03,0.94682 0.0358,1.48632 0.006,0.53951 -1.1e-4,0.99728 0,1.39678 l 0,0.69839 c -9e-5,0.46446 0.006,1.0297 0,1.68329 -0.006,0.6536 -0.0253,1.29584 -0.0358,1.93401 -0.0106,0.63816 -0.0216,1.17558 -0.0358,1.59376 -0.20371,0.0273 -0.5097,0.0589 -0.91327,0.10744 -0.40358,0.0485 -0.69875,0.0878 -0.89538,0.10744 l -0.0716,0.32234 c 0.15129,-0.0105 0.40168,-0.0265 0.75212,-0.0358 0.35043,-0.009 0.71675,-0.012 1.09235,-0.0179 0.37559,-0.006 0.66861,-0.0177 0.89537,-0.0179 0.43482,7.7e-4 0.95862,0.006 1.55795,0.0179 0.59931,0.0122 1.0022,0.0376 1.2177,0.0537 l -0.0537,-0.32234 c -0.17689,-0.0196 -0.4817,-0.0589 -0.91328,-0.10744 -0.43158,-0.0485 -0.73641,-0.0801 -0.91328,-0.10744 -0.0143,-0.42761 -0.0252,-0.95817 -0.0358,-1.59376 -0.0106,-0.6356 -0.0121,-1.28469 -0.0179,-1.93401 -0.006,-0.6493 -0.0178,-1.21454 -0.0179,-1.68329 l 0,-0.69839 c 8e-5,-0.38865 0.0122,-0.84679 0.0179,-1.37887 0.006,-0.53207 0.007,-1.01347 0.0179,-1.46841 0.0106,-0.45493 0.0216,-0.77395 0.0358,-0.93119 0.73226,0.008 1.48492,0.0838 2.23843,0.21489 0.75349,0.13115 1.22762,0.2857 1.4505,0.44769 0.007,0.17614 0.0235,0.39635 0.0179,0.68048 -0.006,0.28413 -0.0214,0.58039 -0.0358,0.89537 l 0.32234,0.10744 c 0.0174,-0.18827 0.0645,-0.57971 0.12535,-1.16398 0.0609,-0.58425 0.11347,-1.16474 0.17907,-1.73702 0.0656,-0.57225 0.11172,-0.94006 0.14326,-1.09235 l -0.34024,0.0716 c -0.0295,0.15654 -0.0709,0.33001 -0.10744,0.51931 -0.0366,0.18933 -0.0601,0.32726 -0.0895,0.42978 -0.0916,0.0165 -0.38912,0.0299 -0.87746,0.0537 -0.48836,0.0239 -1.08167,0.0529 -1.77284,0.0716 -0.69118,0.0188 -1.37718,0.0348 -2.07726,0.0358 -0.65362,-0.001 -1.31891,-0.0171 -1.98772,-0.0358 -0.66882,-0.0187 -1.25531,-0.0477 -1.73702,-0.0716 -0.48172,-0.0239 -0.76724,-0.0372 -0.85956,-0.0537 -0.0212,-0.17096 -0.0396,-0.34308 -0.0537,-0.53722 -0.0142,-0.19412 -0.0108,-0.3563 -0.0179,-0.46559 l -0.34024,-0.0537 z m -11.63982,0.14326 -0.32234,0.0716 c -0.0145,0.14015 -0.034,0.26927 -0.0537,0.39397 -0.0197,0.12471 -0.0322,0.22848 -0.0537,0.32233 -0.16326,0.0353 -0.54418,0.0563 -1.14608,0.0716 -0.6019,0.0154 -1.21679,0.0325 -1.82655,0.0358 -0.60977,0.003 -0.99506,6.6e-4 -1.18189,0 -0.1589,-7.7e-4 -0.35578,0.005 -0.57304,0 -0.21727,-0.004 -0.44376,-0.0172 -0.68048,-0.0179 -0.23614,-0.008 -0.46027,-0.0102 -0.68049,-0.0179 -0.22021,-0.008 -0.41849,-0.0102 -0.59094,-0.0179 l 0.0537,0.32234 c 0.19309,0.0254 0.45488,0.0647 0.77002,0.10744 0.31514,0.0428 0.54067,0.0743 0.69839,0.10744 0.019,0.1782 0.0389,0.51628 0.0537,1.02073 0.0149,0.50446 0.0273,1.0598 0.0358,1.66539 0.009,0.6056 0.0177,1.14798 0.0179,1.62957 l 0,0.7163 c -1.7e-4,0.58855 -0.009,1.22889 -0.0179,1.934 -0.009,0.70512 -0.021,1.33287 -0.0358,1.88028 -0.0149,0.54741 -0.0347,0.88739 -0.0537,1.00282 -0.21373,0.0553 -0.47692,0.1034 -0.78793,0.14326 -0.31101,0.0399 -0.52667,0.0626 -0.66257,0.0716 l -0.0716,0.32234 c 0.30098,-0.0161 0.67661,-0.0415 1.11026,-0.0537 0.43364,-0.0122 0.77302,-0.0173 1.03863,-0.0179 0.3279,2.9e-4 0.8071,0.006 1.4505,0.0179 0.64339,0.0123 1.27242,0.0328 1.86237,0.0537 0.58993,0.0209 0.96063,0.0456 1.12817,0.0716 0.007,0.12117 0.0164,0.26177 0.0179,0.41187 0.001,0.1501 3.5e-4,0.33119 0,0.53722 l 0.30442,0.0537 c 0.0218,-0.27856 0.0643,-0.66428 0.12536,-1.16398 0.061,-0.49969 0.11329,-0.9868 0.17907,-1.4505 0.0658,-0.4637 0.12526,-0.77853 0.16117,-0.94909 l -0.34024,0.0895 c -0.0404,0.17132 -0.0797,0.37776 -0.12536,0.60886 -0.0457,0.2311 -0.10331,0.48052 -0.17907,0.75211 -0.33785,0.19735 -0.81154,0.33409 -1.41469,0.41187 -0.60315,0.0778 -1.26784,0.11066 -1.98772,0.10744 -0.0146,-0.18209 -0.0207,-0.58534 -0.0358,-1.2177 -0.0151,-0.63235 -0.0254,-1.2826 -0.0358,-1.96982 -0.0104,-0.6872 -0.0175,-1.21128 -0.0179,-1.55794 l 0,-0.30443 c 0.61995,-0.001 1.17102,0.0189 1.66539,0.0716 0.49437,0.0527 0.86152,0.14648 1.09236,0.26861 -3e-4,0.15782 0.006,0.31853 0,0.50141 -0.006,0.18289 -0.0285,0.35379 -0.0358,0.51931 l 0.26861,0.12536 c 0.026,-0.18589 0.0731,-0.47748 0.12535,-0.89537 0.0522,-0.41789 0.0942,-0.82381 0.14326,-1.21771 0.0491,-0.39388 0.0908,-0.65611 0.10745,-0.77002 l -0.30443,0.0358 c -0.026,0.21342 -0.0749,0.43373 -0.14326,0.66257 -0.19457,0.071 -0.56571,0.13312 -1.12817,0.17908 -0.56247,0.046 -1.15752,0.07 -1.79074,0.0716 l 0,-0.30442 c 3.6e-4,-0.33322 0.008,-0.8188 0.0179,-1.43259 0.0104,-0.61378 0.0207,-1.18246 0.0358,-1.71912 0.0151,-0.53664 0.0212,-0.86518 0.0358,-0.967 0.27068,-2.7e-4 0.64619,0.0256 1.11026,0.0716 0.46407,0.046 0.89819,0.11919 1.30724,0.21489 0.40904,0.0957 0.66442,0.22722 0.77002,0.37606 0.006,0.17453 0.0206,0.38088 0.0179,0.62676 -0.003,0.24589 -0.017,0.40925 -0.0179,0.4835 l 0.32233,0.10744 c 0.0111,-0.18398 0.0359,-0.5053 0.0716,-0.967 0.0357,-0.46169 0.067,-0.9164 0.10745,-1.36096 0.0404,-0.44455 0.0643,-0.74489 0.0895,-0.87747 z m 46.43394,0 -0.32233,0.0716 c -0.0145,0.14015 -0.034,0.26927 -0.0537,0.39397 -0.0197,0.12471 -0.0322,0.22848 -0.0537,0.32233 -0.16326,0.0353 -0.54417,0.0563 -1.14607,0.0716 -0.60191,0.0154 -1.2168,0.0325 -1.82656,0.0358 -0.60977,0.003 -1.01296,6.6e-4 -1.1998,0 -0.1589,-7.7e-4 -0.33787,0.005 -0.55513,0 -0.21727,-0.004 -0.44376,-0.0172 -0.68048,-0.0179 -0.23613,-0.008 -0.46027,-0.0102 -0.68048,-0.0179 -0.22021,-0.008 -0.41849,-0.0102 -0.59095,-0.0179 -0.16147,0.0135 -0.33608,0.0253 -0.57303,0.0358 -0.27388,0.0122 -0.57752,0.0173 -0.91328,0.0179 -0.45134,-7.7e-4 -0.88577,-0.006 -1.28934,-0.0179 -0.40358,-0.0122 -0.66913,-0.0197 -0.78792,-0.0358 l 0.0716,0.32234 c 0.23553,0.0389 0.48981,0.0705 0.7342,0.10744 0.24438,0.037 0.42946,0.0763 0.57304,0.10744 -0.0825,0.43288 -0.2763,1.05491 -0.57304,1.86238 -0.29676,0.80749 -0.63289,1.64908 -1.00282,2.54285 -0.36993,0.89378 -0.70076,1.68992 -1.00281,2.38169 -0.30206,0.69177 -0.49783,1.14161 -0.59095,1.34305 -0.10521,-0.15781 -0.31815,-0.61798 -0.64466,-1.39678 -0.32653,-0.77878 -0.68536,-1.66322 -1.07445,-2.65029 -0.3891,-0.98707 -0.72781,-1.88556 -1.02072,-2.66821 -0.29292,-0.78264 -0.46342,-1.24915 -0.50141,-1.41469 0.14209,-0.0476 0.35754,-0.0855 0.64467,-0.12535 0.28712,-0.0399 0.51009,-0.0728 0.68048,-0.0895 l 0.0716,-0.32234 c -0.18337,0.0161 -0.51169,0.0236 -1.00282,0.0358 -0.49112,0.0122 -0.96623,0.0173 -1.43259,0.0179 -0.40328,-7.7e-4 -0.78524,-0.006 -1.14607,-0.0179 -0.36084,-0.0122 -0.6619,-0.0197 -0.89538,-0.0358 l 0.0537,0.32234 c 0.22315,0.0389 0.40073,0.0705 0.53722,0.10744 0.13649,0.037 0.25151,0.0763 0.34024,0.10744 0.18944,0.30463 0.52064,0.98617 0.98491,2.04145 0.46426,1.05529 0.95837,2.22997 1.50422,3.52776 0.54585,1.29781 1.03421,2.45981 1.46841,3.49195 0.43419,1.03215 0.73024,1.67566 0.85956,1.934 0.0484,-0.12536 0.24022,-0.55538 0.57303,-1.30724 0.33281,-0.75185 0.72254,-1.66299 1.1998,-2.72193 0.47725,-1.05893 0.96871,-2.10511 1.4505,-3.15171 0.48178,-1.04658 0.88921,-1.93546 1.23561,-2.65029 0.34639,-0.71483 0.55566,-1.10033 0.62676,-1.16399 0.18012,-0.0456 0.33323,-0.0913 0.4656,-0.12535 0.13235,-0.0341 0.26335,-0.0593 0.39396,-0.0895 l 0.0179,-0.0895 0.0179,0.0895 c 0.19309,0.0254 0.45488,0.0647 0.77001,0.10744 0.31514,0.0428 0.54068,0.0743 0.69839,0.10744 0.019,0.1782 0.0389,0.51628 0.0537,1.02073 0.0148,0.50446 0.0273,1.0598 0.0358,1.66539 0.009,0.6056 0.0177,1.14798 0.0179,1.62957 l 0,0.7163 c -1.8e-4,0.58855 -0.009,1.22889 -0.0179,1.934 -0.009,0.70512 -0.021,1.33287 -0.0358,1.88028 -0.0149,0.54741 -0.0347,0.88739 -0.0537,1.00282 -0.21372,0.0553 -0.47692,0.1034 -0.78792,0.14326 -0.31101,0.0399 -0.52668,0.0626 -0.66258,0.0716 l -0.0716,0.32234 c 0.30099,-0.0161 0.65871,-0.0415 1.09236,-0.0537 0.43364,-0.0122 0.79092,-0.0173 1.05653,-0.0179 0.3279,2.9e-4 0.8071,0.006 1.4505,0.0179 0.64339,0.0123 1.27243,0.0328 1.86238,0.0537 0.58993,0.0209 0.96063,0.0456 1.12816,0.0716 0.007,0.12117 0.0164,0.26177 0.0179,0.41187 10e-4,0.1501 3.6e-4,0.33119 0,0.53722 l 0.28652,0.0537 c 0.0218,-0.27856 0.0643,-0.66428 0.12535,-1.16398 0.061,-0.49969 0.1312,-0.9868 0.19698,-1.4505 0.0658,-0.4637 0.10736,-0.77853 0.14326,-0.94909 l -0.32233,0.0895 c -0.0404,0.17132 -0.0797,0.37776 -0.12535,0.60886 -0.0457,0.2311 -0.10332,0.48052 -0.17908,0.75211 -0.33784,0.19735 -0.81154,0.33409 -1.41468,0.41187 -0.60316,0.0778 -1.26784,0.11066 -1.98773,0.10744 -0.0146,-0.18209 -0.0207,-0.58534 -0.0358,-1.2177 -0.0151,-0.63235 -0.0254,-1.2826 -0.0358,-1.96982 -0.0104,-0.6872 -0.0175,-1.21128 -0.0179,-1.55794 l 0,-0.30443 c 0.61995,-10e-4 1.17101,0.0189 1.66539,0.0716 0.49436,0.0527 0.86152,0.14648 1.09235,0.26861 -3e-4,0.15782 -0.0122,0.31853 -0.0179,0.50141 -0.006,0.18289 -0.0105,0.35379 -0.0179,0.51931 l 0.26862,0.12536 c 0.026,-0.18589 0.0731,-0.47748 0.12535,-0.89537 0.0522,-0.41789 0.0942,-0.82381 0.14326,-1.21771 0.0491,-0.39388 0.0908,-0.65611 0.10744,-0.77002 l -0.30442,0.0358 c -0.026,0.21342 -0.0749,0.43373 -0.14326,0.66257 -0.19458,0.071 -0.56571,0.13312 -1.12817,0.17908 -0.56248,0.046 -1.15753,0.07 -1.79074,0.0716 l 0,-0.30442 c 3.5e-4,-0.33322 0.007,-0.8188 0.0179,-1.43259 0.0104,-0.61378 0.0207,-1.18246 0.0358,-1.71912 0.0151,-0.53664 0.0212,-0.86518 0.0358,-0.967 0.27068,-2.7e-4 0.64619,0.0256 1.11026,0.0716 0.46407,0.046 0.89819,0.11919 1.30725,0.21489 0.40903,0.0957 0.66441,0.22722 0.77001,0.37606 0.006,0.17453 0.003,0.38088 0,0.62676 -0.003,0.24589 8.9e-4,0.40925 0,0.4835 l 0.30443,0.10744 c 0.0111,-0.18398 0.0359,-0.5053 0.0716,-0.967 0.0357,-0.46169 0.0849,-0.9164 0.12535,-1.36096 0.0404,-0.44455 0.0643,-0.74489 0.0895,-0.87747 z m -42.33315,0.84165 0,0.32234 c 0.1757,0.0228 0.36904,0.0571 0.57304,0.0895 0.204,0.0325 0.39358,0.0615 0.55513,0.10745 -0.0624,0.18575 -0.26041,0.73253 -0.57303,1.64748 -0.31264,0.91496 -0.66542,1.95971 -1.07445,3.1338 -0.40903,1.17409 -0.79453,2.24227 -1.14608,3.20543 -0.35154,0.96316 -0.59403,1.59811 -0.7342,1.88028 -0.19221,0.0466 -0.38459,0.0884 -0.59094,0.12535 -0.20636,0.037 -0.42041,0.0661 -0.62676,0.0895 l -0.0358,0.32234 c 0.18779,-0.0161 0.45709,-0.0415 0.80583,-0.0537 0.34875,-0.0122 0.61474,-0.0173 0.82375,-0.0179 0.24114,7.7e-4 0.59252,0.006 1.05653,0.0179 0.46401,0.0122 0.83706,0.0376 1.09236,0.0537 l -0.0537,-0.32234 c -0.20193,-0.0225 -0.41244,-0.0555 -0.62676,-0.0895 -0.21431,-0.0341 -0.41023,-0.072 -0.59094,-0.12535 0.0552,-0.42332 0.14117,-0.96836 0.28652,-1.61167 0.14534,-0.64331 0.29072,-1.21961 0.42978,-1.75493 0.13905,-0.53531 0.23227,-0.86766 0.26861,-0.967 0.196,-0.0316 0.51629,-0.0591 0.967,-0.0895 0.4507,-0.0305 0.89548,-0.0514 1.34306,-0.0716 0.44756,-0.0202 0.76251,-0.035 0.94909,-0.0358 0.0849,0.18181 0.22853,0.58659 0.42978,1.1998 0.20124,0.61321 0.40445,1.24554 0.60885,1.89818 0.20438,0.65265 0.35335,1.13251 0.44768,1.4326 -0.22051,0.0533 -0.43875,0.0913 -0.68048,0.12535 -0.24173,0.0341 -0.48541,0.067 -0.7342,0.0895 l -0.0716,0.32234 c 0.1422,-0.0105 0.37485,-0.0265 0.69839,-0.0358 0.32353,-0.009 0.64032,-0.012 0.967,-0.0179 0.32666,-0.006 0.56465,-0.0177 0.7163,-0.0179 0.41535,7.7e-4 0.88411,0.006 1.39677,0.0179 0.51264,0.0122 0.8238,0.0376 0.9491,0.0537 l -0.0358,-0.32234 c -0.21196,-0.0302 -0.42011,-0.0734 -0.62676,-0.10744 -0.20666,-0.0341 -0.42188,-0.0618 -0.62676,-0.10744 -0.22134,-0.46885 -0.45295,-1.0379 -0.69839,-1.6833 -0.24544,-0.6454 -0.46334,-1.27164 -0.68048,-1.89819 -0.21715,-0.62655 -0.40079,-1.14567 -0.53722,-1.55794 -0.18448,-0.55569 -0.38446,-1.15105 -0.59095,-1.79075 -0.20649,-0.63968 -0.38952,-1.2377 -0.55513,-1.77283 -0.16561,-0.53511 -0.27841,-0.92198 -0.34024,-1.16398 0.1642,-0.046 0.33565,-0.075 0.51932,-0.10745 0.18365,-0.0324 0.36969,-0.0667 0.55513,-0.0895 l 0.0358,-0.32234 c -0.2432,0.0161 -0.61081,0.0236 -1.12816,0.0358 -0.51738,0.0122 -0.95416,0.0173 -1.28934,0.0179 -0.15536,-7.7e-4 -0.42982,-0.006 -0.84165,-0.0179 -0.41183,-0.0122 -0.73758,-0.0197 -0.98491,-0.0358 z m 18.44465,0 0.0716,0.32234 c 0.16184,0.0187 0.40432,0.0439 0.7342,0.0895 0.32988,0.0457 0.58319,0.0913 0.75211,0.12535 0.0187,0.2041 0.0255,0.57497 0.0358,1.12817 0.0103,0.55323 0.0318,1.1139 0.0358,1.66539 0.004,0.55151 1.8e-4,0.92923 0,1.12817 l 0,0.91328 c 1.8e-4,0.52589 0.004,1.13383 0,1.82655 -0.004,0.69274 -0.0255,1.33727 -0.0358,1.93401 -0.0103,0.59674 -0.0171,1.01562 -0.0358,1.25352 -0.17747,0.035 -0.43336,0.0768 -0.77001,0.12535 -0.33666,0.0485 -0.58504,0.0776 -0.73421,0.0895 l -0.0537,0.32234 c 0.24763,-0.0161 0.60041,-0.0415 1.07444,-0.0537 0.47403,-0.0122 0.85224,-0.0173 1.12817,-0.0179 0.47521,7.7e-4 0.987,0.006 1.54004,0.0179 0.55303,0.0122 0.93595,0.0376 1.12817,0.0537 l -0.0716,-0.32234 c -0.16362,-0.0167 -0.40235,-0.0497 -0.7163,-0.0895 -0.31396,-0.0399 -0.57103,-0.0778 -0.77002,-0.12535 -0.0187,-0.12038 -0.0434,-0.44779 -0.0537,-0.967 -0.0103,-0.51922 -0.0139,-1.13668 -0.0179,-1.84447 -0.004,-0.70778 -1.8e-4,-1.40909 0,-2.09517 l 0,-0.94909 c -7e-4,-0.97742 0.008,-1.84477 0.0179,-2.59658 0.01,-0.75178 0.026,-1.21389 0.0537,-1.39678 0.26708,-0.0341 0.53897,-0.0797 0.82374,-0.12535 0.28477,-0.0456 0.50869,-0.0709 0.66258,-0.0895 l 0.0716,-0.32234 c -0.15093,0.0161 -0.45812,0.0236 -0.91328,0.0358 -0.45517,0.0122 -0.87994,0.0173 -1.27143,0.0179 -0.58428,-7.7e-4 -1.14124,-0.006 -1.66539,-0.0179 -0.52414,-0.0122 -0.86094,-0.0197 -1.02072,-0.0358 z m -37.19372,0.0179 -3.06216,0.0179 0.0358,0.32233 c 0.18425,0.0174 0.44979,0.035 0.78793,0.0716 0.33812,0.0366 0.58533,0.0747 0.7342,0.10744 0.0187,0.12906 0.0255,0.45076 0.0358,0.98491 0.0103,0.53418 0.0318,1.08418 0.0358,1.64749 0.004,0.56331 1.8e-4,0.96543 0,1.18188 l 0,0.93119 c 1.7e-4,0.56455 0.004,1.2228 0,1.95191 -0.004,0.72912 -0.0255,1.38889 -0.0358,1.98772 -0.0103,0.59884 -0.0171,0.99028 -0.0358,1.16399 -0.22345,0.0553 -0.4977,0.1034 -0.82374,0.14326 -0.32605,0.0399 -0.55608,0.0626 -0.68048,0.0716 l -0.0537,0.32234 c 0.20576,-0.0161 0.58257,-0.0415 1.11026,-0.0537 0.52768,-0.0122 0.95621,-0.0173 1.28933,-0.0179 0.36407,7.7e-4 0.80365,0.006 1.32515,0.0179 0.52149,0.0122 0.89476,0.0376 1.11026,0.0537 l -0.0716,-0.32234 c -0.18307,-0.0177 -0.44015,-0.0468 -0.77002,-0.0895 -0.32988,-0.0427 -0.56861,-0.0845 -0.7163,-0.12535 -0.0142,-0.25533 -0.0252,-0.65096 -0.0358,-1.16399 -0.0106,-0.51302 -0.0121,-1.03025 -0.0179,-1.57585 -0.006,-0.54559 -0.0178,-1.00793 -0.0179,-1.36096 l 0,-0.39397 c 0.12823,-7.7e-4 0.32276,-0.0175 0.57304,-0.0358 0.25028,-0.0183 0.51111,-0.0296 0.78793,-0.0537 0.073,0.10354 0.31758,0.41134 0.7342,0.93118 0.41662,0.51986 0.90542,1.10714 1.46841,1.77284 0.56298,0.66569 1.09953,1.26758 1.61167,1.80865 0.51212,0.54106 0.89991,0.89266 1.16398,1.03863 l 0.62676,-0.10745 c -0.50863,-0.60274 -1.05021,-1.35474 -1.62957,-2.25633 -0.57939,-0.90159 -1.08899,-1.73325 -1.52214,-2.48913 -0.43315,-0.75588 -0.68215,-1.21326 -0.75211,-1.37888 0.55981,-0.35098 1.03705,-0.79921 1.41469,-1.34305 0.37763,-0.54383 0.5759,-1.07058 0.59094,-1.57586 -0.004,-0.42426 -0.12593,-0.7813 -0.34024,-1.07444 -0.21432,-0.29313 -0.49865,-0.51848 -0.87746,-0.68048 -0.50322,-0.20023 -1.13099,-0.32816 -1.86237,-0.37606 -0.73139,-0.0479 -1.43674,-0.0617 -2.13099,-0.0537 z m 0.21489,0.42978 c 1.20718,0.0296 2.06639,0.26247 2.56077,0.71629 0.49436,0.45386 0.73309,0.94515 0.71629,1.46841 -0.0292,0.7563 -0.21663,1.32731 -0.57304,1.71911 -0.35641,0.39181 -0.70522,0.654 -1.03863,0.77002 -0.3063,0.12022 -0.60146,0.19359 -0.89537,0.2328 -0.29391,0.0392 -0.58488,0.0569 -0.84165,0.0537 l 0,-0.4835 c 9e-5,-0.38855 0.0122,-0.88595 0.0179,-1.50422 0.006,-0.61826 0.007,-1.20599 0.0179,-1.77284 0.0106,-0.56682 0.0216,-0.96551 0.0358,-1.19979 z m 20.07422,0.34024 0.0179,0 c 0.0878,0.30523 0.22503,0.75042 0.41187,1.34305 0.18683,0.59266 0.37834,1.19716 0.57304,1.80865 0.19469,0.61151 0.35422,1.08871 0.46559,1.45051 l -2.97263,-0.0537 c 0.0549,-0.19103 0.1769,-0.56722 0.35815,-1.11026 0.18124,-0.54302 0.37668,-1.1338 0.59094,-1.77283 0.21426,-0.63902 0.40114,-1.18636 0.55513,-1.66539 z m -26.73578,14.18268 -4.24406,3.08007 -1.09235,5.65875 3.02636,6.14224 9.93861,-1.28933 0,-7.89717 -5.92735,-0.0895 -0.35815,4.02917 2.84728,-0.26861 -0.0716,0.66257 -3.68893,0.44769 -1.28933,-2.70402 1.2177,-2.90101 2.05935,-0.62676 1.37888,0.77002 3.42031,-1.934 -2.00563,-2.72193 -5.21106,-0.35814 z m 26.57462,0.0716 -4.70966,2.97263 -0.93118,6.26759 6.30341,5.56921 7.89717,-2.05935 1.25352,-7.14506 -4.36941,-5.42595 -5.44385,-0.17907 z m 25.53598,0.0358 -0.75211,14.89897 4.67383,0 0,-2.82937 4.42314,-0.28652 3.56357,-3.43822 -0.28651,-5.92736 -3.50986,-2.4175 -8.11206,0 z m -35.79694,0.0179 -8.30904,0.64466 1.14608,14.16478 4.62011,0 -0.68048,-3.8501 4.53058,3.868 4.3515,-1.88028 -3.70684,-3.25915 2.07726,-2.32796 -0.34024,-4.65593 -3.68893,-2.70402 z m 20.28911,0 0,11.24586 2.93682,3.6173 7.55693,0 3.58149,-4.04708 0,-9.74164 -6.14225,0 0.7342,7.2346 -2.50703,1.80865 0.30442,-10.11769 -6.46458,0 z m -23.51244,4.13661 2.31006,1.25352 -1.21771,1.75493 -1.2177,-0.16117 0.12535,-2.84728 z m 43.76574,0.41187 2.86518,0.60886 -1.68329,1.98772 -1.32515,-0.17908 0.14326,-2.4175 z m -29.09956,0.60886 2.50704,0.57303 0.0895,2.22052 -1.86237,0.68048 -1.75493,-1.18189 1.02073,-2.29214 z"
       id="path4064"
       inkscape:connector-curvature="0" />
    <g
       transform="matrix(0.61733934,0,0,0.67308791,14.316924,161.54384)"
       style="font-size:40px;font-style:normal;font-variant:normal;font-weight:bold;font-stretch:normal;line-height:125%;letter-spacing:0px;word-spacing:0px;fill:#333333;fill-opacity:1;stroke:none;font-family:Charlemagne Std;-inkscape-font-specification:Charlemagne Std Bold"
       id="flowRoot3247" />
    <g
       transform="matrix(0.87353711,0,0,0.87353711,-45.000517,159.15084)"
       style="font-size:40px;font-style:normal;font-variant:normal;font-weight:bold;font-stretch:normal;line-height:125%;letter-spacing:0px;word-spacing:0px;fill:#333333;fill-opacity:1;stroke:none;font-family:Super Mario 256;-inkscape-font-specification:Super Mario 256 Bold"
       id="flowRoot3255" />
    <path
       id="path4414"
       d="m 114.90721,237.49782 c -6.2514,0.86933 -11.36068,5.79637 -14.08417,11.12552 -3.80646,8.13213 -4.12232,17.77866 -0.83136,26.01661 -4.4671,-1.37759 -8.79259,-3.29574 -12.71488,-5.79505 4.06956,3.19799 8.55055,5.69325 13.30172,7.62893 2.26465,3.48663 4.67792,7.10763 8.04461,9.60952 -6.69043,-1.08695 -13.40461,-2.87592 -19.56136,-6.06403 6.02627,4.02803 13.02367,6.36401 20.00149,8.28913 2.37404,0.82805 5.15125,0.97405 7.38441,1.66272 3.27361,6.69928 4.88365,15.06951 0.78245,21.6642 -3.00179,5.33052 -9.49577,7.33126 -15.47792,7.35996 -1.10057,1.12456 4.05464,2.90411 5.7217,2.61633 5.43011,0.39355 10.96292,-2.14466 14.25534,-6.35744 6.04286,-7.16359 5.80091,-17.36351 2.37181,-25.60093 3.6127,-0.43739 5.91685,-5.06748 3.93672,-7.9957 -1.69194,-2.09031 -0.40955,-0.28848 -0.53793,0.83136 -0.10224,3.35788 -5.93216,5.47761 -6.25964,1.00252 -1.69103,-1.95044 -0.58845,-2.36111 1.63827,-2.37182 3.18293,-1.55402 4.25074,-6.72649 1.02697,-8.94932 1.12917,1.53344 0.34004,5.87061 -2.86085,5.74615 -4.01435,1.83792 -4.34538,-3.90721 -6.03957,-6.13738 -3.56213,-7.67714 -4.51671,-17.04079 -0.14671,-24.47615 1.35731,-3.08416 4.12365,-5.48405 5.62389,-8.28912 -4.86172,0.72281 -8.44148,4.51765 -10.90546,8.16686 -5.61224,8.42049 -4.65281,19.47195 -0.66019,28.26617 2.54376,3.62505 -2.7788,0.85839 -4.45021,0.58684 -2.85678,-6.70138 -2.8062,-14.39901 -1.07588,-21.54195 1.75285,-5.04461 4.07186,-10.36997 8.48474,-13.88856 0.68312,-1.12249 6.49752,-3.25873 3.71666,-3.10537 -0.13805,0.002 -0.40513,0 -0.68465,0 z m -8.82706,41.29892 c 0.0645,-7.8e-4 0.13277,0.007 0.22007,0.0244 0.97369,-0.002 3.4899,1.38286 4.74363,1.516 1.411,1.8119 2.27052,4.19189 3.54549,6.28409 0.84364,0.83532 -0.95489,-0.0149 -1.36929,0.26897 -3.47711,0.0161 -4.6449,-4.03692 -6.4797,-6.40635 -0.98718,-1.21933 -1.11176,-1.67924 -0.6602,-1.68716 z m -1.73607,11.78572 c -6.25901,0.16972 -12.04697,5.23736 -12.39701,11.39449 -0.89775,6.85919 5.03651,13.668 12.27475,13.91301 6.40427,0.52837 12.47761,-3.96944 13.52179,-10.26971 1.59519,-6.72267 -3.65308,-13.97021 -10.75875,-14.91553 -0.83596,-0.13542 -2.56302,-0.13506 -2.64078,-0.12226 z m 1.00252,1.24703 c 5.15025,0.25561 10.18515,4.14434 11.07662,9.3161 1.4612,6.42821 -3.86964,13.32478 -10.68539,13.49734 -5.00288,0.44372 -9.92643,-2.75235 -11.78572,-7.35996 -2.57004,-6.0032 1.25365,-13.44325 7.77564,-15.01335 1.10972,-0.28543 2.36641,-0.43386 3.61885,-0.44013 z m -0.41568,0.7091 c -6.12346,-0.11424 -11.07738,4.66957 -11.14997,10.6854 0.0642,5.87522 4.97974,10.7392 11.10107,10.70984 6.12289,0.11436 11.0774,-4.66959 11.14997,-10.68539 -0.0117,-1.25893 -0.30273,-2.50177 -0.73355,-3.61885 l -0.14671,-0.0244 c -0.83496,0.005 -0.95412,0.2845 -1.22258,1.12477 l -1.3204,7.43332 -1.80942,-0.12226 -3.12982,-7.82454 -1.07587,5.45273 c 0.002,0.1396 0.0244,0.42279 0.0244,0.56239 0.0117,0.41966 0.27185,0.54723 0.83136,0.68464 l 0.29342,0 -0.26897,1.12478 -3.91227,0.0244 0.14671,-1.12478 0.41568,0 c 0.6932,-0.14277 0.97043,-0.43194 1.10032,-1.27149 l 0.90471,-4.89034 c 0.1377,-0.14078 0.14882,-0.42279 0.14672,-0.56238 -0.007,-0.41972 -0.29698,-0.5717 -0.85581,-0.7091 l -0.26897,0.0244 0.26897,-1.12478 4.15678,-0.0244 2.29846,6.01512 0.6602,-3.64331 c 0.13741,-0.1411 0.12438,-0.42269 0.12226,-0.56239 -0.0117,-0.41957 -0.27406,-0.56499 -0.83136,-0.56239 l -0.29342,-0.14671 0.26897,-1.10032 3.05646,-0.0244 c -1.84707,-3.48844 -5.61473,-5.84025 -9.92739,-5.81951 z m -9.38945,5.7706 8.607,0.0978 0.73355,3.08092 -1.10033,0.29342 c -0.57203,-1.39621 -1.41921,-2.09198 -2.81194,-2.22511 l -1.17369,6.16183 c 0.002,0.13959 -0.004,0.39843 0,0.53794 0.007,0.41976 0.29619,0.57166 0.85581,0.7091 l 0.53794,0 -0.26897,1.12478 -5.69724,0.0244 0.26897,-1.27149 0.56238,0 c 0.83511,-0.005 0.95353,-0.28343 1.22259,-1.12478 l 1.19813,-6.16183 c -1.5288,0.14723 -2.3517,0.5831 -3.44769,2.1273 l -0.85581,-0.41568 1.3693,-2.95865 z m -24.01157,28.97526 -0.44013,0.0978 c -0.0351,0.17162 -0.10989,0.48109 -0.19561,0.92917 -0.0858,0.44811 -0.15608,0.7715 -0.22007,0.95361 -0.29868,-0.0965 -0.83181,-0.21416 -1.58936,-0.34232 -0.75757,-0.12814 -1.56686,-0.20777 -2.44517,-0.22007 -0.96809,-0.0192 -1.92417,0.10886 -2.86085,0.34233 -0.93668,0.2335 -1.91269,0.70021 -2.90975,1.4182 -0.87107,0.62453 -1.58016,1.45952 -2.15175,2.51852 -0.57159,1.05902 -0.88378,2.33339 -0.90471,3.79001 0.01,1.36404 0.3803,2.5949 1.07587,3.71666 0.69558,1.12178 1.66865,2.02422 2.93421,2.71414 0.82276,0.40728 1.66677,0.6701 2.51852,0.78245 0.85174,0.11236 1.46063,0.16076 1.85833,0.14671 1.52557,-0.0276 2.76075,-0.19541 3.69221,-0.48903 0.93143,-0.29361 1.50501,-0.55467 1.73607,-0.78245 l 0.26897,-0.90472 c -0.69921,0.43449 -1.44653,0.73882 -2.24956,0.90472 -0.80305,0.16589 -1.57543,0.25242 -2.32291,0.24451 -2.08309,-0.0592 -3.77844,-0.80783 -5.1104,-2.24955 -1.33197,-1.44171 -2.03372,-3.21727 -2.0784,-5.33047 0.0193,-1.69055 0.55054,-3.12567 1.56491,-4.27905 1.01437,-1.15336 2.40367,-1.73756 4.18124,-1.78497 1.26151,0.0439 2.30785,0.31688 3.12982,0.85581 0.82195,0.53895 1.31714,1.08202 1.516,1.58936 0.0302,0.20452 0.0749,0.48804 0.0978,0.85581 0.0229,0.36779 0.0232,0.65468 0.0244,0.88026 l 0.44013,0.14671 c 0.008,-1.00195 0.0563,-2.04095 0.12226,-3.12982 0.066,-1.08884 0.17456,-2.21436 0.31787,-3.37434 z m 41.83686,0.34233 c 7.8e-4,0.8861 -0.0242,1.83859 -0.0978,2.8853 -0.0736,1.04674 -0.12407,1.86115 -0.17116,2.42072 l 0.44013,-0.12226 c 0.0571,-0.35768 0.10917,-0.71555 0.17116,-1.07588 0.062,-0.36031 0.14359,-0.66288 0.22007,-0.90471 0.24353,-0.19353 0.73389,-0.39591 1.516,-0.58684 0.78211,-0.1909 1.94373,-0.30337 3.47214,-0.31787 0.0194,0.1874 0.0344,0.6053 0.0489,1.22258 0.0145,0.6173 0.0409,1.29284 0.0489,2.02949 0.008,0.73668 -1.5e-4,1.36174 0,1.90724 l 0,0.95361 c -1.3e-4,0.63421 0.008,1.40602 0,2.29846 -0.008,0.89246 -0.0345,1.76941 -0.0489,2.64079 -0.0145,0.87138 -0.0295,1.6052 -0.0489,2.1762 -0.27815,0.0372 -0.69598,0.0804 -1.24703,0.14671 -0.55106,0.0663 -0.95411,0.11994 -1.22259,0.14671 l -0.0978,0.44013 c 0.20658,-0.0143 0.54846,-0.0361 1.02697,-0.0489 0.47851,-0.0127 0.9787,-0.0163 1.49156,-0.0244 0.51284,-0.008 0.91296,-0.0242 1.22258,-0.0244 0.59373,7.8e-4 1.30895,0.008 2.1273,0.0244 0.81833,0.0167 1.36846,0.0514 1.66272,0.0733 l -0.0733,-0.44013 c -0.24153,-0.0268 -0.65774,-0.0805 -1.24704,-0.14671 -0.5893,-0.0663 -1.00553,-0.10941 -1.24703,-0.14671 -0.0195,-0.58388 -0.0344,-1.30833 -0.0489,-2.1762 -0.0145,-0.86788 -0.0165,-1.75418 -0.0244,-2.64079 -0.008,-0.88659 -0.0243,-1.6584 -0.0244,-2.29846 l 0,-0.95361 c 1.1e-4,-0.53068 0.0167,-1.15625 0.0244,-1.88278 0.008,-0.72651 0.01,-1.38385 0.0244,-2.00504 0.0145,-0.62119 0.0294,-1.05679 0.0489,-1.27149 0.99986,0.0106 2.02759,0.11437 3.05646,0.29342 1.02885,0.17907 1.67626,0.39011 1.98059,0.61129 0.009,0.24052 0.0321,0.54121 0.0244,0.92917 -0.008,0.38797 -0.0292,0.79249 -0.0489,1.22258 l 0.44013,0.14671 c 0.0237,-0.25707 0.088,-0.79157 0.17116,-1.58936 0.0831,-0.79777 0.15493,-1.5904 0.24452,-2.37181 0.0896,-0.78139 0.15254,-1.28361 0.19561,-1.49156 l -0.46458,0.0978 c -0.0403,0.21375 -0.0968,0.45061 -0.14671,0.7091 -0.0499,0.25851 -0.082,0.44685 -0.12226,0.58684 -0.12512,0.0225 -0.53132,0.0408 -1.19814,0.0733 -0.66683,0.0326 -1.47696,0.0722 -2.42071,0.0978 -0.94378,0.0257 -1.88048,0.0475 -2.8364,0.0489 -0.89249,-0.002 -1.80091,-0.0233 -2.71414,-0.0489 -0.91324,-0.0256 -1.71405,-0.0652 -2.37181,-0.0978 -0.65777,-0.0326 -1.04762,-0.0508 -1.17368,-0.0733 -0.029,-0.23345 -0.0541,-0.46846 -0.0733,-0.73355 -0.0193,-0.26507 -0.0148,-0.48651 -0.0244,-0.63575 l -0.46459,-0.0733 z m -15.89361,0.19561 -0.44013,0.0978 c -0.0197,0.19136 -0.0464,0.36767 -0.0733,0.53794 -0.0269,0.17029 -0.044,0.31198 -0.0733,0.44013 -0.22292,0.0482 -0.74304,0.0769 -1.56491,0.0978 -0.82187,0.021 -1.66147,0.0444 -2.49407,0.0489 -0.83261,0.005 -1.3587,7.8e-4 -1.61381,0 -0.21697,-7.9e-4 -0.4858,0.006 -0.78246,0 -0.29666,-0.006 -0.60593,-0.0236 -0.92916,-0.0244 -0.32243,-0.0106 -0.62848,-0.0139 -0.92917,-0.0244 -0.30069,-0.0106 -0.57142,-0.0139 -0.8069,-0.0244 l 0.0733,0.44013 c 0.26366,0.0347 0.62112,0.0884 1.05143,0.14671 0.4303,0.0584 0.73826,0.10152 0.95361,0.14671 0.026,0.24331 0.053,0.70495 0.0733,1.39375 0.0203,0.68882 0.0372,1.4471 0.0489,2.274 0.0117,0.82693 0.0242,1.56752 0.0244,2.22511 l 0,0.97807 c -2.4e-4,0.80364 -0.0128,1.67799 -0.0244,2.64078 -0.0117,0.9628 -0.0286,1.81997 -0.0489,2.56743 -0.0203,0.74745 -0.0473,1.21168 -0.0733,1.36929 -0.29183,0.0755 -0.65121,0.1412 -1.07587,0.19562 -0.42467,0.0544 -0.71915,0.0855 -0.90471,0.0978 l -0.0978,0.44013 c 0.41097,-0.022 0.92388,-0.0566 1.516,-0.0733 0.59212,-0.0167 1.05552,-0.0236 1.4182,-0.0244 0.44773,3.9e-4 1.10206,0.008 1.98059,0.0244 0.87852,0.0168 1.73743,0.0448 2.54298,0.0733 0.80552,0.0285 1.31169,0.0623 1.54045,0.0978 0.009,0.16546 0.0225,0.35743 0.0244,0.56239 0.002,0.20496 4.8e-4,0.45223 0,0.73355 l 0.41567,0.0733 c 0.0297,-0.38036 0.0878,-0.90705 0.17117,-1.58936 0.0833,-0.68231 0.1547,-1.34744 0.24451,-1.98059 0.0898,-0.63315 0.17104,-1.06304 0.22007,-1.29594 l -0.46458,0.12226 c -0.0552,0.23392 -0.10879,0.5158 -0.17117,0.83136 -0.0624,0.31555 -0.14107,0.65612 -0.24451,1.02697 -0.46131,0.26947 -1.10812,0.45618 -1.93169,0.56239 -0.82358,0.10621 -1.73117,0.1511 -2.71413,0.14671 -0.0199,-0.24864 -0.0283,-0.79926 -0.0489,-1.66272 -0.0207,-0.86345 -0.0347,-1.75133 -0.0489,-2.68969 -0.0142,-0.93834 -0.0239,-1.65395 -0.0244,-2.12729 l 0,-0.41568 c 0.84651,-0.002 1.59896,0.0258 2.274,0.0978 0.67503,0.072 1.17637,0.20002 1.49156,0.36678 -4.1e-4,0.2155 0.008,0.43494 0,0.68465 -0.008,0.24973 -0.0389,0.48308 -0.0489,0.7091 l 0.36678,0.17116 c 0.0355,-0.25382 0.0998,-0.65197 0.17116,-1.22259 0.0713,-0.57059 0.12858,-1.12487 0.19561,-1.66271 0.0671,-0.53783 0.12405,-0.89589 0.14671,-1.05142 l -0.41567,0.0489 c -0.0354,0.29142 -0.10224,0.59224 -0.19562,0.90471 -0.26568,0.097 -0.77244,0.18177 -1.54045,0.24452 -0.76804,0.0627 -1.58055,0.0956 -2.44517,0.0978 l 0,-0.41568 c 4.8e-4,-0.45499 0.0103,-1.11803 0.0244,-1.95614 0.0142,-0.83808 0.0282,-1.61459 0.0489,-2.34736 0.0207,-0.73275 0.0289,-1.18137 0.0489,-1.32039 0.3696,-3.8e-4 0.88233,0.035 1.516,0.0978 0.63366,0.0628 1.22643,0.16275 1.78497,0.29342 0.55852,0.1307 0.90723,0.31025 1.05143,0.51349 0.008,0.23832 0.0281,0.52008 0.0244,0.85581 -0.004,0.33576 -0.0232,0.55882 -0.0244,0.66019 l 0.44013,0.14671 c 0.0151,-0.25121 0.049,-0.68996 0.0978,-1.32039 0.0487,-0.63041 0.0915,-1.2513 0.14671,-1.85833 0.0553,-0.607 0.0878,-1.0171 0.12226,-1.19813 z m 63.40325,0 -0.44013,0.0978 c -0.0197,0.19136 -0.0464,0.36767 -0.0733,0.53794 -0.0269,0.17029 -0.044,0.31198 -0.0733,0.44013 -0.22292,0.0482 -0.74304,0.0769 -1.56491,0.0978 -0.82187,0.021 -1.66147,0.0444 -2.49407,0.0489 -0.83261,0.005 -1.38315,7.8e-4 -1.63826,0 -0.21697,-7.9e-4 -0.46135,0.006 -0.75801,0 -0.29666,-0.006 -0.60593,-0.0236 -0.92916,-0.0244 -0.32243,-0.0106 -0.62848,-0.0139 -0.92917,-0.0244 -0.30068,-0.0106 -0.57142,-0.0139 -0.8069,-0.0244 -0.22049,0.0184 -0.45891,0.0345 -0.78246,0.0489 -0.37395,0.0167 -0.78856,0.0236 -1.24703,0.0244 -0.61629,-7.9e-4 -1.20947,-0.008 -1.76052,-0.0244 -0.55108,-0.0167 -0.91367,-0.0269 -1.07588,-0.0489 l 0.0978,0.44013 c 0.32161,0.0531 0.66881,0.0963 1.00252,0.14671 0.33368,0.0505 0.58641,0.10415 0.78245,0.14671 -0.11267,0.59107 -0.37727,1.44042 -0.78245,2.54298 -0.40521,1.10258 -0.86418,2.25174 -1.3693,3.47214 -0.50513,1.22042 -0.95686,2.3075 -1.36929,3.25207 -0.41245,0.94458 -0.67977,1.55882 -0.80691,1.83388 -0.14366,-0.21548 -0.43442,-0.84382 -0.88026,-1.90723 -0.44586,-1.0634 -0.93582,-2.27105 -1.4671,-3.61885 -0.5313,-1.34779 -0.99379,-2.57463 -1.39375,-3.64331 -0.39996,-1.06866 -0.63277,-1.70564 -0.68465,-1.93168 0.19401,-0.0649 0.4882,-0.11673 0.88027,-0.17116 0.39205,-0.0544 0.6965,-0.0994 0.92916,-0.12226 l 0.0978,-0.44013 c -0.25038,0.022 -0.69869,0.0322 -1.3693,0.0489 -0.67061,0.0167 -1.31934,0.0236 -1.95613,0.0244 -0.55066,-7.9e-4 -1.07222,-0.008 -1.56491,-0.0244 -0.4927,-0.0167 -0.90378,-0.0269 -1.22259,-0.0489 l 0.0733,0.44013 c 0.30471,0.0531 0.54718,0.0963 0.73355,0.14671 0.18637,0.0505 0.34342,0.10415 0.46458,0.14671 0.25867,0.41595 0.71091,1.34656 1.34484,2.78749 0.63393,1.44096 1.30862,3.04492 2.05395,4.81699 0.74532,1.77209 1.41216,3.35874 2.00504,4.76808 0.59286,1.40935 0.99711,2.28803 1.17368,2.64078 0.0661,-0.17117 0.32801,-0.75834 0.78245,-1.78497 0.45443,-1.02662 0.98659,-2.27073 1.63827,-3.71666 0.65166,-1.44591 1.32272,-2.87442 1.98058,-4.3035 0.65784,-1.42906 1.21417,-2.64278 1.68717,-3.61885 0.47297,-0.97606 0.75872,-1.50244 0.85581,-1.58936 0.24593,-0.0623 0.455,-0.12463 0.63574,-0.17116 0.18073,-0.0465 0.3596,-0.081 0.53794,-0.12226 l 0.0244,-0.12226 0.0244,0.12226 c 0.26365,0.0347 0.62112,0.0884 1.05142,0.14671 0.4303,0.0584 0.73826,0.10152 0.95362,0.14671 0.026,0.24331 0.0531,0.70495 0.0733,1.39375 0.0203,0.68882 0.0373,1.4471 0.0489,2.274 0.0116,0.82693 0.0242,1.56752 0.0244,2.22511 l 0,0.97807 c -2.4e-4,0.80364 -0.0128,1.67799 -0.0244,2.64078 -0.0117,0.9628 -0.0286,1.81997 -0.0489,2.56743 -0.0203,0.74745 -0.0473,1.21168 -0.0733,1.36929 -0.29184,0.0755 -0.65122,0.1412 -1.07588,0.19562 -0.42467,0.0544 -0.71914,0.0855 -0.90471,0.0978 l -0.0978,0.44013 c 0.41098,-0.022 0.89943,-0.0566 1.49156,-0.0733 0.59211,-0.0167 1.07996,-0.0236 1.44265,-0.0244 0.44772,3.9e-4 1.10205,0.008 1.98058,0.0244 0.87852,0.0168 1.73743,0.0448 2.54298,0.0733 0.80552,0.0285 1.31169,0.0623 1.54046,0.0978 0.009,0.16546 0.0225,0.35743 0.0244,0.56239 0.002,0.20496 4.8e-4,0.45223 0,0.73355 l 0.39123,0.0733 c 0.0297,-0.38036 0.0878,-0.90705 0.17116,-1.58936 0.0833,-0.68231 0.17915,-1.34744 0.26897,-1.98059 0.0898,-0.63315 0.14658,-1.06304 0.19561,-1.29594 l -0.44013,0.12226 c -0.0552,0.23392 -0.10879,0.5158 -0.17116,0.83136 -0.0624,0.31555 -0.14108,0.65612 -0.24452,1.02697 -0.46131,0.26947 -1.10812,0.45618 -1.93168,0.56239 -0.82358,0.10621 -1.73118,0.1511 -2.71414,0.14671 -0.0199,-0.24864 -0.0283,-0.79926 -0.0489,-1.66272 -0.0206,-0.86345 -0.0347,-1.75133 -0.0489,-2.68969 -0.0142,-0.93834 -0.0239,-1.65395 -0.0244,-2.12729 l 0,-0.41568 c 0.84651,-0.002 1.59896,0.0258 2.27401,0.0978 0.67503,0.072 1.17636,0.20002 1.49155,0.36678 -4.1e-4,0.2155 -0.0167,0.43494 -0.0244,0.68465 -0.008,0.24973 -0.0144,0.48308 -0.0244,0.7091 l 0.36678,0.17116 c 0.0355,-0.25382 0.0998,-0.65197 0.17116,-1.22259 0.0713,-0.57059 0.12858,-1.12487 0.19562,-1.66271 0.067,-0.53783 0.12404,-0.89589 0.14671,-1.05142 l -0.41568,0.0489 c -0.0354,0.29142 -0.10224,0.59224 -0.19562,0.90471 -0.26568,0.097 -0.77244,0.18177 -1.54045,0.24452 -0.76804,0.0627 -1.58055,0.0956 -2.44517,0.0978 l 0,-0.41568 c 4.8e-4,-0.45499 0.0102,-1.11803 0.0244,-1.95614 0.0142,-0.83808 0.0283,-1.61459 0.0489,-2.34736 0.0207,-0.73275 0.029,-1.18137 0.0489,-1.32039 0.3696,-3.8e-4 0.88233,0.035 1.516,0.0978 0.63366,0.0628 1.22644,0.16275 1.78498,0.29342 0.55851,0.1307 0.90722,0.31025 1.05142,0.51349 0.008,0.23832 0.004,0.52008 0,0.85581 -0.004,0.33576 7.8e-4,0.55882 0,0.66019 l 0.41568,0.14671 c 0.0151,-0.25121 0.049,-0.68996 0.0978,-1.32039 0.0487,-0.63041 0.11593,-1.2513 0.17117,-1.85833 0.0552,-0.607 0.0878,-1.0171 0.12225,-1.19813 z m -57.80381,1.14923 0,0.44013 c 0.2399,0.0312 0.5039,0.0779 0.78246,0.12226 0.27854,0.0444 0.53741,0.084 0.758,0.14671 -0.0851,0.25363 -0.35558,1.00024 -0.78246,2.24956 -0.42688,1.24933 -0.90859,2.67588 -1.4671,4.27904 -0.55851,1.60318 -1.08489,3.06172 -1.56491,4.37686 -0.48001,1.31516 -0.81112,2.18215 -1.00252,2.56743 -0.26245,0.0636 -0.52513,0.12069 -0.8069,0.17116 -0.28177,0.0505 -0.57404,0.0902 -0.85581,0.12226 l -0.0489,0.44013 c 0.25641,-0.022 0.62413,-0.0566 1.10032,-0.0733 0.4762,-0.0167 0.83939,-0.0236 1.12478,-0.0244 0.32927,7.8e-4 0.80907,0.008 1.44265,0.0244 0.63358,0.0167 1.14295,0.0514 1.49155,0.0733 l -0.0733,-0.44013 c -0.27574,-0.0307 -0.56317,-0.0757 -0.85581,-0.12226 -0.29264,-0.0465 -0.56016,-0.0983 -0.80691,-0.17116 0.0754,-0.57803 0.19277,-1.32224 0.39123,-2.20066 0.19845,-0.8784 0.39696,-1.66532 0.58684,-2.39626 0.18987,-0.73095 0.31715,-1.18476 0.36678,-1.32039 0.26763,-0.0432 0.70496,-0.0806 1.32039,-0.12226 0.61541,-0.0416 1.22274,-0.0703 1.83387,-0.0978 0.61112,-0.0275 1.04118,-0.0478 1.29594,-0.0489 0.11593,0.24825 0.31205,0.80096 0.58685,1.63826 0.27479,0.83732 0.55226,1.70074 0.83135,2.59188 0.27908,0.89115 0.48248,1.54638 0.6113,1.95614 -0.3011,0.0728 -0.59911,0.12464 -0.92917,0.17116 -0.33008,0.0465 -0.6628,0.0915 -1.00252,0.12226 l -0.0978,0.44013 c 0.19417,-0.0143 0.51184,-0.0361 0.95362,-0.0489 0.44177,-0.0127 0.87432,-0.0163 1.32039,-0.0244 0.44605,-0.008 0.77101,-0.0242 0.97807,-0.0244 0.56715,7.8e-4 1.20722,0.008 1.90723,0.0244 0.69999,0.0167 1.12485,0.0514 1.29594,0.0733 l -0.0489,-0.44013 c -0.28943,-0.0412 -0.57365,-0.10019 -0.85581,-0.14671 -0.28218,-0.0465 -0.57607,-0.0844 -0.85581,-0.14671 -0.30223,-0.64018 -0.61849,-1.41719 -0.95362,-2.29846 -0.33514,-0.88127 -0.63267,-1.73636 -0.92916,-2.59188 -0.29651,-0.85552 -0.54726,-1.56436 -0.73355,-2.1273 -0.2519,-0.75876 -0.52497,-1.5717 -0.80691,-2.44517 -0.28195,-0.87345 -0.53188,-1.69002 -0.758,-2.42072 -0.22614,-0.73067 -0.38016,-1.25892 -0.46458,-1.58936 0.22419,-0.0627 0.45831,-0.10237 0.7091,-0.14671 0.25077,-0.0443 0.5048,-0.0911 0.758,-0.12226 l 0.0489,-0.44013 c -0.33208,0.022 -0.83403,0.0322 -1.54045,0.0489 -0.70645,0.0167 -1.30285,0.0236 -1.76053,0.0244 -0.21213,-7.8e-4 -0.58689,-0.008 -1.14923,-0.0244 -0.56233,-0.0167 -1.00712,-0.0269 -1.34484,-0.0489 z m 25.18525,0 0.0978,0.44013 c 0.22099,0.0255 0.55208,0.0599 1.00252,0.12226 0.45042,0.0624 0.79632,0.12465 1.02697,0.17116 0.0255,0.27868 0.0348,0.78509 0.0489,1.54046 0.0141,0.7554 0.0434,1.52097 0.0489,2.27401 0.005,0.75306 2.5e-4,1.26882 0,1.54045 l 0,1.24704 c 2.4e-4,0.71808 0.005,1.54819 0,2.49407 -0.005,0.94591 -0.0348,1.82598 -0.0489,2.64079 -0.0141,0.81482 -0.0234,1.38678 -0.0489,1.71162 -0.24233,0.0478 -0.59174,0.10489 -1.05143,0.17116 -0.45969,0.0663 -0.79883,0.10602 -1.00251,0.12226 l -0.0733,0.44013 c 0.33812,-0.022 0.81983,-0.0566 1.4671,-0.0733 0.64726,-0.0167 1.16369,-0.0236 1.54046,-0.0244 0.64887,7.8e-4 1.34769,0.008 2.10284,0.0244 0.75514,0.0167 1.278,0.0514 1.54046,0.0733 l -0.0978,-0.44013 c -0.22341,-0.0228 -0.54938,-0.0678 -0.97806,-0.12226 -0.4287,-0.0544 -0.77972,-0.10621 -1.05143,-0.17116 -0.0256,-0.16437 -0.0592,-0.61143 -0.0733,-1.3204 -0.0141,-0.70896 -0.019,-1.55207 -0.0244,-2.51852 -0.005,-0.96644 -2.4e-4,-1.92405 0,-2.86085 l 0,-1.29594 c -7.8e-4,-1.33462 0.0108,-2.51895 0.0244,-3.54549 0.0137,-1.02653 0.0355,-1.65751 0.0733,-1.90724 0.36469,-0.0465 0.73593,-0.10882 1.12478,-0.17116 0.38884,-0.0623 0.69459,-0.0968 0.90471,-0.12226 l 0.0978,-0.44013 c -0.20609,0.022 -0.62554,0.0322 -1.24704,0.0489 -0.62151,0.0167 -1.20151,0.0236 -1.73607,0.0244 -0.79781,-7.8e-4 -1.55831,-0.008 -2.274,-0.0244 -0.7157,-0.0167 -1.17558,-0.0269 -1.39375,-0.0489 z m -50.78618,0.0244 -4.18124,0.0244 0.0489,0.44013 c 0.25158,0.0237 0.61417,0.0478 1.07587,0.0978 0.4617,0.05 0.79925,0.10196 1.00252,0.14671 0.0255,0.17622 0.0348,0.61548 0.0489,1.34485 0.0141,0.72939 0.0434,1.48039 0.0489,2.24955 0.005,0.76919 2.4e-4,1.31825 0,1.61382 l 0,1.27148 c 2.3e-4,0.77087 0.005,1.66968 0,2.66524 -0.005,0.99558 -0.0348,1.89646 -0.0489,2.71414 -0.0141,0.81768 -0.0234,1.35217 -0.0489,1.58936 -0.30512,0.0755 -0.67958,0.14119 -1.12478,0.19561 -0.4452,0.0544 -0.7593,0.0855 -0.92916,0.0978 l -0.0733,0.44013 c 0.28097,-0.022 0.79548,-0.0566 1.51601,-0.0733 0.72052,-0.0167 1.30566,-0.0236 1.76052,-0.0244 0.49712,7.8e-4 1.09735,0.008 1.80943,0.0244 0.71206,0.0167 1.22175,0.0514 1.516,0.0733 l -0.0978,-0.44013 c -0.24998,-0.0241 -0.60101,-0.0638 -1.05143,-0.12226 -0.45043,-0.0584 -0.7764,-0.11543 -0.97807,-0.17116 -0.0195,-0.34863 -0.0344,-0.88885 -0.0489,-1.58936 -0.0145,-0.70051 -0.0165,-1.40676 -0.0244,-2.15175 -0.008,-0.74498 -0.0243,-1.37628 -0.0244,-1.85833 l 0,-0.53794 c 0.17509,-7.8e-4 0.4407,-0.0239 0.78245,-0.0489 0.34174,-0.025 0.69789,-0.0405 1.07587,-0.0733 0.0997,0.14138 0.43364,0.56167 1.00252,1.27149 0.56887,0.70984 1.23631,1.51175 2.00504,2.42072 0.76872,0.90898 1.50135,1.73083 2.20066,2.46962 0.69928,0.7388 1.22878,1.21889 1.58936,1.4182 l 0.85581,-0.14671 c -0.69451,-0.82301 -1.43402,-1.84984 -2.22511,-3.08091 -0.79111,-1.23107 -1.48695,-2.36667 -2.07839,-3.39879 -0.59146,-1.03211 -0.93145,-1.65664 -1.02697,-1.88278 0.76438,-0.47925 1.41603,-1.09129 1.93168,-1.83388 0.51563,-0.74257 0.78636,-1.46182 0.80691,-2.15175 -0.005,-0.5793 -0.17196,-1.06684 -0.46459,-1.4671 -0.29265,-0.40025 -0.68089,-0.70796 -1.19813,-0.92916 -0.68713,-0.27341 -1.54431,-0.44808 -2.54298,-0.51349 -0.99867,-0.0654 -1.9618,-0.0843 -2.90975,-0.0733 z m 0.29343,0.58685 c 1.64834,0.0404 2.82154,0.35838 3.49659,0.97806 0.67503,0.61971 1.001,1.29056 0.97807,2.00504 -0.0398,1.03269 -0.29581,1.81238 -0.78246,2.34737 -0.48667,0.53499 -0.96295,0.89299 -1.4182,1.05142 -0.41823,0.16415 -0.82127,0.26433 -1.22258,0.31787 -0.40133,0.0535 -0.79864,0.0778 -1.14923,0.0733 l 0,-0.6602 c 1.2e-4,-0.53055 0.0167,-1.20973 0.0244,-2.05394 0.008,-0.8442 0.01,-1.64672 0.0244,-2.42072 0.0145,-0.77397 0.0294,-1.31836 0.0489,-1.63826 z m 27.41035,0.46458 0.0244,0 c 0.11986,0.41678 0.30727,1.02466 0.56239,1.83387 0.25511,0.80924 0.5166,1.63466 0.78245,2.46963 0.26584,0.83498 0.48367,1.48657 0.63575,1.98058 l -4.05898,-0.0733 c 0.075,-0.26085 0.24155,-0.77452 0.48903,-1.51601 0.24747,-0.74147 0.51434,-1.54815 0.80691,-2.42072 0.29256,-0.87254 0.54773,-1.6199 0.758,-2.274 z m -36.50639,19.36574 -5.79505,4.20569 -1.49155,7.72674 4.13233,8.38693 13.5707,-1.76052 0,-10.7832 -8.09352,-0.12226 -0.48903,5.50164 3.88782,-0.36678 -0.0978,0.90471 -5.03705,0.61129 -1.76052,-3.6922 1.66272,-3.96118 2.81194,-0.85581 1.88278,1.05143 4.67028,-2.64079 -2.73859,-3.71665 -7.11545,-0.48904 z m 36.28632,0.0978 -6.43079,4.05898 -1.27149,8.55809 8.607,7.60448 10.78319,-2.81194 1.71162,-9.75623 -5.96621,-7.40886 -7.43332,-0.24452 z m 34.86812,0.0489 -1.02697,20.34381 6.38189,0 0,-3.86336 6.03957,-0.39123 4.86589,-4.69473 -0.39123,-8.09351 -4.79253,-3.30098 -11.07662,0 z m -48.87894,0.0244 -11.34559,0.88027 1.56491,19.34129 6.30854,0 -0.92917,-5.25712 6.18628,5.28157 5.94177,-2.56743 -5.06151,-4.45021 2.8364,-3.17872 -0.46458,-6.35744 -5.03705,-3.69221 z m 27.70377,0 0,15.35567 4.01008,4.93924 10.31862,0 4.89034,-5.52608 0,-13.30172 -8.38693,0 1.00251,9.87848 -3.42323,2.46962 0.41568,-13.81521 -8.82707,0 z m -32.10508,5.64835 3.15427,1.71162 -1.66271,2.39626 -1.66272,-0.22006 0.17116,-3.88782 z m 59.75995,0.56239 3.91227,0.83135 -2.29846,2.71414 -1.80942,-0.24451 0.19561,-3.30098 z m -39.73401,0.83135 3.42324,0.78246 0.12226,3.03201 -2.54298,0.92916 -2.39626,-1.61381 1.39374,-3.12982 z"
       style="fill:#333333;fill-opacity:1;fill-rule:nonzero;stroke:none"
       inkscape:connector-curvature="0" />
    <path
       inkscape:connector-curvature="0"
       id="path4416"
       d="m 301.4446,244.56055 c -22.77124,0.19955 -43.25314,11.0955 -56.33675,28.11465 -0.15477,0.12248 -0.29215,0.25157 -0.44768,0.37605 -1.06646,0.85351 -2.15602,1.7371 -3.25915,2.68612 -1.15072,2.20538 -2.15204,3.45125 -3.08008,4.13661 -1.51289,1.11727 -2.83748,0.77215 -4.27987,0.7163 4.79288,-8.50023 6.38642,-27.76275 -14.11105,-21.81124 -15.46299,4.55828 -27.68001,16.41044 -37.08627,5.04989 3.59973,16.5813 26.16975,5.75586 32.77058,5.90945 4.82663,1.75345 3.03608,6.28957 -0.91328,10.70864 -0.78458,-1.20069 -1.77941,-2.28458 -3.06217,-3.16962 -6.48676,-4.47554 -13.78672,6.64227 -24.24664,-2.11307 0,0 3.91867,5.78697 8.88208,7.2346 3.21769,0.93847 8.00604,-1.73815 9.09697,0.34024 1.91108,4.27583 -1.12311,5.46947 -3.09799,7.18087 -0.76446,0.35525 -1.46881,0.63499 -2.09517,0.80584 -16.63984,6.83304 -14.74083,44.99999 -7.37785,69.62405 12.81178,28.56134 33.16793,0.82758 28.36535,-1.96981 5.56728,1.34539 -0.33121,8.69111 -3.76056,12.39193 8.3213,-4.61348 13.57159,-18.64525 4.35151,-21.32774 4.5004,-6.24426 9.21776,-7.58303 13.62754,-6.37504 10.0648,25.19072 34.00362,43.58155 62.87296,45.14461 23.35096,1.26428 44.69353,-8.76449 58.73634,-25.32109 1.72708,-1.00869 3.36635,-2.17838 4.87082,-3.52777 1.85767,0.36153 3.36288,1.71022 3.88591,4.85292 -3.91282,-0.69769 -4.53202,5.48169 -2.29215,8.72091 -0.59267,-2.0025 -1.43483,-5.82366 0.87747,-5.3006 -2.29521,0.15598 0.15688,14.18832 10.1535,5.94527 7.2524,-7.78284 14.96431,-21.59357 10.04607,-27.18347 -0.20102,-0.17838 -0.40839,-0.40833 -0.62676,-0.68048 -0.41841,-0.99745 -1.33282,-2.00596 0.16116,-3.24124 0.78627,-0.57067 2.07227,1.29741 3.43823,1.54003 2.10702,0.37426 4.62011,-1.03863 4.62011,-1.03863 -5.48776,1.32751 -6.15542,-4.14033 -9.38348,-3.67102 -0.63836,0.0928 -1.20759,0.30753 -1.71912,0.60885 -0.65375,-2.36444 -0.48287,-4.37231 1.62958,-4.13661 2.47688,1.15495 8.87177,9.30447 13.25149,3.81428 -5.57522,2.48739 -7.94028,-4.1372 -12.83962,-8.66719 -6.51117,-5.97115 -9.45758,1.46431 -9.24023,5.49758 -0.54534,-0.24409 -1.09439,-0.36431 -1.4505,-1.05654 -0.21004,-0.40834 -0.34627,-1.02578 -0.37606,-1.98772 1.01678,-4.21299 1.67336,-8.57129 1.9161,-13.05451 2.14634,-39.64242 -28.24462,-73.51252 -67.88704,-75.65886 -1.537,-0.0832 -3.06621,-0.12075 -4.5843,-0.10744 z"
       style="fill:#333333;fill-opacity:1;stroke:none" />
  </g>
</svg>
