<?xml version="1.0" encoding="UTF-8" standalone="no"?>
<!-- Created with Inkscape (http://www.inkscape.org/) -->

<svg
   xmlns:dc="http://purl.org/dc/elements/1.1/"
   xmlns:cc="http://creativecommons.org/ns#"
   xmlns:rdf="http://www.w3.org/1999/02/22-rdf-syntax-ns#"
   xmlns:svg="http://www.w3.org/2000/svg"
   xmlns="http://www.w3.org/2000/svg"
   xmlns:sodipodi="http://sodipodi.sourceforge.net/DTD/sodipodi-0.dtd"
   xmlns:inkscape="http://www.inkscape.org/namespaces/inkscape"
   width="744.09448819"
   height="1052.3622047"
   id="svg2"
   version="1.1"
   inkscape:version="0.48.4 r9939"
   sodipodi:docname="New document 1">
  <defs
     id="defs4" />
  <sodipodi:namedview
     id="base"
     pagecolor="#ffffff"
     bordercolor="#666666"
     borderopacity="1.0"
     inkscape:pageopacity="0.0"
     inkscape:pageshadow="2"
     inkscape:zoom="0.35"
     inkscape:cx="569.59708"
     inkscape:cy="516.44144"
     inkscape:document-units="px"
     inkscape:current-layer="layer1"
     showgrid="false"
     inkscape:window-width="1366"
     inkscape:window-height="745"
     inkscape:window-x="-8"
     inkscape:window-y="-8"
     inkscape:window-maximized="1" />
  <metadata
     id="metadata7">
    <rdf:RDF>
      <cc:Work
         rdf:about="">
        <dc:format>image/svg+xml</dc:format>
        <dc:type
           rdf:resource="http://purl.org/dc/dcmitype/StillImage" />
        <dc:title></dc:title>
      </cc:Work>
    </rdf:RDF>
  </metadata>
  <g
     inkscape:label="Layer 1"
     inkscape:groupmode="layer"
     id="layer1">
    <g
       transform="translate(1061.4887,-237.74512)"
       id="layer1-9"
       inkscape:label="Layer 1">
      <path
         style="fill:#550000;fill-opacity:1;fill-rule:nonzero;stroke:none"
         d="m -589.30759,333.1843 c -1.07021,-0.17501 -2.28918,0.13455 -3.99734,0.13455 -1.35158,-0.13455 -3.99858,-0.21539 -6.73753,-0.35001 -61.7199,5.23935 -114.46994,50.83321 -143.95605,101.62872 -41.57053,77.69763 -49.84094,171.89811 -21.91263,254.35717 -43.05442,-15.84591 -84.17639,-36.76424 -121.30318,-63.31366 38.20333,33.47419 80.60915,60.22957 126.15455,81.69311 20.36371,35.35613 42.29706,71.96422 73.97786,98.24843 -64.99558,-14.16317 -129.86759,-35.20266 -188.53059,-69.67705 56.94338,42.63899 124.26517,69.42802 191.63745,91.95639 22.83086,9.36135 49.88198,12.1816 71.40542,20.10254 28.56573,67.36702 39.94435,150.16256 -3.70805,212.63891 -32.21455,50.6637 -96.82312,67.0157 -155.46324,64.1578 -11.37551,10.4437 38.19444,30.3631 54.68235,28.4166 53.00876,6.708 108.5022,-15.1299 142.97847,-54.6874 62.979,-67.0344 65.98785,-167.04643 36.70528,-249.57011 35.634,-2.39084 60.65428,-46.59947 42.78546,-76.33395 -15.4842,-21.37334 -3.78668,-3.2241 -5.63257,7.68266 -2.76438,32.85359 -61.21993,50.53166 -62.08069,6.50475 -15.54855,-20.00292 -4.35005,-23.46935 17.47762,-22.4072 32.00779,-13.55875 45.22232,-63.5708 14.79602,-87.04552 10.26088,15.6211 0.10768,57.73911 -31.19225,54.84078 -40.30471,15.90516 -40.45926,-40.44337 -55.8919,-63.18711 -30.88022,-77.10665 -35.40232,-169.6096 11.32396,-240.18322 14.91974,-29.51237 43.29606,-51.50226 59.47032,-78.20379 -48.02399,4.53258 -85.09922,39.73931 -111.16104,74.20831 -59.41836,79.57556 -55.78501,188.53289 -21.27184,276.81016 23.02658,36.85983 -27.56175,7.02842 -43.79886,3.48931 -24.47979,-67.17183 -20.10928,-142.79094 0.59635,-211.88511 19.82484,-48.51643 45.48806,-99.34828 90.58087,-131.51397 6.82823,-9.97523 58.17609,-26.49153 42.06431,-28.45965 z m -119.06596,399.64663 c 0.63406,0 1.27754,0.25578 2.12751,0.41732 9.54216,0.51155 33.54621,15.22936 45.76282,17.19209 12.8769,18.4979 20.20296,42.55823 31.59988,63.73234 7.82886,8.62902 -9.39676,-0.83463 -13.60628,1.72984 -34.08588,-1.63292 -43.60042,-42.01032 -60.33779,-66.19449 -9.03477,-12.46699 -9.97547,-17.03998 -5.54599,-16.87979 z m -23.02618,114.55342 c -61.42632,-1.63022 -120.90469,45.11463 -127.56602,105.27284 -12.39726,66.74651 42.25277,136.52311 113.05849,142.72361 62.48441,8.5361 124.15586,-32.4794 137.69483,-93.6754 19.16048,-65.04357 -28.38845,-138.72552 -97.5277,-151.72023 -8.12125,-1.76887 -24.88972,-2.70447 -25.66,-2.59274 z m 9.14409,12.77528 c 50.33834,5.20703 97.50279,45.91829 103.52535,97.0665 10.94675,63.76327 -44.93612,128.57247 -111.82094,126.69057 -49.26113,1.7245 -95.79907,-32.0229 -111.60218,-78.1526 -22.03619,-60.17573 19.40442,-131.25551 84.14342,-143.22038 11.0251,-2.21313 23.4773,-2.98179 35.75435,-2.38409 z m -4.66412,6.81168 c -59.9509,-4.31586 -110.76525,39.987 -114.63324,98.89866 -2.45369,57.61253 43.08955,107.94093 103.09362,110.86753 59.9439,4.3348 111.07097,-39.9655 114.93909,-98.88382 0.56272,-12.34314 -1.81168,-24.74687 -5.44758,-35.91884 l -1.20753,-0.36347 c -8.18264,-0.43079 -9.76844,2.2737 -12.84016,10.36695 l -16.7655,72.19978 -17.69718,-2.1686 -26.52532,-78.20251 -13.26556,52.73136 c -0.0673,1.37039 -0.22212,4.14215 -0.29482,5.50995 -0.12119,4.1192 2.49678,5.5409 7.90789,7.1818 l 2.75618,0.1484 -3.0405,10.8934 -38.29741,-1.7434 1.81465,-10.9606 4.28773,0.2289 c 6.86755,-1.0232 9.67717,-3.8205 11.39113,-11.9838 l 11.43932,-47.29539 c 1.42439,-1.31926 1.77346,-4.06277 1.82771,-5.4305 0.15071,-4.11931 -2.79359,-5.86128 -8.19784,-7.50228 l -2.46621,0.16159 3.04022,-10.89466 40.74747,1.87792 19.51399,60.0102 8.33342,-35.17717 c 1.42303,-1.31926 1.46585,-4.07489 1.51956,-5.44934 0.12119,-4.11528 -2.51063,-5.68763 -7.97358,-5.95552 l -2.67391,-1.68811 3.02392,-10.58637 30.02889,1.30578 c -16.27076,-35.15421 -52.06239,-60.11647 -94.33738,-62.17613 z m -94.9087,51.73785 84.16953,5.42375 5.74295,30.40354 -10.88269,2.48774 c -4.87318,-13.98279 -12.803,-21.48642 -26.38181,-23.52454 l -14.8842,60.01422 c -0.0673,1.37038 -0.23558,3.83662 -0.27866,5.20701 -0.15071,4.11662 2.78552,5.86262 8.19758,7.50222 l 5.20623,0.2693 -3.34662,10.8772 -55.73734,-2.9832 3.10632,-12.1211 5.5122,0.2962 c 8.18413,0.4308 9.76226,-2.2669 12.84043,-10.36691 l 14.88435,-60.01555 c -15.05976,0.64619 -23.26797,4.76954 -34.81876,19.3285 l -8.34551,-4.74798 15.01639,-28.06656 z"
         id="path3872"
         inkscape:connector-curvature="0" />
    </g>
  </g>
</svg>
