<?xml version="1.0" encoding="UTF-8" standalone="no"?>
<!-- Created with Inkscape (http://www.inkscape.org/) -->

<svg
   xmlns:dc="http://purl.org/dc/elements/1.1/"
   xmlns:cc="http://creativecommons.org/ns#"
   xmlns:rdf="http://www.w3.org/1999/02/22-rdf-syntax-ns#"
   xmlns:svg="http://www.w3.org/2000/svg"
   xmlns="http://www.w3.org/2000/svg"
   xmlns:sodipodi="http://sodipodi.sourceforge.net/DTD/sodipodi-0.dtd"
   xmlns:inkscape="http://www.inkscape.org/namespaces/inkscape"
   width="744.09448819"
   height="1052.3622047"
   id="svg2"
   version="1.1"
   inkscape:version="0.48.4 r9939"
   sodipodi:docname="sfd14.svg"
   inkscape:export-filename="C:\Users\SONY\Desktop\sfd14.png"
   inkscape:export-xdpi="300"
   inkscape:export-ydpi="300">
  <defs
     id="defs4" />
  <sodipodi:namedview
     id="base"
     pagecolor="#ffffff"
     bordercolor="#666666"
     borderopacity="1.0"
     inkscape:pageopacity="0.0"
     inkscape:pageshadow="2"
     inkscape:zoom="0.24748737"
     inkscape:cx="622.34034"
     inkscape:cy="758.38256"
     inkscape:document-units="px"
     inkscape:current-layer="layer1-1"
     showgrid="false"
     inkscape:window-width="1366"
     inkscape:window-height="745"
     inkscape:window-x="-8"
     inkscape:window-y="-8"
     inkscape:window-maximized="1"
     borderlayer="true" />
  <metadata
     id="metadata7">
    <rdf:RDF>
      <cc:Work
         rdf:about="">
        <dc:format>image/svg+xml</dc:format>
        <dc:type
           rdf:resource="http://purl.org/dc/dcmitype/StillImage" />
        <dc:title />
      </cc:Work>
    </rdf:RDF>
  </metadata>
  <g
     inkscape:label="Layer 1"
     inkscape:groupmode="layer"
     id="layer1">
    <g
       id="layer1-1"
       inkscape:label="Layer 1"
       transform="translate(-131.2483,-400.2502)">
      <rect
         style="fill:#000000;fill-opacity:1;stroke:none"
         id="rect3482"
         width="864.69061"
         height="1155.6145"
         x="71.439392"
         y="345.52002"
         rx="49.862907"
         ry="49.862907" />
      <g
         id="flowRoot3247"
         style="font-size:40px;font-style:normal;font-variant:normal;font-weight:bold;font-stretch:normal;line-height:125%;letter-spacing:0px;word-spacing:0px;fill:#333333;fill-opacity:1;stroke:none;font-family:Charlemagne Std;-inkscape-font-specification:Charlemagne Std Bold"
         transform="matrix(0.61733934,0,0,0.67308791,14.316924,161.54384)" />
      <g
         id="flowRoot3255"
         style="font-size:40px;font-style:normal;font-variant:normal;font-weight:bold;font-stretch:normal;line-height:125%;letter-spacing:0px;word-spacing:0px;fill:#333333;fill-opacity:1;stroke:none;font-family:Super Mario 256;-inkscape-font-specification:Super Mario 256 Bold"
         transform="matrix(0.87353711,0,0,0.87353711,-45.000517,159.15084)" />
      <path
         style="fill:#ffffff;fill-opacity:1;fill-rule:nonzero;stroke:none"
         d="m 1529.2045,1064.8495 c -11.3127,1.2558 -20.7296,9.8831 -25.9047,19.3545 -7.2672,14.4698 -8.3403,31.8698 -2.8182,46.8844 -7.9843,-2.7059 -15.6924,-6.4111 -22.6386,-11.1123 7.1769,5.9679 15.1501,10.683 23.6185,14.4094 3.9084,6.3977 8.0538,13.073 13.9985,17.751 -12.0066,-2.2929 -24.0236,-5.8497 -34.9633,-11.9038 10.6628,7.5618 23.1583,12.1072 35.6411,15.9252 4.2386,1.6109 9.2776,2.0021 13.2688,3.3549 5.5674,12.2398 8.051,27.3949 0.3293,39.0787 -5.6771,9.4598 -17.5242,12.7689 -28.3093,12.5226 -2.0402,1.9721 7.215,5.4544 10.2345,5.0186 9.7691,0.9798 19.8609,-3.352 26.0063,-10.7824 11.2503,-12.6122 11.328,-30.9989 5.5566,-46.0193 6.5346,-0.6083 10.9207,-8.8481 7.4967,-14.2251 -2.9455,-3.8528 -0.7684,-0.5197 -1.056,1.4927 -0.3512,6.048 -10.9494,9.5749 -11.3167,1.4912 -2.9511,-3.6001 -0.9103,-4.2906 3.1041,-4.1986 5.8154,-2.6432 7.9488,-11.8942 2.2483,-16.0622 1.9591,2.8206 0.3526,10.5516 -5.4114,10.1678 -7.3283,3.113 -7.6242,-7.2374 -10.5674,-11.3422 -6.0391,-14.0172 -7.3106,-30.9316 0.9378,-44.1175 2.6002,-5.4923 7.7082,-9.6664 10.5525,-14.6483 -8.8002,1.0606 -15.4434,7.7039 -20.067,14.1597 -10.5366,14.8998 -9.35,34.8413 -2.5909,50.8934 4.4054,6.6618 -5.086,1.4205 -8.0854,0.8478 -4.8158,-12.223 -4.3173,-26.0769 -0.8423,-38.8675 3.4117,-9.0065 7.8292,-18.5235 15.9597,-24.6464 1.2872,-1.9895 11.8789,-5.5297 6.8578,-5.392 -0.2488,-0.012 -0.7356,-0.021 -1.2393,-0.034 z m -18.2267,74.0273 c 0.071,-0.024 0.18,0 0.2817,0.012 0.1151,0 0.2377,-0.023 0.3944,0.012 1.7552,0.048 6.2332,2.6946 8.4866,2.9972 2.4531,3.3366 3.8587,7.6637 6.0526,11.4987 1.4792,1.5481 -1.7309,-0.067 -2.4928,0.4387 -6.2688,-0.1441 -8.1523,-7.508 -11.3419,-11.8708 -1.504,-1.9665 -1.8641,-2.8976 -1.3806,-3.0825 z m -3.4602,21.1586 c -11.2913,0 -21.9372,8.807 -22.875,19.889 -1.96,12.3203 8.4085,24.9348 21.4447,25.7372 11.5186,1.2716 22.6526,-6.5561 24.849,-17.8614 3.2104,-12.0394 -5.8742,-25.3489 -18.6361,-27.4071 -1.5003,-0.2859 -4.6418,-0.377 -4.7826,-0.3577 z m 1.7406,2.3032 c 9.2716,0.7173 18.1854,7.9729 19.5348,17.3404 2.3136,11.6611 -7.6439,23.8326 -19.9391,23.804 -9.041,0.5504 -17.7489,-5.4834 -20.8709,-13.8821 -4.3337,-10.9501 2.9395,-24.1476 14.775,-26.6529 2.0144,-0.4589 4.242,-0.6605 6.5002,-0.6094 z m -0.7667,1.2191 c -11.0332,-0.5109 -20.213,7.8693 -20.6436,18.7104 -0.179,10.5946 8.4843,19.6246 19.5206,19.877 11.032,0.5113 20.1573,-7.8709 20.5877,-18.712 0.04,-2.2702 -0.3944,-4.5353 -1.1151,-6.5705 l -0.2802,-0.064 c -1.5058,-0.022 -1.7269,0.4661 -2.2532,1.9675 l -2.7367,13.342 -3.2609,-0.3155 -5.2443,-14.2391 -2.2426,9.7473 c -0.012,0.2519 0.035,0.764 0.028,1.0158 10e-4,0.757 0.4849,1.0057 1.4867,1.2813 l 0.507,0.014 -0.5066,2.0157 -7.0997,-0.1405 0.3375,-2.0202 0.7326,0.021 c 1.2566,-0.223 1.8157,-0.747 2.092,-2.2538 l 1.8766,-8.743 c 0.255,-0.2469 0.25,-0.756 0.2533,-1.008 0,-0.7569 -0.4851,-1.0618 -1.4853,-1.3376 l -0.5086,0.042 0.5632,-2.0139 7.4938,0.1503 3.8119,10.9863 1.4217,-6.5572 c 0.2545,-0.2472 0.1936,-0.7573 0.1967,-1.0092 0,-0.7569 -0.4317,-1.0316 -1.4364,-1.0546 l -0.5571,-0.241 0.5632,-2.0139 5.5205,0.1527 c -3.1559,-6.3807 -9.8474,-10.8524 -17.6228,-11.0297 z m -17.1882,9.9548 15.4872,0.5972 1.1978,5.6145 -2.0421,0.451 c -0.9616,-2.5455 -2.4555,-3.8305 -4.9594,-4.1398 l -2.3914,11.0399 -0.027,0.958 c 0,0.7572 0.4835,1.062 1.4857,1.3376 l 0.9576,0.027 -0.5072,2.0158 -10.2542,-0.2266 0.5145,-2.2974 1.0141,0.028 c 1.5061,0.022 1.7261,-0.464 2.2531,-1.9674 l 2.504,-11.0371 c -2.7634,0.1891 -4.3065,0.9287 -6.3592,3.658 l -1.5007,-0.7745 2.6267,-5.2833 z"
         id="path4388"
         inkscape:connector-curvature="0" />
    </g>
    <g
       id="g4288">
      <path
         id="rect3170"
         d="m 19.0625,-25.21875 c -27.6240506,0 -49.875,22.2509494 -49.875,49.875 l 0,108.5 c 10.250515,11.39889 -0.487796,27.71115 5.557101,42.53046 1.7824,4.3696 -6.313251,21.08924 -4.963351,25.71954 2.3852,8.1813 32.7962,1.1282 33.625,9.3125 0.6584,1.7039 1.3048,2.74455 1.9375,3.34375 1.0733,1.0157 2.12,0.87475 3.25,0.96875 -2.9261,-7.0862 -2.32245,-22.25405 13.09375,-15.65625 11.6231,5.0307 20.0178,15.3988 28.4375,7.4375 -4.39,12.5868 -20.963,2.0104 -26.125,1.5 -3.9313,0.9067 -2.9705,4.6144 -0.3125,8.4375 0.7265,-0.8613 1.6026,-1.58855 2.6875,-2.15625 5.4858,-2.8709 10.1324,6.48535 19.125,0.65625 0,0 -3.6164,4.12615 -7.625,4.78125 -2.5989,0.4247 -6.0759,-2.11025 -7.125,-0.59375 -1.8985,3.1519 0.3735,4.38305 1.75,5.90625 0.5623,0.35 1.0903,0.6195 1.5625,0.8125 12.3237,6.917 7.18625,36.5006 -0.90625,55 -12.7173,21.0496 -25.91855,-2.527 -21.90625,-4.25 -4.4699,0.5177 -0.571,6.81795 1.75,10.03125 -6.0487,-4.392 -8.8211,-15.8508 -1.375,-17.0625 -2.9134,-5.299 -6.47715,-6.771 -10.03125,-6.25 -1.8454,3.3628 -4.0415,6.51355 -6.5,9.40625 -11.018119,2.93201 -21.089739,14.12131 -25.90625,42.4375 l 0,396.46875 c 11.472747,7.91642 22.2231158,16.90646 32.0625,26.84375 0.5256,0.3189 1.00315,0.64535 1.53125,0.96875 3.6226,2.2206 7.32145,4.53005 11.09375,7.03125 4.4074,6.3599 7.96315,9.8079 11.09375,11.5625 5.1028,2.8622 9.0708,1.2941 13.5,0.5625 C 20.37815,734.53055 7.991,675.70867 73.5625,686.125 c 49.4942,8.06889 91.78245,39.90014 116.40625,1.1875 -4.6769,52.57324 -78.52895,27.90274 -98.84375,30.9375 -14.2159,7.2838 -6.93555,20.61235 6.96875,32.71875 1.9563,-4.0102 4.60225,-7.74035 8.21875,-10.96875 18.2834,-16.3304 45.14555,15.1442 74.03125,-15.9375 0,0 -9.8676,19.38745 -24.625,25.78125 -9.5675,4.1455 -25.3769,-2.2761 -27.9375,4.5625 -4.2388,13.9378 5.58455,16.45235 12.34375,20.96875 2.4969,0.7998 4.78155,1.403 6.78125,1.6875 54.0083,14.6335 62.95375,133.1434 49.78125,212 -28.4606,93.1226 -102.0504,15.4347 -88.3125,4.9375 -16.6607,6.3119 4.4176,26.6889 16.4375,36.7812 C 97.3395,1019.7703 75.67695,978.51275 103.09375,966.65625 86.78075,949.12945 71.704,946.8105 58.5625,952.25 c -57.61886132,5.06147 -40.954957,80.7479 -71.5,114.0312 8.6516568,7.2319 19.7946472,11.5938 32,11.5938 l 712.4375,0 c 27.62405,0 49.84375,-22.251 49.84375,-49.875 l 0,-564.3125 c -8.52293,-24.57681 -20.21697,-45.7055 -37.625,-57.625 -2.3384,-2.99059 -4.4183,-6.18971 -6.125,-9.625 -3.5299,-0.66559 -7.1229,0.63674 -10.25,5.8125 7.3904,1.51447 4.12915,12.85846 -2.09375,17 2.4502,-3.11595 6.6325,-9.26911 2.1875,-9.96875 3.9386,1.88525 -10.24585,24.92591 -22.09375,3.375 -7.331,-18.81412 -11.2206,-48.59159 1.375,-55 0.4797,-0.17361 0.9864,-0.42321 1.5625,-0.75 1.4375,-1.4657 3.7683,-2.61703 2,-5.84375 -0.9864,-1.55804 -4.57685,0.84289 -7.15625,0.3125 -3.9785,-0.81804 -7.40625,-5.0625 -7.40625,-5.0625 8.7473,6.1911 13.7609,-2.99857 19.125,0.0937 1.0608,0.6115 1.90295,1.39097 2.59375,2.28125 2.8117,-3.71147 3.92225,-7.37123 0.0312,-8.4375 -5.1786,0.29935 -22.15845,10.19287 -26.03125,-2.5625 8.0879,8.29815 16.90005,-1.72888 28.71875,-6.28125 15.6725,-5.96332 15.6503,9.22664 12.4375,16.1875 1.1329,-0.0479 2.16745,0.12726 3.28125,-0.84375 0.6567,-0.57286 1.3351,-1.57439 2.0625,-3.25 1.162,-8.14368 31.283,0.1397 34,-7.9375 11.88976,-24.40085 2.31679,-66.99601 9.40625,-73.96875 l 0,-236.9375 c 0,-27.6240506 -22.2197,-49.875 -49.84375,-49.875 l -348.25,0 c -14.74047,7.248551 -47.62758,-1.893553 -39.3125,23.15625 -2.8927,2.45847 -6.0122,4.68582 -9.375,6.53125 -0.521,3.55412 0.951,7.08666 6.25,10 1.2117,-7.44604 12.6705,-4.67375 17.0625,1.375 -3.2133,-2.32103 -9.5448,-6.21984 -10.0625,-1.75 1.723,-4.01223 25.2996,9.18898 4.25,21.90625 -18.4994,8.09247 -48.05175,13.22991 -54.96875,0.90625 -0.193,-0.47222 -0.49375,-1.00021 -0.84375,-1.5625 -1.5232,-1.3765 -2.75435,-3.64847 -5.90625,-1.75 -1.5165,1.04915 1.01845,4.52611 0.59375,7.125 -0.6551,4.00856 -4.75,7.625 -4.75,7.625 5.8291,-8.99261 -3.5584,-13.6392 -0.6875,-19.125 0.5677,-1.08486 1.3262,-1.96096 2.1875,-2.6875 -3.8231,-2.65794 -7.5308,-3.61876 -8.4375,0.3125 0.5104,5.16207 11.0868,21.73503 -1.5,26.125 7.9613,-8.41972 -2.43805,-16.81436 -7.46875,-28.4375 -6.5978,-15.41616 8.57005,-16.01988 15.65625,-13.09375 -0.094,-1.13 0.0469,-2.17674 -0.96875,-3.25 -0.5992,-0.63278 -1.6086,-1.27907 -3.3125,-1.9375 -7.14218,-0.7232589 -2.68854,-23.970893 -6.875,-31.46875 l -6.78125,0 c -20.83222,17.4387914 -33.30986,-1.45503 -60.78125,0 z"
         style="fill:#ffcc00;fill-opacity:1;stroke:none"
         inkscape:connector-curvature="0"
         sodipodi:nodetypes="sscsscccccccccsccccccccccccccccccccccccccccccccsssccccccccccscccccccccccssccccccccccsccccccccccccs" />
      <path
         inkscape:connector-curvature="0"
         id="path4429"
         d="m 234.12529,1102.2878 572.48831,-339.79793 -2.55808,5.40229 4.33239,207.182 -298.24515,128.75994 z"
         style="opacity:0.69026549;fill:#ffffff;fill-opacity:1;stroke:none"
         sodipodi:nodetypes="cccccc" />
      <g
         id="g3471"
         transform="matrix(11.107514,0.54566379,-0.54566379,11.107514,-3179.9094,-1105.1732)"
         style="fill:#ffffff">
        <path
           inkscape:connector-curvature="0"
           d="m 294.45694,85.442595 c -0.73137,2.023721 -0.554,4.156073 -0.31878,6.24816 0.63113,4.160304 2.44551,7.982944 3.91377,11.887005 0.73579,2.22781 1.52036,4.59605 1.04552,6.97413 -0.30945,1.54976 -0.60096,1.75267 -1.42295,3.08625 -2.59917,3.0958 -6.33326,4.62661 -10.10902,5.75309 -1.07898,0.32363 -2.17257,0.59374 -3.26443,0.86925 -0.97945,0.24714 -1.32896,-1.13802 -0.34951,-1.38515 l 0,0 c 1.07253,-0.27061 2.14688,-0.53543 3.20674,-0.8534 3.4435,-1.0205 6.88231,-2.38207 9.30952,-5.14845 0.68084,-1.0383 0.93875,-1.22186 1.20704,-2.452 0.47054,-2.1575 -0.30826,-4.31893 -0.96009,-6.34097 -1.50919,-4.01529 -3.36992,-7.948209 -3.99643,-12.232082 -0.25664,-2.338287 -0.42075,-4.718759 0.42556,-6.968575 0.39792,-0.928476 1.71098,-0.365735 1.31306,0.562742 z"
           id="path3473"
           style="fill:#ffffff;fill-opacity:1;stroke:none" />
        <path
           inkscape:connector-curvature="0"
           d="m 300.35714,93.775373 c 7.5e-4,1.091649 -0.0814,2.218108 0.39923,3.22504 0.28814,0.431039 0.73551,0.705388 1.25644,0.563209 0.41432,-0.925037 0.61584,-1.905235 0.68036,-2.916886 -0.0561,-0.800583 -0.33281,-1.48425 -1.09529,-1.798187 -0.20547,-0.03705 -0.32897,0.09399 -0.4693,0.227999 -0.81371,0.598576 -1.66022,-0.552177 -0.84651,-1.150752 l 0,0 c 0.61065,-0.411376 1.1962,-0.637925 1.92916,-0.367451 1.34225,0.68037 1.8283,1.69852 1.90694,3.189324 -0.0902,1.179166 -0.28652,2.992126 -1.22609,3.834924 -0.19502,0.174936 -0.45279,0.263679 -0.67918,0.395518 -1.25543,0.123413 -2.10317,-0.304626 -2.76109,-1.395512 -0.51967,-1.216422 -0.56889,-2.495723 -0.52324,-3.807226 0,-1.010152 1.42857,-1.010152 1.42857,0 z"
           id="path3475"
           style="fill:#ffffff;fill-opacity:1;stroke:none" />
        <path
           inkscape:connector-curvature="0"
           d="m 310.23505,79.272952 c -0.9783,3.192848 -1.0815,6.573009 -1.27947,9.881161 -0.2775,5.188943 -0.25003,10.386364 -0.34327,15.579777 -0.0696,3.87588 -0.13187,4.87692 -0.28842,8.73896 -0.21853,4.52715 -0.37369,9.05722 -0.64991,13.5813 -0.0616,1.00827 -1.48751,0.92115 -1.42591,-0.0871 l 0,0 c 0.276,-4.51431 0.42991,-9.03469 0.64842,-13.55207 0.15562,-3.83543 0.21823,-4.84656 0.28732,-8.69559 0.0937,-5.217084 0.0663,-10.438198 0.34576,-15.650763 0.20623,-3.432754 0.32307,-6.937589 1.35022,-10.247409 0.31943,-0.958315 1.6747,-0.506561 1.35526,0.451754 z"
           id="path3477"
           style="fill:#ffffff;fill-opacity:1;stroke:none" />
        <path
           inkscape:connector-curvature="0"
           d="m 300.3056,86.966687 c 2.01218,-0.08423 4.02223,0.108197 6.02912,0.230252 1.29809,0.08016 2.59747,0.13597 3.89779,0.15974 1.00998,0.01851 0.9838,1.446844 -0.0262,1.428332 l 0,0 c -1.32052,-0.02427 -2.64009,-0.08067 -3.95834,-0.162135 -1.92579,-0.117139 -3.85365,-0.2986 -5.78463,-0.236356 -1.00397,0.111553 -1.16173,-1.308281 -0.15776,-1.419833 z"
           id="path3479"
           style="fill:#ffffff;fill-opacity:1;stroke:none" />
        <path
           inkscape:connector-curvature="0"
           d="m 315.35714,87.703945 c -0.18684,3.937907 -0.66085,7.859551 -1.08638,11.778166 -0.46454,3.568709 -0.54921,7.176689 -1.00685,10.744079 -0.12928,1.00185 -1.54611,0.81901 -1.41682,-0.18284 l 0,0 c 0.46191,-3.55691 0.53355,-7.15722 1.00344,-10.715476 0.42004,-3.86751 0.88658,-7.737894 1.07804,-11.623929 0,-1.010153 1.42857,-1.010153 1.42857,0 z"
           id="path3481"
           style="fill:#ffffff;fill-opacity:1;stroke:none" />
        <path
           inkscape:connector-curvature="0"
           d="m 310.8171,99.44708 c 1.00694,-0.340218 2.0144,-0.680557 3.02912,-0.997712 0.15268,-0.04036 0.30537,-0.08071 0.45805,-0.12107 0.97702,-0.256608 1.33992,1.125102 0.3629,1.38171 l 0,0 c -0.13185,0.03437 -0.2637,0.06875 -0.39555,0.103123 -1.02604,0.319369 -2.0435,0.665729 -3.06206,1.007559 -0.97129,0.27751 -1.36375,-1.096099 -0.39246,-1.37361 z"
           id="path3483"
           style="fill:#ffffff;fill-opacity:1;stroke:none" />
        <path
           inkscape:connector-curvature="0"
           d="m 320.71429,95.87551 c -0.13754,2.130228 -0.2677,4.26212 -0.24972,6.39735 0.10952,0.90033 -0.0922,2.0417 0.38288,2.87967 0.0147,0.026 0.065,-0.0647 0.0396,-0.0805 -0.16878,-0.10554 -0.36533,-0.15824 -0.54799,-0.23736 -0.0139,-0.0437 -0.0542,-0.0869 -0.0417,-0.131 0.1583,-0.55694 0.81587,-1.9267 1.15064,-2.39575 0.11277,-0.158 0.25963,-0.28864 0.38944,-0.43296 0.23773,-0.088 0.46011,-0.24957 0.7132,-0.26399 0.79556,-0.0453 1.45611,0.64197 2.05282,1.05279 0.65392,0.45021 0.46161,0.32691 1.11004,0.65916 0.10511,-0.0105 0.22149,0.0171 0.31532,-0.0314 0.0817,-0.0423 0.11307,-0.14518 0.16836,-0.21871 0.12272,-0.16321 0.26461,-0.31407 0.36565,-0.49152 0.61292,-1.07635 0.82118,-2.27977 1.06567,-3.475323 0.38476,-3.828622 -0.72213,-7.520205 -2.10456,-11.041384 -0.22094,-0.529053 -0.44189,-1.058107 -0.66284,-1.587161 -0.38918,-0.93217 0.92911,-1.482563 1.31829,-0.550392 l 0,0 c 0.22492,0.538871 0.44984,1.077741 0.67476,1.616612 1.47786,3.78265 2.63615,7.745211 2.17317,11.852348 -0.35857,1.70822 -0.90252,5.00676 -3.11276,5.31953 -0.28732,0.0406 -0.57427,-0.0839 -0.86141,-0.12582 -0.71498,-0.37777 -1.65464,-0.87277 -2.2221,-1.45862 -0.0717,-0.074 0.006,-0.19795 0.0296,-0.25921 -0.89239,0.74204 -0.91831,2.56207 -1.92843,3.26238 -0.34096,-0.007 -0.70282,0.0972 -1.02287,-0.0206 -0.8688,-0.31967 -0.83528,-3.15234 -0.87334,-3.82956 -0.0156,-2.13885 0.1043,-4.275022 0.24967,-6.40856 0,-1.010153 1.42858,-1.010153 1.42858,0 z"
           id="path3485"
           style="fill:#ffffff;fill-opacity:1;stroke:none" />
        <path
           inkscape:connector-curvature="0"
           d="m 337.14929,95.242645 c -1.63159,0.489844 -2.64072,1.954887 -3.51374,3.315006 -1.07899,1.884939 -1.90965,3.912629 -2.30457,6.051759 -0.0209,0.43818 -0.18991,1.3299 0.42225,1.45581 0.99772,-0.4453 1.72646,-1.26675 2.43399,-2.07909 1.15571,-1.34998 1.78387,-2.97777 2.20311,-4.679533 0.24344,-0.886487 0.20515,-1.775261 0.11714,-2.675839 -0.062,-0.25598 -0.10508,-0.519955 -0.18275,-0.772038 -0.0168,-0.05444 -0.13843,-0.157852 -0.082,-0.149934 0.24774,0.03477 0.49647,0.06198 0.74471,0.09297 0.009,0.07383 0.0279,0.147124 0.0268,0.221478 -0.0316,2.02192 -0.0798,-0.788254 -0.0749,1.873911 0.003,1.573771 0.18107,3.097925 0.41031,4.652095 0.51907,2.34109 1.32902,4.6931 2.80186,6.61989 0.1779,0.23272 0.38642,0.44035 0.57963,0.66053 0.40317,0.30391 0.61728,0.54465 1.11622,0.65038 0.80059,0.16966 1.66182,-0.35935 2.32169,-0.72134 0.55696,-0.30159 1.05266,-0.68673 1.52927,-1.099 0.54183,-0.46543 1.20004,0.30084 0.65821,0.76627 l 0,0 c -0.53388,0.45584 -1.08537,0.88643 -1.7066,1.22108 -1.25466,0.67149 -2.61765,1.24718 -3.96014,0.41633 -0.26052,-0.16124 -0.48042,-0.38037 -0.72063,-0.57055 -0.2177,-0.25195 -0.45192,-0.49053 -0.65309,-0.75586 -1.55739,-2.05409 -2.42282,-4.54912 -2.96586,-7.04098 -0.0844,-0.57753 -0.1874,-1.15264 -0.25326,-1.73258 -0.15986,-1.407775 -0.19307,-2.821616 -0.13337,-4.235755 0.0118,-0.28018 0.0133,-0.56175 0.0496,-0.839824 0.0294,-0.2252 0.0978,-0.44356 0.14672,-0.66534 0.29745,-0.03932 0.59414,-0.151088 0.89235,-0.117962 0.17159,0.01906 0.43554,1.249594 0.46065,1.428088 0.0989,1.014177 0.12707,2.019709 -0.14198,3.016796 -0.46202,1.856867 -1.16002,3.630387 -2.42322,5.101667 -0.70749,0.80613 -1.87244,2.18417 -3.0058,2.35476 -0.19053,0.0287 -0.38531,-0.006 -0.57796,-0.009 -0.12835,-0.0622 -0.2674,-0.1059 -0.38504,-0.18652 -0.76913,-0.52704 -0.72055,-1.57634 -0.64081,-2.3871 0.42879,-2.26655 1.29285,-4.4197 2.44915,-6.414414 0.24126,-0.370889 0.46086,-0.756797 0.72377,-1.112666 0.90609,-1.226486 2.10189,-2.357798 3.63833,-2.664135 0.71428,0 0.71428,1.010153 0,1.010153 z"
           id="path3487"
           style="fill:#ffffff;fill-opacity:1;stroke:none" />
        <path
           inkscape:connector-curvature="0"
           d="m 339.70478,93.29504 c 0.69486,2.530265 1.00426,5.147946 1.298,7.74923 0.13655,1.23556 0.22602,2.47536 0.32546,3.7142 0.0153,0.1902 0.0283,0.38065 0.0488,0.57036 0.002,0.0215 0.0405,0.0672 0.0196,0.0617 -0.33129,-0.0872 -0.65235,-0.20937 -0.97852,-0.31406 0.0727,-3.21096 0.68976,-6.392746 1.74293,-9.425149 0.29006,-0.835187 0.64306,-1.647173 0.96458,-2.470759 0.93444,-2.10476 1.95753,-4.185522 3.20283,-6.127196 0.74293,-1.158374 1.60089,-2.226499 2.50658,-3.258294 0.54698,-0.602167 1.15796,-1.084571 1.92372,-1.355528 0.67925,-0.22096 0.99173,0.739645 0.31248,0.960605 l 0,0 c -0.60293,0.163066 -1.04618,0.635898 -1.47762,1.061989 -2.39747,2.721099 -4.09033,5.75994 -5.52721,9.086313 -0.31304,0.799165 -0.65661,1.587034 -0.93913,2.397494 -1.02882,2.951386 -1.63163,6.048815 -1.70001,9.175395 -0.3382,0.16589 -0.65165,0.39685 -1.01461,0.49768 -0.0669,0.0186 -0.034,-0.13513 -0.0421,-0.20414 -0.0225,-0.19231 -0.034,-0.38574 -0.0495,-0.57873 -0.0985,-1.22696 -0.18693,-2.4549 -0.32208,-3.67863 -0.28703,-2.545819 -0.58775,-5.108145 -1.26551,-7.58498 -0.19623,-0.686803 0.77506,-0.964313 0.97129,-0.27751 z"
           id="path3489"
           style="fill:#ffffff;fill-opacity:1;stroke:none" />
        <path
           inkscape:connector-curvature="0"
           d="m 348.01908,99.248758 c 1.42692,-0.8827 2.67051,-2.050476 3.89962,-3.186477 0.8835,-0.893819 1.78958,-1.804752 2.42504,-2.901307 0.2659,-0.458836 0.30244,-0.628647 0.47477,-1.113832 0.035,-0.310546 0.16972,-0.916984 -0.16727,-1.148755 -0.0472,-0.03246 -0.22118,0.06177 -0.22498,0.06338 -1.88743,0.936903 -3.02876,2.893702 -4.05454,4.646024 -1.00164,1.963458 -1.86822,4.092116 -1.82098,6.337309 0.006,0.2988 0.0582,0.59491 0.0873,0.89236 0.23903,0.98659 0.83856,1.8896 1.85575,2.19838 0.18321,0.0556 0.3763,0.071 0.56445,0.10652 0.23629,-0.0117 0.475,6.6e-4 0.70889,-0.0349 1.87725,-0.28579 3.93718,-1.40249 5.57849,-2.3168 0.97315,-0.57145 1.928,-1.17673 2.77841,-1.92089 0.53902,-0.46868 1.20183,0.29361 0.66282,0.76229 l 0,0 c -0.90778,0.78501 -1.91223,1.43988 -2.95013,2.04135 -1.21544,0.67533 -2.4253,1.31102 -3.72996,1.80188 -0.7156,0.26923 -1.54234,0.54854 -2.31013,0.6419 -0.31363,0.0381 -0.63181,0.009 -0.94771,0.0134 -0.25994,-0.0594 -0.52759,-0.0917 -0.77982,-0.17821 -0.98485,-0.33766 -1.78967,-1.16332 -2.17872,-2.11881 -0.11809,-0.29003 -0.17214,-0.60217 -0.25822,-0.90325 -0.0301,-0.3443 -0.0854,-0.68733 -0.0904,-1.03291 -0.0354,-2.409286 0.87538,-4.695276 1.95906,-6.801341 0.97327,-1.650782 2.41635,-4.054891 4.22951,-4.912008 0.23456,-0.110877 0.49543,-0.15423 0.74314,-0.231345 0.21363,0.0325 0.43952,0.01911 0.6409,0.09749 0.87223,0.339482 0.80665,1.628545 0.65404,2.340726 -0.21917,0.596273 -0.2519,0.763196 -0.58189,1.32702 -0.68112,1.163748 -1.63921,2.137059 -2.58218,3.086204 -0.84754,0.783139 -1.69074,1.540196 -2.59862,2.252375 -0.35506,0.278522 -0.85797,0.700717 -1.25637,0.947189 -0.12993,0.0804 -0.27385,0.13557 -0.41078,0.20335 -0.67763,0.22588 -0.99707,-0.732433 -0.31944,-0.95831 z"
           id="path3491"
           style="fill:#ffffff;fill-opacity:1;stroke:none" />
      </g>
      <g
         id="g3493"
         transform="matrix(10.64312,2.0277404,-2.0277404,10.64312,-3160.5,-1435.5373)"
         style="opacity:1;fill:#1a1a1a;fill-opacity:1">
        <path
           inkscape:connector-curvature="0"
           id="path3495"
           d="m 356.50099,92.839045 c -0.33046,0.07856 -0.60398,0.408631 -0.45208,0.864317 1.34162,4.23193 1.94281,8.669278 2.53279,13.056668 0.22684,2.02989 0.42636,4.06329 0.59066,6.10009 -1.18026,-0.39205 -2.33844,0.0664 -3.38951,0.64901 -1.4858,1.05847 -2.15602,2.7161 -2.63752,4.40958 -0.21049,1.16437 -0.56997,2.46611 -0.14141,3.63053 0.0604,0.16402 0.15792,0.3092 0.23715,0.46499 1.19651,1.31665 2.35899,0.55955 3.57707,-0.27464 0.8414,-0.6259 1.57902,-1.36181 2.28018,-2.13289 0.003,1.25219 0.0103,2.50647 0.0989,3.75588 0.10038,0.93587 -0.023,1.3815 1.37848,1.23563 0.23373,-0.0244 0.32819,-1.93059 0.31226,-1.97106 -0.0163,-5.36019 -0.44341,-10.71264 -1.04054,-16.03721 -0.60156,-4.46669 -1.2139,-8.984928 -2.58413,-13.292291 -0.13402,-0.402095 -0.47065,-0.527873 -0.76223,-0.458604 z m -28.07091,8.518975 c -0.0891,0.0216 -0.18107,0.0628 -0.27241,0.12939 -0.32655,0.23996 -0.66982,0.45897 -0.98016,0.71955 -1.21587,1.02089 -2.20119,2.25719 -2.95968,3.6508 -0.29509,0.60438 -0.63122,1.18933 -0.88499,1.81217 -1.46177,3.58783 -1.80829,7.47308 -1.89504,11.32353 -2.39238,1.32487 -4.74703,2.7245 -6.88779,4.4218 -0.68045,0.59541 0.16178,1.55864 0.84223,0.96323 1.88306,-1.48161 3.93194,-2.7326 6.02337,-3.90837 -0.003,0.50609 -0.008,1.01324 -0.008,1.51598 0.2374,5.48732 0.61198,11.05697 2.11999,16.36432 0.25983,0.86604 1.48494,0.50024 1.22514,-0.3658 -1.47304,-5.20628 -1.83718,-10.67311 -2.06745,-16.05466 0.003,-0.72047 0.008,-1.44611 0.0186,-2.17345 0.76282,-0.41765 1.52697,-0.82946 2.28822,-1.24319 0.64156,-0.33924 1.28253,-0.67963 1.9241,-1.01887 0.79932,-0.42265 0.20309,-1.55221 -0.59621,-1.12956 -0.64589,0.34154 -1.29323,0.68339 -1.93912,1.02493 -0.54606,0.29684 -1.09407,0.59296 -1.64175,0.89077 0.1098,-3.47682 0.47396,-6.96291 1.80323,-10.19525 0.23508,-0.57166 0.54907,-1.1076 0.82328,-1.66157 0.88252,-1.66742 2.04364,-2.81936 3.54739,-3.90486 0.63938,-0.46595 0.14096,-1.31254 -0.48272,-1.16089 z m 9.96753,5.96362 c -0.10774,0.0246 -0.21904,0.0817 -0.32509,0.17494 -0.97094,0.85475 -1.95036,1.6988 -2.79903,2.68058 -1.29266,1.49539 -2.3881,3.15955 -3.38814,4.85935 -0.33421,0.67714 -0.69093,1.34303 -1.00145,2.03135 -1.05161,2.33094 -1.8347,4.77493 -2.32967,7.27965 -0.23317,-1.48038 -0.4752,-2.95961 -0.75084,-4.43246 -0.1121,-0.89719 -1.38018,-0.73957 -1.26802,0.15765 0.4676,2.51066 0.84012,5.03942 1.24047,7.5617 0.23943,1.93825 0.0918,0.71385 0.21923,1.87949 -0.0341,0.18047 -0.0724,0.36702 0.003,0.48343 -0.0131,0.11485 -0.0144,0.21697 0.077,0.23398 0.29773,0.0556 0.64361,0.0499 0.93551,-0.0556 0.11702,-0.0232 0.23124,-0.0571 0.33682,-0.0965 0.0624,-0.0232 0.0632,-0.0817 0.0449,-0.15386 0.1036,-0.18711 -0.0869,-0.49741 -0.0884,-0.73552 -0.002,-0.43603 0.0161,-0.87332 0.025,-1.30927 0.32655,-3.5661 1.25641,-7.06481 2.73386,-10.32737 0.29948,-0.66129 0.64618,-1.3002 0.96837,-1.95075 0.96055,-1.61896 2.00538,-3.2053 3.24113,-4.63115 0.79872,-0.92162 1.73048,-1.71217 2.64322,-2.51528 0.5727,-0.50401 0.062,-1.26743 -0.51967,-1.13446 z m 11.57391,3.36174 c -0.91084,0.16076 -1.85448,1.59395 -2.2888,2.1216 -1.30085,1.61814 -2.15555,3.47327 -2.80468,5.41338 -0.30083,0.27241 -0.6094,0.53397 -0.92912,0.78408 -0.63021,0.42014 -0.23418,1.23347 0.35304,1.19204 -0.25606,1.13878 -0.75113,2.47488 -0.0752,3.53717 0.10647,0.16729 0.26518,0.2967 0.39782,0.44408 1.17264,0.81431 2.16915,0.50326 3.36238,-0.0626 0.50443,-0.25832 0.95277,-0.60226 1.39842,-0.94774 0.71359,-0.55529 -0.0697,-1.56527 -0.78333,-1.00998 -0.37287,0.29145 -0.74694,0.58187 -1.16754,0.80366 -0.61365,0.30131 -1.238,0.63764 -1.90338,0.31421 -0.11405,-0.0843 -0.24746,-0.15884 -0.30019,-0.30446 -0.28701,-0.79347 0.2734,-1.91651 0.35808,-2.69663 0.12382,-0.44727 0.25352,-0.89335 0.39478,-1.33453 1.08909,-1.01777 2.07474,-2.15217 3.03967,-3.28179 0.72447,-1.06494 1.88686,-2.30121 2.03959,-3.6499 0.0189,-0.16631 -0.008,-0.3373 -0.0116,-0.50463 -0.0667,-0.15887 -0.0857,-0.34674 -0.20033,-0.47525 -0.27661,-0.30962 -0.57539,-0.3963 -0.879,-0.3427 z m -0.19568,0.92202 c 0.0191,0.0606 0.0245,0.12924 0.0224,0.20238 -0.0811,-0.0632 -0.12511,-0.13402 -0.0224,-0.20238 z m -9.22886,1.77766 c -0.42889,0.0868 -1.04227,0.76058 -1.27424,1.04034 -0.84818,1.02295 -1.44992,2.20025 -2.05695,3.37226 -0.95148,2.06255 -1.91907,4.19877 -2.11588,6.48658 0.0448,1.33279 0.58688,1.96534 1.8382,2.32663 0.72422,0.18113 1.41531,0.0409 2.11231,-0.16672 0.86361,-0.26776 0.48594,-1.48741 -0.37768,-1.21965 -0.45934,0.15075 -0.91638,0.26446 -1.40112,0.15393 -0.64093,-0.15471 -0.84006,-0.26614 -0.8961,-0.99172 0.0776,-1.12425 0.39411,-2.20947 0.79872,-3.26493 0.16018,0.0157 0.33761,-0.03 0.50671,-0.17081 1.29019,-1.15301 2.34438,-2.52605 3.2533,-3.99091 0.35351,-0.73652 1.25173,-2.10943 0.8615,-2.98629 -0.0852,-0.19172 -0.24747,-0.34129 -0.37171,-0.5104 -0.29212,-0.027 -0.58952,-0.13648 -0.87706,-0.0783 z m 0.0142,0.82069 c 0.0219,-0.002 0.0304,0.11037 0.0291,0.22048 -0.0116,-0.007 -0.0231,-0.0116 -0.0327,-0.0195 -0.003,-0.0589 -0.0391,-0.12434 -0.0146,-0.17805 0.007,-0.0142 0.0131,-0.0223 0.0183,-0.0227 z m 9.02767,-1.68122 c -0.40205,0.85108 -1.25944,1.89134 -1.53768,2.3014 -0.23533,0.27582 -0.47211,0.55182 -0.71114,0.82649 0.37942,-0.71042 0.81636,-1.39447 1.32997,-2.03579 0.40174,-0.48934 0.5874,-0.72449 0.91885,-1.0921 z m -9.12452,2.47786 c -0.15737,0.44827 -0.40206,0.86773 -0.61704,1.28644 -0.456,0.74146 -0.95446,1.45492 -1.50685,2.1244 0.003,-0.009 0.008,-0.019 0.0103,-0.0279 0.5541,-1.07651 1.10816,-2.1274 1.85651,-3.08543 0.0806,-0.10314 0.16791,-0.20116 0.25654,-0.29752 z m 25.13975,-4.24395 c -1.07781,0.19207 -1.65524,1.09245 -2.22426,1.93493 -0.43363,-0.33035 -1.18114,0.0296 -0.98208,0.72636 0.4012,1.31874 1.06707,2.52709 1.93116,3.59407 0.65098,0.59086 1.74478,1.56958 2.71418,1.50101 0.23954,-0.0169 0.46658,-0.11726 0.69959,-0.17525 0.21271,-0.16617 0.44867,-0.30428 0.63845,-0.49621 0.95472,-0.96553 1.4713,-2.38132 1.79461,-3.66457 0.21955,-1.56293 -0.23878,-2.3873 -1.63421,-3.06942 -0.94254,-0.31941 -1.94814,-0.42352 -2.93744,-0.35092 z m 4.9828,-0.45531 c -0.37262,0.0739 -0.67554,0.4714 -0.43546,0.95157 0.62325,1.66918 1.34911,3.2984 2.18137,4.87352 0.49522,0.75047 1.05987,1.08169 1.78173,0.1998 0.21436,-0.26191 0.40266,-1.69097 0.48124,-2.08399 0.0852,-0.28304 0.1895,-1.47683 0.5559,-1.6074 0.0412,-0.0148 0.0744,0.0504 0.11573,0.0652 0.0829,0.0297 0.17011,0.0446 0.25507,0.0677 1.32526,0.61655 2.23199,1.80497 3.40938,2.62466 0.22873,0.0377 0.46199,0.16951 0.6864,0.1113 1.13963,-0.2952 1.15973,-1.7891 1.44968,-2.67858 0.0782,-0.2396 0.18597,-0.47115 0.27892,-0.70539 0.35138,-0.71054 0.74266,-1.7287 1.56767,-2.04235 0.45442,-0.17275 0.84578,-10e-4 1.29623,0.0921 0.35556,0.1385 0.72382,0.24636 1.06685,0.41347 2.63033,1.28127 4.89932,3.58272 7.01688,5.5603 0.37119,0.36617 0.7423,0.73268 1.11348,1.09884 0.64379,0.63488 1.5423,-0.27576 0.89853,-0.91063 -0.37957,-0.37421 -0.75795,-0.74913 -1.13751,-1.12333 -2.2279,-2.08029 -4.64744,-4.52328 -7.44124,-5.82171 -0.42626,-0.19811 -0.884,-0.32272 -1.32564,-0.48365 -0.41366,-0.0479 -0.82537,-0.16615 -1.24104,-0.14136 -1.58755,0.0948 -2.43792,1.61888 -3.00378,2.89394 -0.43893,1.14022 -0.23052,0.5071 -0.52607,1.6114 -0.0548,0.20474 -0.11428,0.40932 -0.17046,0.61371 -0.0234,0.0852 -0.0981,0.17379 -0.0901,0.2561 -1.23485,-0.9127 -2.19398,-2.25535 -3.76506,-2.64407 -0.25566,8.8e-4 -0.5192,-0.0559 -0.7677,0.003 -1.14753,0.27786 -1.30706,1.53256 -1.49716,2.49711 -0.16296,0.81661 -0.1479,0.74684 -0.13115,0.66756 -0.003,0.0284 -0.0374,0.20167 -0.0524,0.28445 -0.70169,-1.38429 -1.31052,-2.8149 -1.86219,-4.26593 -0.16427,-0.32855 -0.45327,-0.42896 -0.70821,-0.37849 z m -4.87562,1.72972 c 0.7653,-0.0761 1.54992,0.0334 2.28903,0.23553 0.78915,0.3387 1.06032,0.70261 0.93218,1.60479 -0.28384,1.19267 -0.79015,2.32612 -1.60427,3.25698 -0.0451,0.0377 -0.0806,0.0957 -0.13665,0.11313 -0.46581,0.1453 -1.56388,-0.7475 -1.87361,-1.03797 -0.52183,-0.62944 -0.95408,-1.32689 -1.28874,-2.06966 0.15959,-0.32054 0.10911,-0.2284 0.38767,-0.69384 0.34279,-0.50732 0.68566,-1.19307 1.29439,-1.40905 z m -7.90208,1.99631 c 0.29482,-0.0582 0.59878,-0.0624 0.90941,0.0103 0.48511,0.16548 0.36608,0.81079 0.37709,1.21654 -8.3e-4,0.83958 -9e-4,1.67929 -9e-4,2.51885 -0.0881,0.0409 -0.17379,0.10532 -0.25312,0.19676 -0.84644,0.97694 -1.71197,1.93506 -2.75021,2.71649 -0.23077,0.16107 -1.07273,0.83867 -1.43582,0.81924 -0.0442,-0.002 -0.23987,-0.0882 -0.29572,-0.11164 -0.60206,-0.89458 -0.11153,-2.1693 0.0173,-3.12899 0.37985,-1.3639 0.8812,-2.74403 2.03766,-3.64306 0.43751,-0.25489 0.90324,-0.49795 1.39457,-0.59506 z m 21.68452,0.19551 c 0.0454,1.9e-4 0.0937,-0.003 0.1331,0.003 0.008,0.0359 0.0168,0.0725 0.0239,0.10842 -0.0536,-0.0351 -0.10451,-0.0752 -0.15698,-0.11209 z"
           style="fill:#1a1a1a;fill-opacity:1;stroke:none;opacity:0.98999999000000005" />
        <g
           id="g3497"
           style="fill:#1a1a1a;fill-opacity:1" />
      </g>
      <g
         id="g3513"
         transform="matrix(14.200638,0.69761538,-0.69761538,14.200638,-5396.5894,-1168.124)"
         style="fill:#ffffff">
        <g
           style="fill:#ffffff"
           transform="translate(5.1974964,4.4395339)"
           id="g4447">
          <path
             style="fill:#ffffff;fill-opacity:1;stroke:none"
             id="path3515"
             d="m 403.86646,100.85378 c 0.53171,1.77064 1.08752,3.53088 1.54494,5.32276 0.55688,2.19858 0.8165,4.45418 1.25314,6.67677 0.13762,0.7009 -0.8536,0.89552 -0.99122,0.19462 l 0,0 c -0.43256,-2.20424 -0.69179,-4.44068 -1.24072,-6.62167 -0.45091,-1.76857 -1.00073,-3.50527 -1.52446,-5.25305 -0.22587,-0.67763 0.73244,-0.99706 0.95832,-0.31943 z"
             inkscape:connector-curvature="0" />
          <g
             style="fill:#ffffff"
             id="g3517"
             transform="translate(-2.6836461,2.0024461)">
            <path
               inkscape:connector-curvature="0"
               d="m 406.95079,122.58222 c -1.34801,0.40471 -2.18174,1.61511 -2.90302,2.73883 -0.89145,1.5573 -1.57772,3.23255 -1.904,4.99987 -0.0173,0.36203 -0.15691,1.09876 0.34885,1.20279 0.82432,-0.3679 1.4264,-1.04658 2.01095,-1.71773 0.95483,-1.11533 1.47381,-2.4602 1.82018,-3.86617 0.20112,-0.73242 0.16949,-1.46671 0.0967,-2.21076 -0.0513,-0.21148 -0.0868,-0.42957 -0.15097,-0.63783 -0.0132,-0.045 -0.11432,-0.13044 -0.0677,-0.12385 0.20468,0.0287 0.41018,0.0513 0.61526,0.0768 0.007,0.061 0.0231,0.12149 0.0222,0.18299 -0.0261,1.67048 -0.066,-0.65125 -0.0619,1.5482 0.003,1.30023 0.14959,2.55947 0.339,3.8435 0.42883,1.93419 1.09801,3.8774 2.31486,5.46929 0.14697,0.19226 0.31925,0.3638 0.47887,0.54571 0.3331,0.25109 0.51,0.44999 0.92222,0.53735 0.66145,0.14011 1.37297,-0.2969 1.91814,-0.59598 0.46016,-0.24917 0.86971,-0.56736 1.26348,-0.90796 0.44766,-0.38454 0.99146,0.24854 0.54381,0.63307 l 0,0 c -0.44108,0.37661 -0.89673,0.73235 -1.40998,1.00885 -1.03658,0.55477 -2.16268,1.0304 -3.27182,0.34397 -0.21524,-0.13322 -0.39692,-0.31426 -0.59537,-0.47138 -0.17987,-0.20817 -0.37338,-0.40527 -0.53957,-0.6245 -1.28671,-1.69705 -2.00171,-3.75842 -2.45038,-5.81718 -0.0698,-0.47715 -0.15482,-0.9523 -0.20924,-1.43143 -0.13204,-1.16308 -0.15951,-2.33118 -0.11019,-3.49953 0.0103,-0.23148 0.0103,-0.4641 0.0411,-0.69384 0.0243,-0.18606 0.0808,-0.36647 0.12121,-0.54971 0.24574,-0.0324 0.49087,-0.12487 0.73725,-0.0975 0.14172,0.0158 0.35983,1.0324 0.38057,1.17988 0.0818,0.8379 0.10491,1.66865 -0.11724,2.49243 -0.38172,1.53412 -0.9584,2.99939 -2.00204,4.21494 -0.58452,0.66602 -1.54698,1.80454 -2.48337,1.94549 -0.15742,0.0238 -0.31832,-0.005 -0.47749,-0.007 -0.10617,-0.0514 -0.22093,-0.0875 -0.31811,-0.1541 -0.63545,-0.43543 -0.59531,-1.30235 -0.52943,-1.97219 0.35425,-1.8726 1.06813,-3.6515 2.02345,-5.29951 0.19933,-0.30644 0.38075,-0.62527 0.59798,-0.91927 0.74859,-1.01332 1.73655,-1.94799 3.00594,-2.20108 0.59013,0 0.59013,0.83458 0,0.83458 z"
               id="path3519"
               style="fill:#ffffff;fill-opacity:1;stroke:none"
               transform="matrix(1.032209,0,0,1.032209,1.2301179,-25.378779)" />
            <path
               inkscape:connector-curvature="0"
               d="m 399.84762,98.778179 c 2.0075,-0.08501 3.99221,0.168998 5.96331,0.521077 1.65968,0.398458 3.31524,0.942634 4.80459,1.793504 0.82736,0.47268 1.03939,0.68822 1.76254,1.27017 0.98376,0.92751 2.01415,2.00235 2.23835,3.39908 0.0434,0.27006 0.0303,0.54619 0.0454,0.81929 -0.0589,0.30165 -0.0794,0.61341 -0.17674,0.90493 -0.52888,1.58396 -1.95726,2.70142 -3.37967,3.45031 -0.45925,0.2418 -0.94602,0.42725 -1.41903,0.64088 -2.82409,1.0085 -5.82317,1.40059 -8.80688,1.52439 -0.26808,1.4e-4 -0.53616,2.9e-4 -0.80425,4.3e-4 -0.71428,1e-5 -0.71429,-1.01014 -1e-5,-1.01015 l 0,0 c 0.25433,1.3e-4 0.50865,2.7e-4 0.76298,4.1e-4 2.85566,-0.11503 5.72679,-0.48909 8.43465,-1.43672 1.62245,-0.72277 3.54311,-1.58137 4.22426,-3.38015 0.0792,-0.20925 0.10359,-0.43534 0.15538,-0.65301 -0.004,-0.20087 0.013,-0.40335 -0.0128,-0.6026 -0.15354,-1.18628 -1.08715,-2.08498 -1.89697,-2.8717 -0.63367,-0.51545 -0.85485,-0.73571 -1.58042,-1.15275 -1.40302,-0.80642 -2.96508,-1.32143 -4.52954,-1.70199 -1.91222,-0.343493 -3.83736,-0.589377 -5.78521,-0.505249 -0.71429,0 -0.71429,-1.010152 0,-1.010152 z"
               id="path3521"
               style="fill:#ffffff;fill-opacity:1;stroke:none" />
            <path
               inkscape:connector-curvature="0"
               d="m 427.6976,97.122934 c -0.0174,1.343591 9.4e-4,2.708771 0.37942,4.010626 0.0777,0.26727 0.19046,0.5231 0.2857,0.78465 0.36309,0.78195 0.87432,1.6995 1.78124,1.92021 0.49063,-0.54831 0.67036,-1.80353 0.81117,-2.49793 0.1681,-0.82043 0.2906,-1.649436 0.39406,-2.480219 0.0589,-0.473239 0.0546,-0.957853 0.24238,-1.399073 0.28822,0.190611 0.68831,0.274683 0.86468,0.571822 0.14743,0.24839 -0.001,0.577778 -0.0115,0.866475 -0.0134,0.416712 -0.0297,0.833448 -0.0569,1.249495 -0.11566,1.77584 -0.317,3.54633 -0.50526,5.31539 -0.30247,2.70951 -0.66318,5.41183 -0.96627,8.12131 -0.0717,0.64006 -0.97679,0.5388 -0.90519,-0.10125 l 0,0 c 0.30297,-2.70784 0.66321,-5.40857 0.96575,-8.11643 0.18636,-1.75081 0.386,-3.50307 0.50109,-5.26054 0.0266,-0.406622 0.0419,-0.813936 0.056,-1.221198 0.009,-0.263207 -0.161,-0.592366 0.0131,-0.789965 0.18246,-0.207113 0.54298,-0.09959 0.81447,-0.149361 0.11681,-0.524577 -0.0703,0.715101 -0.11004,1.033803 -0.0677,0.542965 -0.15315,1.152341 -0.24509,1.689801 -0.0487,0.28481 -0.10622,0.56803 -0.15936,0.85205 -0.1899,0.92554 -0.42477,2.76752 -1.47276,3.15199 -0.15464,0.0568 -0.32856,0.0241 -0.49283,0.0362 -0.13361,-0.0441 -0.27278,-0.0741 -0.40081,-0.13245 -0.97184,-0.44301 -1.55768,-1.42146 -1.97565,-2.35212 -0.10584,-0.29798 -0.2305,-0.58993 -0.31742,-0.89397 -0.39091,-1.367399 -0.42072,-2.798773 -0.40134,-4.209285 0,-0.64406 0.91082,-0.64406 0.91082,0 z"
               id="path3523"
               style="fill:#ffffff;fill-opacity:1;stroke:none" />
          </g>
        </g>
      </g>
      <path
         style="opacity:0.69026549;fill:#ffffff;fill-opacity:1;stroke:none"
         d="M 494.33742,-86.210783 891.46735,144.34916 842.74749,213.99457 440.44567,-30.131817 z"
         id="path4440"
         inkscape:connector-curvature="0" />
      <path
         inkscape:connector-curvature="0"
         id="path4442"
         d="m 227.44346,-79.139715 -397.12993,230.559945 48.71986,69.64541 402.30182,-244.126389 z"
         style="opacity:0.69026549;fill:#ffffff;fill-opacity:1;stroke:none" />
      <g
         id="g3449"
         transform="matrix(1.3273464,-0.17594524,0.17594524,1.3273464,-33.202417,-185.47456)"
         style="fill:#666666"
         inkscape:transform-center-x="63.264576"
         inkscape:transform-center-y="70.369403">
        <path
           inkscape:connector-curvature="0"
           id="path3451"
           d="m 281.10003,794.06255 c -1.04541,-0.10553 -2.15572,0.44777 -2.56395,1.87641 -4.37732,13.98542 -10.71781,27.30672 -16.80127,40.61412 -3.32132,7.44059 -7.14711,14.66344 -10.35732,22.15514 -0.8874,2.07115 -2.74709,6.23758 -2.59101,8.79863 0.079,1.29882 0.77982,2.49404 1.16695,3.73633 1.15435,0.90415 2.13941,2.07569 3.45933,2.71439 2.71306,1.31288 7.99804,1.75244 10.78144,1.96341 5.35139,0.40558 10.7342,0.44182 16.10685,0.45304 -2.54461,22.09918 -4.42154,44.26879 -5.76432,66.47583 -0.58381,11.45985 -0.34687,6.00819 -0.77822,16.32095 -0.14188,3.39317 4.65974,3.59432 4.80161,0.20114 0.42866,-10.25394 0.18743,-4.84337 0.76797,-16.24316 1.34774,-22.29893 3.23492,-44.55854 5.80038,-66.74809 0.32905,7.6e-4 0.65886,0.011 0.98775,0.0122 10.4307,0.22996 20.8756,-0.50899 31.30159,-0.12508 3.39394,0.12178 3.55616,-4.68501 0.16222,-4.80679 -10.47903,-0.36685 -20.97629,0.33283 -31.45969,0.12391 -0.13776,-4.9e-4 -0.27829,0.004 -0.41613,0.004 0.28224,-2.35049 0.55759,-4.70092 0.85538,-7.04991 1.69125,-15.19539 3.91017,-30.33422 4.89616,-45.59574 0,-3.39614 -4.80799,-3.40023 -4.80799,-0.004 -1.01852,15.08152 -3.19349,30.04583 -4.86549,45.06554 -0.32049,2.52838 -0.6055,5.06684 -0.90808,7.59698 -8.88972,0.0567 -17.93687,0.11126 -26.50048,-2.20674 -0.28476,-0.37129 -0.79251,-0.6553 -0.84092,-1.12066 -0.22979,-2.20713 1.52332,-5.96138 2.20959,-7.56297 3.21096,-7.49392 7.03894,-14.73122 10.35984,-22.17459 6.18264,-13.52685 12.61777,-27.05137 17.04712,-41.27412 0.52481,-1.83683 -0.70518,-3.06459 -2.04931,-3.20029 z m -36.01932,11.23406 c -1.32967,-0.2388 -2.86551,0.59889 -2.86551,2.50922 0.42697,17.05021 -0.82781,34.01826 -2.267,50.99021 -2.05805,16.78738 -4.10551,33.58606 -6.37688,50.34651 0,0.85483 0.0118,1.71959 0.0151,2.57443 0.0487,3.39579 4.84775,3.31952 4.79884,-0.0762 -0.0177,-0.61679 -0.0345,-1.23038 -0.0521,-1.84718 2.28162,-16.83995 4.32647,-33.71475 6.3883,-50.58244 1.4502,-17.10686 2.73079,-34.2351 2.30432,-51.42061 0,-1.48581 -0.91085,-2.30814 -1.94509,-2.49387 z m -90.96376,-8.67387 c -1.36909,0.0398 -2.75508,-0.0514 -4.11307,0.1276 -7.35228,0.96941 -13.98904,5.29658 -19.84288,9.51962 -4.85565,4.40396 -9.59852,9.32173 -11.19168,15.91023 -1.07391,3.22185 3.47462,4.73504 4.54853,1.51318 1.36203,-5.78661 5.59328,-10.01864 9.86975,-13.8494 5.24228,-3.68551 11.15941,-7.64137 17.71784,-8.41615 1.02188,-0.1207 2.0588,-0.009 3.08774,-0.006 1.00734,0.24182 2.0441,0.35896 3.00925,0.73529 6.80696,2.65406 9.21415,8.47427 11.38895,14.84682 0.25652,1.56893 0.69576,3.10367 0.76326,4.692 0.34662,8.15654 -3.82605,15.30228 -9.3678,20.96049 -1.78245,1.81991 -3.80814,3.37274 -5.71667,5.05993 -11.38164,8.84445 -24.24407,14.2179 -37.84026,18.55173 -1.31572,0.40006 -2.62556,0.79043 -3.9385,1.1995 -1.88314,0.58672 -6.83319,1.40972 -5.19161,5.12952 0.82932,1.87931 5.74348,2.39883 7.20427,2.67652 14.78701,1.69357 29.61798,3.15987 44.44298,4.48615 l 6.61676,0.54068 c 3.3847,0.27838 3.76082,-4.50005 0.37612,-4.77843 l -6.57523,-0.55497 c -13.82615,-1.23662 -27.64449,-2.6131 -41.44055,-4.14752 14.34836,-4.58341 27.52312,-10.14523 39.5311,-19.51488 5.03989,-4.51834 7.46079,-6.11272 11.25069,-11.72713 3.74628,-5.54982 5.77457,-11.95788 5.38475,-18.67854 -0.10733,-1.8512 -0.63172,-3.66308 -0.95439,-5.48909 -0.58625,-1.65613 -1.04634,-3.35521 -1.75639,-4.96217 -2.56723,-5.8102 -7.00314,-10.85257 -13.14014,-12.9814 -1.32463,-0.4595 -2.74869,-0.56479 -4.12282,-0.84333 z m 47.55073,23.73635 c -5.06376,-0.74872 -10.23788,-0.36052 -15.18633,1.41033 -2.94722,1.55212 -3.99566,1.6884 -6.0569,4.34204 -3.15885,4.06693 -3.30157,9.55436 -3.33855,14.4381 1.03196,9.87847 3.38251,19.59505 8.80651,28.05934 4.46079,5.78006 9.18945,10.89544 16.56593,12.66379 1.94475,0.27781 2.98924,-1.20218 2.87586,-2.58702 5.95041,-1.41564 11.55688,-3.76527 16.32462,-7.90823 1.11879,-1.06732 2.33121,-2.03555 3.35242,-3.19664 3.76301,-4.27849 6.36217,-10.118 6.63138,-15.84191 0.0681,-1.43877 -0.16717,-2.89061 -0.25744,-4.32814 -0.35343,-1.31171 -0.63155,-2.63242 -1.06332,-3.92048 -2.59547,-7.74296 -7.89154,-13.7579 -14.7618,-18.06423 -1.65124,-0.84578 -3.25652,-1.81921 -4.96677,-2.53824 -2.89216,-1.21592 -5.88737,-2.07948 -8.92561,-2.52871 z m -1.42624,4.63924 c 3.0121,0.3726 5.97747,1.21093 8.8192,2.43546 1.48063,0.63801 2.8461,1.49802 4.27302,2.24839 7.84128,5.23848 11.08318,10.01482 13.41431,18.97398 0.50085,5.88238 -1.64663,11.68839 -5.61354,16.07576 -0.84033,0.92935 -1.84759,1.69466 -2.77088,2.54156 -5.44358,4.66487 -12.10556,6.64643 -19.04574,7.68606 -3.89816,-2.16559 -6.92472,-5.73586 -9.61524,-9.26892 -4.82775,-7.76425 -6.93657,-16.64049 -7.84145,-25.63601 0.11607,-4.39797 0.074,-10.28482 4.38321,-12.91446 0.74174,-0.45262 1.58611,-0.71201 2.37786,-1.06997 3.80167,-1.26038 7.74647,-1.55092 11.61925,-1.07185 z"
           style="fill:#000000;fill-opacity:1;stroke:none" />
        <g
           transform="matrix(1.8283696,-0.69952518,0.69952518,1.8283696,-825.05426,-1114.6277)"
           style="font-size:14.45179558px;font-style:normal;font-variant:normal;font-weight:bold;font-stretch:normal;text-align:start;line-height:125%;letter-spacing:0px;word-spacing:0px;writing-mode:lr-tb;text-anchor:start;fill-opacity:1;stroke:none;font-family:indy pimp;-inkscape-font-specification:indy pimp Bold"
           id="flowRoot4431">
          <path
             d="m 164.68758,1180.9515 c 0.28225,0 0.42338,0.073 0.42339,0.2188 l -0.39517,2.0464 c -0.23522,0.1082 -0.43751,0.1623 -0.60686,0.1623 l -0.18347,0 c -0.2117,0 -0.34813,-0.3693 -0.40928,-1.1079 -0.62568,0.1223 -1.15257,0.2776 -1.58066,0.4657 -0.66332,0.3482 -1.10788,0.7927 -1.33369,1.3337 -0.29167,0.5975 -0.43751,1.5125 -0.43751,2.745 l 0,0.9385 c 0,1.863 0.0659,2.9238 0.19759,3.1825 0.2211,0.701 0.56922,1.1832 1.04437,1.4466 0.40457,0.2211 0.87265,0.3317 1.40425,0.3317 0.51747,0 1.2443,-0.1482 2.18047,-0.4446 0.19758,0.4187 0.29637,0.7104 0.29637,0.875 l 0,0.092 c 0,0.2916 -0.26815,0.4986 -0.80444,0.6209 -0.80916,0.3199 -1.58302,0.4799 -2.3216,0.4799 -1.9335,0 -3.09547,-1.2937 -3.48594,-3.8811 -0.0753,-0.6539 -0.1129,-1.2937 -0.1129,-1.9194 0,-1.2937 0.15054,-2.9778 0.45162,-5.0525 0.047,-0.334 0.31989,-0.7668 0.81856,-1.2984 0.99262,-0.8232 2.61091,-1.2349 4.8549,-1.2349 z"
             style=""
             id="path4322" />
          <path
             d="m 170.19168,1180.9656 c 1.66534,10e-5 2.705,0.3905 3.11899,1.1714 0.31519,0.4564 0.55511,1.2396 0.71977,2.3499 0.2305,1.6465 0.34576,2.9943 0.34577,4.0434 l 0,0.3598 c -10e-6,2.6063 -0.7974,4.3257 -2.39217,5.1584 -0.47044,0.1929 -0.915,0.2893 -1.33369,0.2893 l -0.14113,0 c -1.26547,0 -2.27926,-1.0444 -3.04137,-3.1331 -0.51748,-1.7736 -0.77621,-3.493 -0.77621,-5.1583 0,-2.6392 0.8656,-4.2834 2.5968,-4.9326 0.40457,-0.099 0.70565,-0.1481 0.90324,-0.1482 z m -1.86998,4.6009 c -1e-5,1.6654 0.28461,3.4224 0.85384,5.2712 0.38575,1.0209 0.91734,1.5313 1.59478,1.5313 0.70565,-0.075 1.0914,-0.1905 1.15727,-0.3458 0.2258,-0.1552 0.41633,-0.5033 0.57158,-1.0443 0.17876,-0.5881 0.26814,-1.4137 0.26815,-2.4769 l 0,-0.042 c -1e-5,-2.2252 -0.207,-3.8858 -0.62098,-4.9819 -0.35754,-0.6351 -0.81151,-0.9526 -1.36191,-0.9527 l -0.0564,0 c -0.57864,0.052 -1.17139,0.3176 -1.77825,0.7974 -0.26345,0.2164 -0.45162,0.5998 -0.56453,1.1502 -0.0423,0.4282 -0.0635,0.7927 -0.0635,1.0938 z"
             style=""
             id="path4324" />
          <path
             d="m 175.69578,1180.9515 c 0.71977,0 1.07965,0.068 1.07965,0.2047 l 1.98289,4.2762 -0.20464,0 2.01817,-4.4809 c 1.11963,0.019 1.67945,0.097 1.67946,0.2329 0.10349,6.412 0.15523,10.3049 0.15524,11.6786 l 0.0282,0.6986 -0.0282,0.5786 c -0.15525,0.1317 -0.37165,0.1976 -0.6492,0.1976 -0.69155,0 -1.03732,-0.085 -1.03731,-0.254 l -0.15525,-9.8651 0,0.1129 0.26815,0 c -1.23725,2.3663 -1.91232,3.6036 -2.02522,3.7118 l -0.2117,0 -2.08168,-3.2813 0.26109,0 0,7.24 c 0,1.5242 -0.0823,2.2863 -0.24698,2.2863 l -0.20464,0.049 -0.2752,0 c -0.61157,-0.038 -0.91735,-0.1294 -0.91735,-0.2752 l 0.0212,-11.1141 0,-1.7641 c 0,-0.1552 0.18112,-0.2329 0.54335,-0.2329 z"
             style=""
             id="path4326" />
          <path
             d="m 183.81786,1181.008 c 0.24463,0 0.60921,0.056 1.09376,0.1693 l 0.0212,3.3801 0,9.1241 c 0,0.4375 -0.13407,0.6563 -0.40222,0.6563 l -0.17641,0 c -0.40458,0 -0.75976,-0.089 -1.06554,-0.2682 l 0,-12.8146 c 0.0847,-0.1647 0.26109,-0.247 0.52924,-0.247 z"
             style=""
             id="path4328" />
          <path
             d="m 192.26454,1180.9868 c 0.25873,0 0.42338,0.085 0.49396,0.2541 l 0,0.063 c -1e-5,1.1996 -0.14349,5.4617 -0.43045,12.7864 -0.28227,0.1647 -0.5269,0.247 -0.73388,0.247 l -0.11291,0 c -0.16465,-0.085 -0.45868,-0.6539 -0.88206,-1.7077 -0.87972,-1.9946 -2.00642,-4.6479 -3.38009,-7.9598 l 0.27521,0 0,2.3851 0.0282,4.1211 -0.0282,3.0202 -0.27521,0.092 -0.2752,0 c -0.68684,0 -1.03026,-0.075 -1.03026,-0.2258 l 0,-12.6877 c 0,-0.2117 0.17877,-0.3175 0.5363,-0.3175 l 0.15524,0 c 0.59275,0 0.88913,0.08 0.88913,0.2399 0.0141,0.089 0.76681,1.9359 2.25809,5.5394 l 1.67946,4.1281 -0.28226,0 0,0.1199 0.0212,-5.8428 0,-2.124 0.0282,-1.87 c 0.39516,-0.174 0.75034,-0.2611 1.06554,-0.2611 z"
             style=""
             id="path4330" />
          <path
             d="m 197.96623,1181.0009 c 0.90793,0 1.80882,0.1647 2.70265,0.494 -0.14114,0.7104 -0.25875,1.1149 -0.35283,1.2137 -0.49866,-0.085 -0.87266,-0.127 -1.12199,-0.127 l -0.1623,0 -0.0635,-0.014 -0.0635,0.014 -0.11997,0 c -1.64653,0 -2.77322,0.8891 -3.38008,2.6674 -0.17877,0.7339 -0.26815,1.3384 -0.26815,1.8135 0,2.1593 0.17641,3.54 0.52924,4.1422 0.45632,1.0491 1.10788,1.5736 1.95466,1.5736 l 0.23287,0 c 0.85148,0 1.43247,-0.4046 1.74297,-1.2137 0.0988,-0.3058 0.14818,-0.621 0.14818,-0.9456 l 0,-0.3387 c 0,0.061 0.0353,0.092 0.10585,0.092 -1.56655,-0.066 -2.40158,-0.2234 -2.50507,-0.4728 -0.0612,-0.099 -0.1035,-0.2399 -0.12702,-0.4234 l 0.0988,-0.4869 c 2.51213,0.1271 3.87639,0.2188 4.0928,0.2752 -0.14585,2.1076 -0.27757,3.1614 -0.39517,3.1614 -0.23993,0.6257 -0.79034,1.1361 -1.65123,1.5312 -0.71036,0.2541 -1.41131,0.3811 -2.10285,0.3811 l -0.1129,0 c -1.59478,0 -2.67914,-1.1338 -3.25307,-3.4013 -0.18347,-0.9032 -0.2752,-1.8511 -0.2752,-2.8437 0,-1.5148 0.19052,-3.0367 0.57158,-4.5656 0.56922,-1.6842 1.82764,-2.5263 3.77525,-2.5263 z"
             style=""
             id="path4332" />
          <path
             d="m 210.44219,1180.9939 c 1.06318,0 2.08402,0.5339 3.06254,1.6018 l 0,0.1623 c -1e-5,0.2117 -0.21171,0.5551 -0.63509,1.0303 -0.91736,-0.7904 -1.71004,-1.1855 -2.37806,-1.1855 l -0.1623,0 c -0.66332,0 -1.23725,0.3457 -1.72179,1.0373 -0.0565,0.1788 -0.0847,0.3128 -0.0847,0.4022 0,0.4469 0.27285,0.8656 0.81856,1.2561 0.21639,0 1.06553,0.2728 2.54741,0.8185 0.66801,0.2635 1.27722,0.6704 1.82764,1.2208 0.17876,0.2023 0.34812,0.7127 0.50807,1.5313 l 0.0917,1.0443 c -1e-5,1.6513 -0.70566,2.9356 -2.11696,3.8529 -0.60687,0.3811 -1.25137,0.5716 -1.9335,0.5716 l -0.13407,0 c -1.01144,0 -2.30984,-0.3034 -3.89521,-0.9103 l 0,-0.1411 c 0.18347,-0.9127 0.43045,-1.369 0.74094,-1.369 0.98791,0.4657 1.86527,0.6986 2.63208,0.6986 l 0.18347,0 c 1.06789,0 1.96407,-0.414 2.68855,-1.242 0.0988,-0.4516 0.14818,-0.8608 0.14818,-1.2278 0,-1.369 -0.57864,-2.2887 -1.7359,-2.7591 -0.27757,-0.085 -0.87502,-0.2329 -1.79237,-0.4446 -1.56655,-0.5504 -2.34982,-1.4371 -2.34982,-2.6603 0.1129,-0.9314 0.22345,-1.3972 0.33165,-1.3972 0.34342,-0.6821 1.10553,-1.249 2.28632,-1.7006 0.47043,-0.127 0.82797,-0.1905 1.0726,-0.1905 z"
             style=""
             id="path4334" />
          <path
             d="m 218.5431,1180.9656 c 1.66534,10e-5 2.705,0.3905 3.11899,1.1714 0.31518,0.4564 0.55511,1.2396 0.71977,2.3499 0.2305,1.6465 0.34576,2.9943 0.34577,4.0434 l 0,0.3598 c -1e-5,2.6063 -0.7974,4.3257 -2.39217,5.1584 -0.47044,0.1929 -0.915,0.2893 -1.33369,0.2893 l -0.14113,0 c -1.26547,0 -2.27926,-1.0444 -3.04137,-3.1331 -0.51748,-1.7736 -0.77622,-3.493 -0.77622,-5.1583 0,-2.6392 0.8656,-4.2834 2.59681,-4.9326 0.40457,-0.099 0.70565,-0.1481 0.90324,-0.1482 z m -1.86999,4.6009 c 0,1.6654 0.28462,3.4224 0.85385,5.2712 0.38575,1.0209 0.91734,1.5313 1.59477,1.5313 0.70565,-0.075 1.09141,-0.1905 1.15728,-0.3458 0.2258,-0.1552 0.41633,-0.5033 0.57158,-1.0443 0.17876,-0.5881 0.26814,-1.4137 0.26814,-2.4769 l 0,-0.042 c 0,-2.2252 -0.20699,-3.8858 -0.62097,-4.9819 -0.35754,-0.6351 -0.81151,-0.9526 -1.36191,-0.9527 l -0.0565,0 c -0.57864,0.052 -1.17138,0.3176 -1.77824,0.7974 -0.26345,0.2164 -0.45162,0.5998 -0.56453,1.1502 -0.0423,0.4282 -0.0635,0.7927 -0.0635,1.0938 z"
             style=""
             id="path4336" />
          <path
             d="m 226.98272,1180.9656 c 1.66534,10e-5 2.705,0.3905 3.11899,1.1714 0.31518,0.4564 0.55511,1.2396 0.71977,2.3499 0.2305,1.6465 0.34576,2.9943 0.34577,4.0434 l 0,0.3598 c -1e-5,2.6063 -0.7974,4.3257 -2.39217,5.1584 -0.47044,0.1929 -0.915,0.2893 -1.33369,0.2893 l -0.14113,0 c -1.26547,0 -2.27926,-1.0444 -3.04137,-3.1331 -0.51748,-1.7736 -0.77622,-3.493 -0.77622,-5.1583 0,-2.6392 0.86561,-4.2834 2.59681,-4.9326 0.40457,-0.099 0.70565,-0.1481 0.90324,-0.1482 z m -1.86999,4.6009 c 0,1.6654 0.28462,3.4224 0.85385,5.2712 0.38575,1.0209 0.91734,1.5313 1.59477,1.5313 0.70565,-0.075 1.09141,-0.1905 1.15728,-0.3458 0.2258,-0.1552 0.41633,-0.5033 0.57158,-1.0443 0.17876,-0.5881 0.26814,-1.4137 0.26815,-2.4769 l 0,-0.042 c -1e-5,-2.2252 -0.207,-3.8858 -0.62098,-4.9819 -0.35754,-0.6351 -0.81151,-0.9526 -1.36191,-0.9527 l -0.0565,0 c -0.57863,0.052 -1.17138,0.3176 -1.77824,0.7974 -0.26345,0.2164 -0.45162,0.5998 -0.56453,1.1502 -0.0423,0.4282 -0.0635,0.7927 -0.0635,1.0938 z"
             style=""
             id="path4338" />
          <path
             d="m 238.27319,1180.9868 c 0.25873,0 0.42338,0.085 0.49396,0.2541 l 0,0.063 c -10e-6,1.1996 -0.14349,5.4617 -0.43045,12.7864 -0.28227,0.1647 -0.5269,0.247 -0.73388,0.247 l -0.11291,0 c -0.16466,-0.085 -0.45868,-0.6539 -0.88206,-1.7077 -0.87972,-1.9946 -2.00642,-4.6479 -3.38009,-7.9598 l 0.27521,0 0,2.3851 0.0282,4.1211 -0.0282,3.0202 -0.27521,0.092 -0.2752,0 c -0.68684,0 -1.03026,-0.075 -1.03026,-0.2258 l 0,-12.6877 c 0,-0.2117 0.17877,-0.3175 0.5363,-0.3175 l 0.15524,0 c 0.59275,0 0.88913,0.08 0.88913,0.2399 0.0141,0.089 0.76681,1.9359 2.25809,5.5394 l 1.67946,4.1281 -0.28226,0 0,0.1199 0.0212,-5.8428 0,-2.124 0.0282,-1.87 c 0.39516,-0.174 0.75034,-0.2611 1.06554,-0.2611 z"
             style=""
             id="path4340" />
          <path
             d="m 244.25713,1192.489 c 0.69624,0.1646 1.04437,0.3222 1.04437,0.4728 0.08,0.056 0.11996,0.1787 0.11996,0.3669 -0.14113,0.6727 -0.36929,1.0091 -0.68449,1.0091 -0.37164,0 -0.71976,-0.207 -1.04436,-0.621 l -0.0565,-0.1976 c 0,-0.2681 0.207,-0.6115 0.62098,-1.0302 z"
             style=""
             id="path4342" />
          <path
             d="m 246.74103,1192.489 c 0.69625,0.1646 1.04437,0.3222 1.04437,0.4728 0.08,0.056 0.11996,0.1787 0.11996,0.3669 -0.14113,0.6727 -0.36929,1.0091 -0.68448,1.0091 -0.37165,0 -0.71977,-0.207 -1.04437,-0.621 l -0.0565,-0.1976 c 0,-0.2681 0.20699,-0.6115 0.62097,-1.0302 z"
             style=""
             id="path4344" />
          <path
             d="m 249.22493,1192.489 c 0.69625,0.1646 1.04437,0.3222 1.04437,0.4728 0.08,0.056 0.11996,0.1787 0.11996,0.3669 -0.14113,0.6727 -0.36929,1.0091 -0.68448,1.0091 -0.37165,0 -0.71977,-0.207 -1.04437,-0.621 l -0.0565,-0.1976 c 0,-0.2681 0.20699,-0.6115 0.62097,-1.0302 z"
             style=""
             id="path4346" />
        </g>
      </g>
    </g>
  </g>
</svg>
